{
.appVersion = "3436";
.formatVersion = 3;
DisplayStrings = (
"Ã",
"Å",
"Â",
"Ě",
"Ň",
"Õ",
"Ž",
"Æ"
);
customParameters = (
{
name = vendorID;
value = "    ";
},
{
name = panose;
value = (
0,
0,
0,
0,
0,
0,
0,
0,
0,
0
);
},
{
name = unicodeRanges;
value = (
0,
1,
2,
3,
5,
7,
31,
32,
33,
35,
37,
38,
47,
69
);
},
{
name = fsType;
value = (
);
},
{
name = glyphOrder;
value = (
.notdef,
.null,
uni000D,
space,
uni000A,
exclam,
quotedbl,
numbersign,
dollar,
percent,
ampersand,
quotesingle,
parenleft,
parenright,
asterisk,
plus,
comma,
hyphen,
period,
slash,
zero,
one,
two,
three,
four,
five,
six,
seven,
eight,
nine,
colon,
semicolon,
less,
equal,
greater,
question,
at,
A,
B,
C,
D,
E,
F,
G,
H,
I,
J,
K,
L,
M,
N,
O,
P,
Q,
R,
S,
T,
U,
V,
W,
X,
Y,
Z,
bracketleft,
backslash,
bracketright,
asciicircum,
underscore,
grave,
a,
b,
c,
d,
e,
f,
g,
h,
i,
j,
k,
l,
m,
n,
o,
p,
q,
r,
s,
t,
u,
v,
w,
x,
y,
z,
braceleft,
bar,
braceright,
asciitilde,
uni00A0,
exclamdown,
cent,
sterling,
currency,
yen,
brokenbar,
section,
dieresis,
copyright,
ordfeminine,
guillemotleft,
logicalnot,
uni00AD,
registered,
macron,
degree,
plusminus,
twosuperior,
threesuperior,
acute,
uni00B5,
paragraph,
periodcentered,
cedilla,
onesuperior,
ordmasculine,
guillemotright,
onequarter,
onehalf,
threequarters,
questiondown,
Adieresis,
AE,
Ccedilla,
Eth,
Odieresis,
multiply,
Oslash,
Udieresis,
Thorn,
germandbls,
adieresis,
ae,
ccedilla,
eth,
odieresis,
divide,
oslash,
udieresis,
thorn,
dotlessi,
Lslash,
lslash,
OE,
oe,
uni0237,
circumflex,
caron,
ring,
tilde,
pi,
endash,
emdash,
quoteleft,
quoteright,
quotesinglbase,
quotereversed,
quotedblleft,
quotedblright,
quotedblbase,
dagger,
daggerdbl,
bullet,
ellipsis,
perthousand,
guilsinglleft,
guilsinglright,
fraction,
uni2074,
Euro,
trademark,
arrowleft,
arrowup,
arrowright,
arrowdown,
summation,
minus,
uni2215,
infinity,
integral,
approxequal,
notequal,
lessequal,
greaterequal,
uni2713,
uni2717,
uniFFFD,
iDot,
jDot
);
}
);
date = "2019-05-25 22:00:41 +0000";

glyphs = (
{
glyphname = exclam;
lastChange = "2025-12-26 02:35:02 +0000";
layers = (
{
layerId = m01;
shapes = (
{
closed = 1;
nodes = (
(169,62,o),
(161,82,qs),
(157,92,o),
(129,102,o),
(113,102,qs),
(97,102,o),
(77,94,qs),
(61,88,o),
(59,50,o),
(69,40,qs),
(79,30,o),
(111,20,o),
(123,26,qs),
(145,36,o)
);
},
{
closed = 1;
nodes = (
(119,440,o),
(101,362,o),
(93,290,o),
(99,262,qs),
(103,236,o),
(125,236,qs),
(143,236,o),
(145,254,q),
(163,336,o),
(197,452,o),
(229,528,qs),
(255,592,o),
(297,674,o),
(329,728,o),
(351,760,o),
(353,774,q),
(357,788,o),
(325,808,o),
(307,808,qs),
(287,808,o),
(277,796,qs),
(267,782,o),
(235,722,o),
(199,650,o),
(165,574,o),
(153,544,qs),
(141,514,o)
);
}
);
userData = {
assembly = "PUSHW[ ]	/* 1 value pushed */
0
CALL[ ]	/* CallFunction */
SVTCA[0]	/* SetFreedomAndProjectionVectorToAxis */
PUSHW[ ]	/* 1 value pushed */
19
MDAP[1]	/* MoveDirectAbsPt */
PUSHW[ ]	/* 1 value pushed */
21
MDAP[1]	/* MoveDirectAbsPt */
PUSHW[ ]	/* 1 value pushed */
6
MDAP[1]	/* MoveDirectAbsPt */
PUSHW[ ]	/* 1 value pushed */
8
MDAP[1]	/* MoveDirectAbsPt */
SVTCA[1]	/* SetFreedomAndProjectionVectorToAxis */
PUSHW[ ]	/* 3 values pushed */
32 36 3
CALL[ ]	/* CallFunction */
NPUSHW[ ]	/* 27 values pushed */
6 32 22 32 38 32 54 32 70 32 86 32 102 32 118 32 134 32 150 32 166 32 182 32 198 32 13
DELTAP1[ ]	/* DeltaExceptionP1 */
NPUSHW[ ]	/* 5 values pushed */
213 32 229 32 2
DELTAP1[ ]	/* DeltaExceptionP1 */
IUP[0]	/* InterpolateUntPts */
IUP[1]	/* InterpolateUntPts */";
};
width = 414;
}
);
note = exclam;
unicode = 33;
},
{
glyphname = quotedbl;
lastChange = "2025-12-26 02:35:02 +0000";
layers = (
{
layerId = m01;
shapes = (
{
closed = 1;
nodes = (
(88,648,o),
(118,648,qs),
(134,648,o),
(144,674,o),
(140,688,qs),
(134,704,o),
(124,740,o),
(126,754,qs),
(128,776,o),
(136,806,o),
(144,832,o),
(150,856,o),
(150,872,qs),
(150,884,o),
(132,900,o),
(120,900,qs),
(106,900,o),
(84,858,o),
(68,802,o),
(60,750,o),
(60,738,qs),
(60,714,o)
);
},
{
closed = 1;
nodes = (
(224,732,o),
(234,700,o),
(254,678,o),
(270,678,qs),
(282,678,o),
(292,702,o),
(288,714,qs),
(280,748,o),
(286,802,qs),
(290,832,o),
(304,880,o),
(304,896,qs),
(304,918,o),
(282,918,qs),
(262,918,o),
(250,898,qs),
(222,858,o),
(220,776,qs),
(220,764,o)
);
}
);
userData = {
assembly = "PUSHW[ ]	/* 1 value pushed */
0
CALL[ ]	/* CallFunction */
SVTCA[0]	/* SetFreedomAndProjectionVectorToAxis */
PUSHW[ ]	/* 3 values pushed */
5 19 3
CALL[ ]	/* CallFunction */
PUSHW[ ]	/* 3 values pushed */
26 36 3
CALL[ ]	/* CallFunction */
SVTCA[1]	/* SetFreedomAndProjectionVectorToAxis */
PUSHW[ ]	/* 3 values pushed */
26 22 3
CALL[ ]	/* CallFunction */
PUSHW[ ]	/* 3 values pushed */
13 0 3
CALL[ ]	/* CallFunction */
NPUSHW[ ]	/* 27 values pushed */
6 13 22 13 38 13 54 13 70 13 86 13 102 13 118 13 134 13 150 13 166 13 182 13 198 13 13
DELTAP1[ ]	/* DeltaExceptionP1 */
NPUSHW[ ]	/* 5 values pushed */
213 13 229 13 2
DELTAP1[ ]	/* DeltaExceptionP1 */
NPUSHW[ ]	/* 5 values pushed */
218 22 234 22 2
DELTAP1[ ]	/* DeltaExceptionP1 */
NPUSHW[ ]	/* 27 values pushed */
9 22 25 22 41 22 57 22 73 22 89 22 105 22 121 22 137 22 153 22 169 22 185 22 201 22 13
DELTAP1[ ]	/* DeltaExceptionP1 */
PUSHW[ ]	/* 1 value pushed */
26
SRP0[ ]	/* SetRefPoint0 */
PUSHW[ ]	/* 1 value pushed */
31
MDRP[10000]	/* MoveDirectRelPt */
PUSHW[ ]	/* 1 value pushed */
31
MDAP[1]	/* MoveDirectAbsPt */
IUP[0]	/* InterpolateUntPts */
IUP[1]	/* InterpolateUntPts */";
};
width = 364;
}
);
note = quotedbl;
unicode = 34;
},
{
glyphname = numbersign;
lastChange = "2025-12-26 02:35:02 +0000";
layers = (
{
layerId = m01;
shapes = (
{
closed = 1;
nodes = (
(349,308,o),
(291,292,q),
(297,320,o),
(315,376,o),
(325,404,q),
(357,414,o),
(411,436,o),
(429,444,qs),
(455,454,o),
(517,480,o),
(551,492,q),
(543,468,o),
(533,426,o),
(529,414,qs),
(525,402,o),
(523,382,o),
(519,372,q),
(463,348,o)
);
},
{
closed = 1;
nodes = (
(715,550,o),
(733,556,qs),
(769,568,o),
(803,572,o),
(821,568,qs),
(831,566,o),
(849,560,o),
(859,566,qs),
(871,574,o),
(857,622,o),
(821,630,qs),
(789,636,o),
(727,624,o),
(693,612,qs),
(683,608,o),
(663,602,o),
(651,598,q),
(661,626,o),
(677,674,o),
(677,692,q),
(679,706,o),
(661,718,o),
(649,718,qs),
(639,718,o),
(619,706,o),
(615,696,qs),
(611,684,o),
(589,614,o),
(575,572,q),
(541,560,o),
(469,532,o),
(433,516,qs),
(411,506,o),
(367,490,o),
(345,480,q),
(363,544,o),
(397,632,o),
(397,656,q),
(399,672,o),
(377,690,o),
(365,690,qs),
(351,690,o),
(345,678,qs),
(339,662,o),
(323,598,o),
(313,564,q),
(305,544,o),
(287,484,o),
(277,452,q),
(253,442,o),
(209,426,o),
(187,418,qs),
(145,404,o),
(105,396,o),
(77,384,qs),
(69,380,o),
(59,360,o),
(63,340,o),
(81,326,o),
(99,328,qs),
(113,330,o),
(133,334,o),
(155,342,o),
(185,354,o),
(205,360,qs),
(215,364,o),
(241,374,o),
(255,378,q),
(253,370,o),
(249,356,o),
(247,352,q),
(243,334,o),
(235,296,o),
(233,274,q),
(195,264,o),
(117,250,o),
(77,250,qs),
(69,250,o),
(67,232,o),
(73,210,o),
(91,192,o),
(103,192,qs),
(125,192,o),
(193,202,o),
(229,210,q),
(229,202,o),
(235,176,o),
(243,148,o),
(257,128,o),
(269,128,qs),
(283,128,o),
(285,146,q),
(289,162,o),
(285,200,o),
(285,222,q),
(341,238,o),
(451,278,o),
(505,300,q),
(495,254,o),
(487,186,o),
(483,150,qs),
(481,136,o),
(501,120,o),
(511,120,qs),
(521,120,o),
(535,136,o),
(537,152,qs),
(543,196,o),
(561,284,o),
(571,326,q),
(591,334,o),
(621,346,o),
(631,350,qs),
(647,356,o),
(703,376,o),
(763,394,o),
(815,410,o),
(827,412,qs),
(835,414,o),
(851,426,o),
(853,438,o),
(841,450,o),
(823,450,qs),
(811,450,ls),
(765,450,o),
(647,418,o),
(589,398,q),
(593,414,o),
(601,444,o),
(605,460,qs),
(609,476,o),
(619,504,o),
(623,518,q),
(657,530,o)
);
}
);
userData = {
assembly = "PUSHW[ ]	/* 1 value pushed */
0
CALL[ ]	/* CallFunction */
SVTCA[0]	/* SetFreedomAndProjectionVectorToAxis */
PUSHW[ ]	/* 1 value pushed */
105
MDAP[1]	/* MoveDirectAbsPt */
PUSHW[ ]	/* 1 value pushed */
122
MDAP[1]	/* MoveDirectAbsPt */
PUSHW[ ]	/* 1 value pushed */
143
MDAP[1]	/* MoveDirectAbsPt */
PUSHW[ ]	/* 1 value pushed */
146
MDAP[1]	/* MoveDirectAbsPt */
PUSHW[ ]	/* 1 value pushed */
149
MDAP[1]	/* MoveDirectAbsPt */
PUSHW[ ]	/* 3 values pushed */
74 69 3
CALL[ ]	/* CallFunction */
PUSHW[ ]	/* 3 values pushed */
0 41 3
CALL[ ]	/* CallFunction */
PUSHW[ ]	/* 3 values pushed */
27 3 3
CALL[ ]	/* CallFunction */
PUSHW[ ]	/* 1 value pushed */
41
SRP0[ ]	/* SetRefPoint0 */
PUSHW[ ]	/* 1 value pushed */
91
MDRP[10000]	/* MoveDirectRelPt */
PUSHW[ ]	/* 1 value pushed */
91
MDAP[1]	/* MoveDirectAbsPt */
PUSHW[ ]	/* 1 value pushed */
24
MDRP[11100]	/* MoveDirectRelPt */
PUSHW[ ]	/* 1 value pushed */
33
MDRP[10000]	/* MoveDirectRelPt */
PUSHW[ ]	/* 1 value pushed */
33
MDAP[1]	/* MoveDirectAbsPt */
PUSHW[ ]	/* 3 values pushed */
83 91 24
SRP1[ ]	/* SetRefPoint1 */
SRP2[ ]	/* SetRefPoint2 */
IP[ ]	/* InterpolatePts */
SVTCA[1]	/* SetFreedomAndProjectionVectorToAxis */
PUSHW[ ]	/* 3 values pushed */
56 66 3
CALL[ ]	/* CallFunction */
PUSHW[ ]	/* 3 values pushed */
131 125 3
CALL[ ]	/* CallFunction */
NPUSHW[ ]	/* 5 values pushed */
218 125 234 125 2
DELTAP1[ ]	/* DeltaExceptionP1 */
NPUSHW[ ]	/* 27 values pushed */
9 125 25 125 41 125 57 125 73 125 89 125 105 125 121 125 137 125 153 125 169 125 185 125 201 125 13
DELTAP1[ ]	/* DeltaExceptionP1 */
PUSHW[ ]	/* 1 value pushed */
125
SRP0[ ]	/* SetRefPoint0 */
PUSHW[ ]	/* 1 value pushed */
44
MDRP[11100]	/* MoveDirectRelPt */
PUSHW[ ]	/* 3 values pushed */
6 125 44
SRP1[ ]	/* SetRefPoint1 */
SRP2[ ]	/* SetRefPoint2 */
IP[ ]	/* InterpolatePts */
NPUSHW[ ]	/* 27 values pushed */
6 56 22 56 38 56 54 56 70 56 86 56 102 56 118 56 134 56 150 56 166 56 182 56 198 56 13
DELTAP1[ ]	/* DeltaExceptionP1 */
NPUSHW[ ]	/* 5 values pushed */
213 56 229 56 2
DELTAP1[ ]	/* DeltaExceptionP1 */
PUSHW[ ]	/* 1 value pushed */
56
SRP0[ ]	/* SetRefPoint0 */
PUSHW[ ]	/* 1 value pushed */
15
MDRP[10000]	/* MoveDirectRelPt */
PUSHW[ ]	/* 1 value pushed */
15
MDAP[1]	/* MoveDirectAbsPt */
PUSHW[ ]	/* 3 values pushed */
24 125 44
SRP1[ ]	/* SetRefPoint1 */
SRP2[ ]	/* SetRefPoint2 */
IP[ ]	/* InterpolatePts */
PUSHW[ ]	/* 3 values pushed */
53 66 131
SRP1[ ]	/* SetRefPoint1 */
SRP2[ ]	/* SetRefPoint2 */
IP[ ]	/* InterpolatePts */
PUSHW[ ]	/* 1 value pushed */
56
SRP0[ ]	/* SetRefPoint0 */
PUSHW[ ]	/* 1 value pushed */
59
MDRP[10000]	/* MoveDirectRelPt */
PUSHW[ ]	/* 1 value pushed */
66
SRP0[ ]	/* SetRefPoint0 */
PUSHW[ ]	/* 1 value pushed */
77
MDRP[10000]	/* MoveDirectRelPt */
PUSHW[ ]	/* 1 value pushed */
77
MDAP[1]	/* MoveDirectAbsPt */
PUSHW[ ]	/* 3 values pushed */
83 66 56
SRP1[ ]	/* SetRefPoint1 */
SRP2[ ]	/* SetRefPoint2 */
IP[ ]	/* InterpolatePts */
PUSHW[ ]	/* 3 values pushed */
116 66 131
SRP1[ ]	/* SetRefPoint1 */
SRP2[ ]	/* SetRefPoint2 */
IP[ ]	/* InterpolatePts */
PUSHW[ ]	/* 3 values pushed */
134 125 131
SRP1[ ]	/* SetRefPoint1 */
SRP2[ ]	/* SetRefPoint2 */
IP[ ]	/* InterpolatePts */
IUP[0]	/* InterpolateUntPts */
IUP[1]	/* InterpolateUntPts */";
};
width = 927;
}
);
note = numbersign;
unicode = 35;
},
{
glyphname = dollar;
lastChange = "2025-12-26 02:35:02 +0000";
layers = (
{
layerId = m01;
shapes = (
{
closed = 1;
nodes = (
(358,580,o),
(394,602,q),
(384,572,o),
(368,516,o),
(362,492,qs),
(358,476,o),
(348,442,o),
(342,422,q),
(302,446,o),
(302,486,qs),
(300,516,o)
);
},
{
closed = 1;
nodes = (
(352,288,o),
(374,356,q),
(384,352,o),
(400,346,o),
(410,342,q),
(400,302,o),
(384,222,o),
(380,196,qs),
(378,188,o),
(378,172,o),
(376,164,q),
(364,156,o),
(340,144,o),
(330,138,q),
(320,134,o),
(306,130,o),
(298,126,q),
(308,162,o)
);
},
{
closed = 1;
nodes = (
(426,404,o),
(422,386,q),
(412,390,o),
(396,396,o),
(388,400,q),
(398,428,o),
(414,476,o),
(418,498,q),
(426,520,o),
(446,594,o),
(456,634,q),
(470,640,o),
(496,650,o),
(508,654,q),
(492,604,o),
(458,498,o),
(442,454,q),
(438,438,o)
);
},
{
closed = 1;
nodes = (
(456,222,o),
(434,204,q),
(438,222,o),
(444,258,o),
(448,276,qs),
(452,302,o),
(460,324,q),
(482,316,o),
(504,300,o),
(500,290,qs),
(492,266,o)
);
},
{
closed = 1;
nodes = (
(590,724,q),
(600,744,o),
(616,772,o),
(622,782,qs),
(630,792,o),
(602,818,o),
(586,818,qs),
(576,818,o),
(568,810,qs),
(550,790,o),
(528,716,q),
(518,716,o),
(512,714,qs),
(476,702,l),
(486,740,o),
(504,806,o),
(512,828,qs),
(516,842,o),
(488,864,o),
(474,864,qs),
(464,864,o),
(460,854,q),
(450,814,o),
(428,724,o),
(416,678,q),
(390,666,o),
(330,630,o),
(278,582,o),
(242,526,o),
(238,496,qs),
(236,478,o),
(262,414,o),
(320,380,q),
(322,378,o),
(324,378,o),
(326,376,q),
(304,306,o),
(256,160,o),
(242,108,q),
(220,104,o),
(184,102,o),
(164,104,qs),
(144,108,o),
(116,136,o),
(112,168,q),
(112,180,o),
(98,190,o),
(88,190,qs),
(78,190,o),
(58,174,o),
(60,158,qs),
(62,136,o),
(102,74,o),
(148,58,qs),
(178,46,o),
(232,52,q),
(230,14,o),
(242,-8,qs),
(248,-18,o),
(266,-18,qs),
(276,-18,o),
(292,-8,o),
(294,2,qs),
(296,18,o),
(292,44,o),
(292,64,q),
(312,70,o),
(352,86,o),
(374,96,q),
(376,80,o),
(380,54,o),
(384,44,qs),
(392,28,o),
(426,36,o),
(426,50,qs),
(426,68,o),
(426,106,o),
(428,128,q),
(466,156,o),
(516,202,o),
(546,244,o),
(560,284,o),
(562,308,qs),
(564,330,o),
(506,356,o),
(472,366,q),
(488,420,o),
(518,528,o),
(528,556,qs),
(536,582,o),
(556,640,o),
(568,668,q),
(616,676,o),
(670,650,qs),
(680,646,o),
(696,654,o),
(702,672,o),
(698,694,o),
(686,702,qs),
(652,728,o)
);
}
);
userData = {
assembly = "PUSHW[ ]	/* 1 value pushed */
0
CALL[ ]	/* CallFunction */
SVTCA[0]	/* SetFreedomAndProjectionVectorToAxis */
PUSHW[ ]	/* 1 value pushed */
135
MDAP[1]	/* MoveDirectAbsPt */
PUSHW[ ]	/* 1 value pushed */
137
MDAP[1]	/* MoveDirectAbsPt */
PUSHW[ ]	/* 1 value pushed */
140
MDAP[1]	/* MoveDirectAbsPt */
PUSHW[ ]	/* 1 value pushed */
148
MDAP[1]	/* MoveDirectAbsPt */
PUSHW[ ]	/* 1 value pushed */
150
MDAP[1]	/* MoveDirectAbsPt */
PUSHW[ ]	/* 1 value pushed */
144
MDAP[1]	/* MoveDirectAbsPt */
PUSHW[ ]	/* 1 value pushed */
146
MDAP[1]	/* MoveDirectAbsPt */
PUSHW[ ]	/* 1 value pushed */
156
MDAP[1]	/* MoveDirectAbsPt */
PUSHW[ ]	/* 1 value pushed */
0
RCVT[ ]	/* ReadCVT */
IF[ ]	/* If */
PUSHW[ ]	/* 1 value pushed */
97
MDAP[1]	/* MoveDirectAbsPt */
ELSE[ ]	/* Else */
PUSHW[ ]	/* 2 values pushed */
97 5
MIAP[0]	/* MoveIndirectAbsPt */
EIF[ ]	/* EndIf */
PUSHW[ ]	/* 1 value pushed */
0
RCVT[ ]	/* ReadCVT */
IF[ ]	/* If */
PUSHW[ ]	/* 1 value pushed */
99
MDAP[1]	/* MoveDirectAbsPt */
ELSE[ ]	/* Else */
PUSHW[ ]	/* 2 values pushed */
99 5
MIAP[0]	/* MoveIndirectAbsPt */
EIF[ ]	/* EndIf */
PUSHW[ ]	/* 3 values pushed */
115 82 3
CALL[ ]	/* CallFunction */
PUSHW[ ]	/* 3 values pushed */
8 97 137
SRP1[ ]	/* SetRefPoint1 */
SRP2[ ]	/* SetRefPoint2 */
IP[ ]	/* InterpolatePts */
PUSHW[ ]	/* 3 values pushed */
32 97 137
SRP1[ ]	/* SetRefPoint1 */
SRP2[ ]	/* SetRefPoint2 */
IP[ ]	/* InterpolatePts */
PUSHW[ ]	/* 3 values pushed */
55 97 137
SRP1[ ]	/* SetRefPoint1 */
SRP2[ ]	/* SetRefPoint2 */
IP[ ]	/* InterpolatePts */
PUSHW[ ]	/* 1 value pushed */
156
SRP0[ ]	/* SetRefPoint0 */
PUSHW[ ]	/* 1 value pushed */
65
MDRP[11100]	/* MoveDirectRelPt */
PUSHW[ ]	/* 3 values pushed */
88 82 115
SRP1[ ]	/* SetRefPoint1 */
SRP2[ ]	/* SetRefPoint2 */
IP[ ]	/* InterpolatePts */
PUSHW[ ]	/* 1 value pushed */
82
SRP0[ ]	/* SetRefPoint0 */
PUSHW[ ]	/* 1 value pushed */
101
MDRP[10000]	/* MoveDirectRelPt */
PUSHW[ ]	/* 1 value pushed */
101
MDAP[1]	/* MoveDirectAbsPt */
PUSHW[ ]	/* 1 value pushed */
115
SRP0[ ]	/* SetRefPoint0 */
PUSHW[ ]	/* 1 value pushed */
118
MDRP[10000]	/* MoveDirectRelPt */
PUSHW[ ]	/* 1 value pushed */
118
MDAP[1]	/* MoveDirectAbsPt */
PUSHW[ ]	/* 3 values pushed */
143 156 65
SRP1[ ]	/* SetRefPoint1 */
SRP2[ ]	/* SetRefPoint2 */
IP[ ]	/* InterpolatePts */
SVTCA[1]	/* SetFreedomAndProjectionVectorToAxis */
PUSHW[ ]	/* 3 values pushed */
112 106 3
CALL[ ]	/* CallFunction */
PUSHW[ ]	/* 3 values pushed */
11 118 3
CALL[ ]	/* CallFunction */
PUSHW[ ]	/* 3 values pushed */
44 26 3
CALL[ ]	/* CallFunction */
NPUSHW[ ]	/* 27 values pushed */
6 11 22 11 38 11 54 11 70 11 86 11 102 11 118 11 134 11 150 11 166 11 182 11 198 11 13
DELTAP1[ ]	/* DeltaExceptionP1 */
NPUSHW[ ]	/* 5 values pushed */
213 11 229 11 2
DELTAP1[ ]	/* DeltaExceptionP1 */
PUSHW[ ]	/* 1 value pushed */
11
SRP0[ ]	/* SetRefPoint0 */
PUSHW[ ]	/* 1 value pushed */
0
MDRP[10000]	/* MoveDirectRelPt */
PUSHW[ ]	/* 1 value pushed */
0
MDAP[1]	/* MoveDirectAbsPt */
NPUSHW[ ]	/* 5 values pushed */
218 26 234 26 2
DELTAP1[ ]	/* DeltaExceptionP1 */
NPUSHW[ ]	/* 27 values pushed */
9 26 25 26 41 26 57 26 73 26 89 26 105 26 121 26 137 26 153 26 169 26 185 26 201 26 13
DELTAP1[ ]	/* DeltaExceptionP1 */
PUSHW[ ]	/* 3 values pushed */
8 26 44
SRP1[ ]	/* SetRefPoint1 */
SRP2[ ]	/* SetRefPoint2 */
IP[ ]	/* InterpolatePts */
PUSHW[ ]	/* 1 value pushed */
26
SRP0[ ]	/* SetRefPoint0 */
PUSHW[ ]	/* 1 value pushed */
20
MDRP[10000]	/* MoveDirectRelPt */
PUSHW[ ]	/* 1 value pushed */
20
MDAP[1]	/* MoveDirectAbsPt */
PUSHW[ ]	/* 1 value pushed */
44
SRP0[ ]	/* SetRefPoint0 */
PUSHW[ ]	/* 1 value pushed */
55
MDRP[10000]	/* MoveDirectRelPt */
PUSHW[ ]	/* 1 value pushed */
55
MDAP[1]	/* MoveDirectAbsPt */
PUSHW[ ]	/* 1 value pushed */
44
SRP0[ ]	/* SetRefPoint0 */
PUSHW[ ]	/* 1 value pushed */
79
MDRP[10000]	/* MoveDirectRelPt */
PUSHW[ ]	/* 1 value pushed */
79
MDAP[1]	/* MoveDirectAbsPt */
PUSHW[ ]	/* 1 value pushed */
44
SRP0[ ]	/* SetRefPoint0 */
PUSHW[ ]	/* 1 value pushed */
82
MDRP[10000]	/* MoveDirectRelPt */
PUSHW[ ]	/* 1 value pushed */
82
MDAP[1]	/* MoveDirectAbsPt */
PUSHW[ ]	/* 1 value pushed */
26
SRP0[ ]	/* SetRefPoint0 */
PUSHW[ ]	/* 1 value pushed */
88
MDRP[10000]	/* MoveDirectRelPt */
PUSHW[ ]	/* 1 value pushed */
11
SRP0[ ]	/* SetRefPoint0 */
PUSHW[ ]	/* 1 value pushed */
91
MDRP[10000]	/* MoveDirectRelPt */
PUSHW[ ]	/* 1 value pushed */
91
MDAP[1]	/* MoveDirectAbsPt */
PUSHW[ ]	/* 1 value pushed */
11
SRP0[ ]	/* SetRefPoint0 */
PUSHW[ ]	/* 1 value pushed */
94
MDRP[10000]	/* MoveDirectRelPt */
PUSHW[ ]	/* 1 value pushed */
94
MDAP[1]	/* MoveDirectAbsPt */
PUSHW[ ]	/* 1 value pushed */
118
SRP0[ ]	/* SetRefPoint0 */
PUSHW[ ]	/* 1 value pushed */
101
MDRP[10000]	/* MoveDirectRelPt */
PUSHW[ ]	/* 1 value pushed */
101
MDAP[1]	/* MoveDirectAbsPt */
NPUSHW[ ]	/* 27 values pushed */
6 112 22 112 38 112 54 112 70 112 86 112 102 112 118 112 134 112 150 112 166 112 182 112 198 112 13
DELTAP1[ ]	/* DeltaExceptionP1 */
NPUSHW[ ]	/* 5 values pushed */
213 112 229 112 2
DELTAP1[ ]	/* DeltaExceptionP1 */
PUSHW[ ]	/* 1 value pushed */
118
SRP0[ ]	/* SetRefPoint0 */
PUSHW[ ]	/* 1 value pushed */
127
MDRP[10000]	/* MoveDirectRelPt */
PUSHW[ ]	/* 1 value pushed */
127
MDAP[1]	/* MoveDirectAbsPt */
IUP[0]	/* InterpolateUntPts */
IUP[1]	/* InterpolateUntPts */";
};
width = 761;
}
);
note = dollar;
unicode = 36;
},
{
glyphname = percent;
lastChange = "2025-12-26 02:35:02 +0000";
layers = (
{
layerId = m01;
shapes = (
{
closed = 1;
nodes = (
(257,664,o),
(277,668,qs),
(303,674,o),
(329,666,o),
(351,668,qs),
(365,670,o),
(359,692,o),
(349,702,q),
(377,706,o),
(417,694,o),
(421,676,qs),
(425,656,o),
(405,612,o),
(369,570,o),
(329,534,o),
(311,518,qs),
(283,494,o),
(211,450,o),
(187,454,qs),
(175,456,o),
(163,480,o),
(163,514,o),
(175,554,o),
(183,572,qs),
(199,604,o)
);
},
{
closed = 1;
nodes = (
(799,206,o),
(735,150,o),
(667,110,o),
(647,110,qs),
(627,110,o),
(615,148,o),
(619,164,qs),
(621,178,o),
(647,224,o),
(689,272,o),
(743,314,o),
(773,324,q),
(781,328,o),
(785,332,q),
(801,320,o),
(847,304,o),
(847,286,qs),
(847,266,o)
);
},
{
closed = 1;
nodes = (
(223,394,o),
(285,422,o),
(341,464,o),
(389,510,o),
(407,528,qs),
(455,578,o),
(489,650,o),
(487,680,qs),
(483,722,o),
(403,762,o),
(357,764,qs),
(319,764,o),
(271,742,o),
(261,726,q),
(231,724,o),
(173,672,o),
(125,604,o),
(93,530,o),
(91,504,qs),
(87,466,o),
(139,398,o),
(183,394,qs),
(193,394,ls)
);
},
{
closed = 1;
nodes = (
(923,836,qs),
(903,836,o),
(883,820,qs),
(863,804,o),
(781,732,o),
(677,638,o),
(561,534,o),
(459,440,o),
(379,366,o),
(363,350,qs),
(309,298,o),
(231,220,o),
(165,154,o),
(107,94,o),
(75,60,qs),
(53,38,o),
(73,10,o),
(93,2,q),
(109,-2,o),
(117,-2,qs),
(159,-2,o),
(179,52,qs),
(187,74,o),
(279,178,o),
(411,312,o),
(565,458,o),
(703,588,o),
(811,684,o),
(829,700,qs),
(853,720,o),
(901,754,o),
(919,764,qs),
(957,786,o),
(951,820,qs),
(947,836,o)
);
},
{
closed = 1;
nodes = (
(771,380,q),
(767,380,ls),
(729,382,o),
(653,332,o),
(613,290,qs),
(573,244,o),
(531,160,o),
(547,120,qs),
(559,86,o),
(617,44,o),
(651,44,qs),
(685,46,o),
(777,104,o),
(825,148,qs),
(875,194,o),
(913,260,o),
(911,286,qs),
(911,304,o),
(885,340,o),
(847,370,o),
(805,390,o),
(789,392,q),
(771,392,o)
);
}
);
userData = {
assembly = "PUSHW[ ]	/* 1 value pushed */
0
CALL[ ]	/* CallFunction */
SVTCA[0]	/* SetFreedomAndProjectionVectorToAxis */
PUSHW[ ]	/* 1 value pushed */
99
MDAP[1]	/* MoveDirectAbsPt */
PUSHW[ ]	/* 1 value pushed */
43
MDAP[1]	/* MoveDirectAbsPt */
PUSHW[ ]	/* 1 value pushed */
101
MDAP[1]	/* MoveDirectAbsPt */
PUSHW[ ]	/* 1 value pushed */
121
MDAP[1]	/* MoveDirectAbsPt */
PUSHW[ ]	/* 1 value pushed */
0
RCVT[ ]	/* ReadCVT */
IF[ ]	/* If */
PUSHW[ ]	/* 1 value pushed */
80
MDAP[1]	/* MoveDirectAbsPt */
ELSE[ ]	/* Else */
PUSHW[ ]	/* 2 values pushed */
80 5
MIAP[0]	/* MoveIndirectAbsPt */
EIF[ ]	/* EndIf */
PUSHW[ ]	/* 1 value pushed */
0
RCVT[ ]	/* ReadCVT */
IF[ ]	/* If */
PUSHW[ ]	/* 1 value pushed */
82
MDAP[1]	/* MoveDirectAbsPt */
ELSE[ ]	/* Else */
PUSHW[ ]	/* 2 values pushed */
82 5
MIAP[0]	/* MoveIndirectAbsPt */
EIF[ ]	/* EndIf */
PUSHW[ ]	/* 3 values pushed */
38 112 3
CALL[ ]	/* CallFunction */
PUSHW[ ]	/* 3 values pushed */
54 16 3
CALL[ ]	/* CallFunction */
PUSHW[ ]	/* 1 value pushed */
43
SRP0[ ]	/* SetRefPoint0 */
PUSHW[ ]	/* 1 value pushed */
5
MDRP[11100]	/* MoveDirectRelPt */
PUSHW[ ]	/* 1 value pushed */
43
SRP0[ ]	/* SetRefPoint0 */
PUSHW[ ]	/* 1 value pushed */
122
MDRP[10000]	/* MoveDirectRelPt */
PUSHW[ ]	/* 1 value pushed */
122
MDAP[1]	/* MoveDirectAbsPt */
SVTCA[1]	/* SetFreedomAndProjectionVectorToAxis */
PUSHW[ ]	/* 3 values pushed */
106 25 3
CALL[ ]	/* CallFunction */
NPUSHW[ ]	/* 5 values pushed */
218 25 234 25 2
DELTAP1[ ]	/* DeltaExceptionP1 */
NPUSHW[ ]	/* 27 values pushed */
9 25 25 25 41 25 57 25 73 25 89 25 105 25 121 25 137 25 153 25 169 25 185 25 201 25 13
DELTAP1[ ]	/* DeltaExceptionP1 */
IUP[0]	/* InterpolateUntPts */
IUP[1]	/* InterpolateUntPts */";
};
width = 1012;
}
);
note = percent;
unicode = 37;
},
{
glyphname = ampersand;
lastChange = "2025-12-26 02:35:02 +0000";
layers = (
{
layerId = m01;
shapes = (
{
closed = 1;
nodes = (
(200,54,o),
(172,54,qs),
(164,54,l),
(150,58,o),
(130,84,o),
(136,94,qs),
(142,104,o),
(194,156,o),
(224,190,q),
(232,174,o),
(240,162,qs),
(246,152,o),
(258,132,o),
(266,120,q),
(250,100,o)
);
},
{
closed = 1;
nodes = (
(230,772,o),
(298,780,q),
(312,780,ls),
(358,780,o),
(404,700,o),
(400,648,qs),
(392,546,o),
(294,370,o),
(236,290,q),
(202,360,o),
(164,498,o),
(160,562,qs),
(156,642,o)
);
},
{
closed = 1;
nodes = (
(538,242,o),
(508,240,qs),
(480,240,o),
(414,266,o),
(386,266,qs),
(364,266,o),
(350,252,qs),
(338,242,o),
(312,198,o),
(298,174,q),
(292,184,o),
(282,200,o),
(278,208,qs),
(274,214,o),
(268,228,o),
(264,234,q),
(312,298,o),
(408,450,o),
(436,526,qs),
(450,566,o),
(464,650,o),
(462,696,qs),
(462,720,o),
(438,776,o),
(396,820,o),
(338,850,o),
(302,850,qs),
(244,850,o),
(168,790,o),
(140,742,qs),
(112,692,o),
(100,538,o),
(116,464,qs),
(126,418,o),
(174,296,o),
(198,244,q),
(182,224,o),
(156,196,o),
(148,188,qs),
(114,154,o),
(58,104,o),
(60,78,qs),
(64,46,o),
(130,-14,o),
(168,-14,qs),
(192,-14,o),
(250,0,o),
(272,22,qs),
(282,32,o),
(298,50,o),
(306,60,q),
(332,22,o),
(344,6,qs),
(360,-12,o),
(412,-54,o),
(440,-54,qs),
(462,-54,o),
(482,-18,o),
(456,-6,qs),
(434,2,o),
(408,26,o),
(388,48,qs),
(370,70,o),
(342,110,q),
(354,130,o),
(372,164,o),
(382,180,qs),
(390,194,o),
(400,194,qs),
(412,194,o),
(454,180,o),
(488,180,qs),
(508,180,o),
(560,192,o),
(612,210,o),
(660,236,o),
(674,250,qs),
(684,260,o),
(676,288,o),
(648,280,qs),
(616,270,o)
);
}
);
userData = {
assembly = "PUSHW[ ]	/* 1 value pushed */
0
CALL[ ]	/* CallFunction */
SVTCA[0]	/* SetFreedomAndProjectionVectorToAxis */
PUSHW[ ]	/* 1 value pushed */
52
MDAP[1]	/* MoveDirectAbsPt */
PUSHW[ ]	/* 1 value pushed */
0
RCVT[ ]	/* ReadCVT */
IF[ ]	/* If */
PUSHW[ ]	/* 1 value pushed */
49
MDAP[1]	/* MoveDirectAbsPt */
ELSE[ ]	/* Else */
PUSHW[ ]	/* 2 values pushed */
49 5
MIAP[0]	/* MoveIndirectAbsPt */
EIF[ ]	/* EndIf */
PUSHW[ ]	/* 1 value pushed */
0
RCVT[ ]	/* ReadCVT */
IF[ ]	/* If */
PUSHW[ ]	/* 1 value pushed */
63
MDAP[1]	/* MoveDirectAbsPt */
ELSE[ ]	/* Else */
PUSHW[ ]	/* 2 values pushed */
63 5
MIAP[0]	/* MoveIndirectAbsPt */
EIF[ ]	/* EndIf */
PUSHW[ ]	/* 3 values pushed */
81 25 3
CALL[ ]	/* CallFunction */
PUSHW[ ]	/* 3 values pushed */
106 36 3
CALL[ ]	/* CallFunction */
PUSHW[ ]	/* 3 values pushed */
5 36 106
SRP1[ ]	/* SetRefPoint1 */
SRP2[ ]	/* SetRefPoint2 */
IP[ ]	/* InterpolatePts */
PUSHW[ ]	/* 1 value pushed */
63
SRP0[ ]	/* SetRefPoint0 */
PUSHW[ ]	/* 1 value pushed */
11
MDRP[11100]	/* MoveDirectRelPt */
NPUSHW[ ]	/* 27 values pushed */
7 11 23 11 39 11 55 11 71 11 87 11 103 11 119 11 135 11 151 11 167 11 183 11 199 11 13
DELTAP1[ ]	/* DeltaExceptionP1 */
NPUSHW[ ]	/* 5 values pushed */
214 11 230 11 2
DELTAP1[ ]	/* DeltaExceptionP1 */
PUSHW[ ]	/* 1 value pushed */
36
SRP0[ ]	/* SetRefPoint0 */
PUSHW[ ]	/* 1 value pushed */
39
MDRP[10000]	/* MoveDirectRelPt */
PUSHW[ ]	/* 1 value pushed */
39
MDAP[1]	/* MoveDirectAbsPt */
SVTCA[1]	/* SetFreedomAndProjectionVectorToAxis */
PUSHW[ ]	/* 3 values pushed */
86 21 3
CALL[ ]	/* CallFunction */
NPUSHW[ ]	/* 5 values pushed */
218 21 234 21 2
DELTAP1[ ]	/* DeltaExceptionP1 */
NPUSHW[ ]	/* 27 values pushed */
9 21 25 21 41 21 57 21 73 21 89 21 105 21 121 21 137 21 153 21 169 21 185 21 201 21 13
DELTAP1[ ]	/* DeltaExceptionP1 */
IUP[0]	/* InterpolateUntPts */
IUP[1]	/* InterpolateUntPts */";
};
width = 741;
}
);
note = ampersand;
unicode = 38;
},
{
glyphname = quotesingle;
lastChange = "2025-12-26 02:35:02 +0000";
layers = (
{
layerId = m01;
shapes = (
{
closed = 1;
nodes = (
(73,708,o),
(85,708,qs),
(105,708,o),
(113,722,qs),
(119,730,o),
(135,768,o),
(153,814,o),
(169,858,o),
(171,874,qs),
(175,894,o),
(153,912,o),
(137,912,qs),
(127,912,o),
(111,904,o),
(107,894,qs),
(95,860,o),
(71,762,o),
(61,730,qs),
(57,720,o)
);
}
);
userData = {
assembly = "PUSHW[ ]	/* 1 value pushed */
0
CALL[ ]	/* CallFunction */
SVTCA[0]	/* SetFreedomAndProjectionVectorToAxis */
PUSHW[ ]	/* 3 values pushed */
6 16 3
CALL[ ]	/* CallFunction */
IUP[0]	/* InterpolateUntPts */
IUP[1]	/* InterpolateUntPts */";
};
width = 232;
}
);
note = quotesingle;
unicode = 39;
},
{
glyphname = parenleft;
lastChange = "2025-12-26 02:35:02 +0000";
layers = (
{
layerId = m01;
shapes = (
{
closed = 1;
nodes = (
(333,818,o),
(191,636,o),
(77,414,o),
(63,302,qs),
(51,208,o),
(111,44,o),
(221,-76,o),
(369,-146,o),
(447,-148,qs),
(481,-150,o),
(477,-124,o),
(453,-120,qs),
(391,-108,o),
(271,-34,o),
(179,74,o),
(127,210,o),
(133,286,qs),
(139,384,o),
(227,572,o),
(339,728,o),
(453,842,o),
(487,862,qs),
(505,874,o),
(541,878,o),
(567,880,o),
(587,884,o),
(589,896,qs),
(593,916,o),
(545,938,o),
(521,936,qs),
(477,934,o)
);
}
);
userData = {
assembly = "PUSHW[ ]	/* 1 value pushed */
0
CALL[ ]	/* CallFunction */
SVTCA[0]	/* SetFreedomAndProjectionVectorToAxis */
PUSHW[ ]	/* 1 value pushed */
21
MDAP[1]	/* MoveDirectAbsPt */
PUSHW[ ]	/* 3 values pushed */
0 3 3
CALL[ ]	/* CallFunction */
IUP[0]	/* InterpolateUntPts */
IUP[1]	/* InterpolateUntPts */";
};
width = 650;
}
);
note = parenleft;
unicode = 40;
},
{
glyphname = parenright;
lastChange = "2025-12-26 02:35:02 +0000";
layers = (
{
layerId = m01;
shapes = (
{
closed = 1;
nodes = (
(266,194,o),
(184,38,o),
(104,-80,o),
(86,-106,qs),
(74,-122,o),
(82,-142,o),
(96,-142,qs),
(118,-142,o),
(142,-116,qs),
(160,-96,o),
(246,28,o),
(334,200,o),
(400,404,o),
(400,502,qs),
(400,594,o),
(340,740,o),
(254,846,o),
(154,912,o),
(114,926,qs),
(98,932,o),
(70,922,o),
(58,906,o),
(64,888,o),
(80,882,qs),
(138,860,o),
(234,778,o),
(300,670,o),
(336,538,o),
(332,468,qs),
(330,376,o)
);
}
);
userData = {
assembly = "PUSHW[ ]	/* 1 value pushed */
0
CALL[ ]	/* CallFunction */
SVTCA[0]	/* SetFreedomAndProjectionVectorToAxis */
PUSHW[ ]	/* 1 value pushed */
22
MDAP[1]	/* MoveDirectAbsPt */
IUP[0]	/* InterpolateUntPts */
IUP[1]	/* InterpolateUntPts */";
};
width = 460;
}
);
note = parenright;
unicode = 41;
},
{
glyphname = asterisk;
lastChange = "2025-12-26 02:35:02 +0000";
layers = (
{
layerId = m01;
shapes = (
{
closed = 1;
nodes = (
(448,440,o),
(396,418,q),
(430,470,o),
(486,550,o),
(502,572,qs),
(516,594,o),
(490,614,o),
(474,614,qs),
(454,614,o),
(448,604,qs),
(426,570,o),
(372,482,o),
(346,440,q),
(344,492,o),
(334,580,o),
(324,596,qs),
(312,616,o),
(288,616,qs),
(272,616,o),
(246,596,o),
(254,580,qs),
(264,558,o),
(272,500,o),
(276,452,qs),
(276,442,o),
(278,410,o),
(280,394,q),
(246,418,o),
(204,466,o),
(188,476,qs),
(180,482,o),
(166,482,qs),
(150,482,o),
(132,460,o),
(146,442,qs),
(160,424,o),
(198,382,o),
(222,360,q),
(190,354,o),
(118,342,o),
(78,338,qs),
(70,338,o),
(58,322,o),
(62,304,o),
(82,288,o),
(104,286,qs),
(118,286,ls),
(146,286,o),
(222,296,o),
(268,308,q),
(264,300,o),
(262,298,q),
(240,264,o),
(202,188,o),
(186,154,qs),
(180,140,o),
(198,124,o),
(214,124,qs),
(234,124,o),
(242,138,q),
(246,148,o),
(270,194,o),
(288,228,q),
(290,208,o),
(290,180,o),
(292,152,o),
(306,152,qs),
(316,152,o),
(340,180,o),
(344,214,o),
(346,254,o),
(348,282,q),
(394,264,o),
(504,236,o),
(536,228,qs),
(570,220,o),
(586,252,o),
(556,264,qs),
(522,280,o),
(422,320,o),
(372,342,q),
(376,344,o),
(384,346,o),
(388,348,qs),
(464,382,o),
(592,446,o),
(644,466,qs),
(652,470,o),
(654,486,o),
(646,502,o),
(626,512,o),
(612,508,qs),
(574,496,o)
);
}
);
userData = {
assembly = "PUSHW[ ]	/* 1 value pushed */
0
CALL[ ]	/* CallFunction */
SVTCA[0]	/* SetFreedomAndProjectionVectorToAxis */
PUSHW[ ]	/* 1 value pushed */
76
MDAP[1]	/* MoveDirectAbsPt */
PUSHW[ ]	/* 1 value pushed */
84
MDAP[1]	/* MoveDirectAbsPt */
PUSHW[ ]	/* 1 value pushed */
86
MDAP[1]	/* MoveDirectAbsPt */
PUSHW[ ]	/* 1 value pushed */
20
MDAP[1]	/* MoveDirectAbsPt */
PUSHW[ ]	/* 1 value pushed */
42
MDAP[1]	/* MoveDirectAbsPt */
PUSHW[ ]	/* 1 value pushed */
47
MDAP[1]	/* MoveDirectAbsPt */
PUSHW[ ]	/* 3 values pushed */
62 5 3
CALL[ ]	/* CallFunction */
PUSHW[ ]	/* 3 values pushed */
53 48 3
CALL[ ]	/* CallFunction */
PUSHW[ ]	/* 3 values pushed */
11 20 76
SRP1[ ]	/* SetRefPoint1 */
SRP2[ ]	/* SetRefPoint2 */
IP[ ]	/* InterpolatePts */
PUSHW[ ]	/* 3 values pushed */
44 48 53
SRP1[ ]	/* SetRefPoint1 */
SRP2[ ]	/* SetRefPoint2 */
IP[ ]	/* InterpolatePts */
PUSHW[ ]	/* 3 values pushed */
56 20 76
SRP1[ ]	/* SetRefPoint1 */
SRP2[ ]	/* SetRefPoint2 */
IP[ ]	/* InterpolatePts */
PUSHW[ ]	/* 3 values pushed */
67 20 76
SRP1[ ]	/* SetRefPoint1 */
SRP2[ ]	/* SetRefPoint2 */
IP[ ]	/* InterpolatePts */
PUSHW[ ]	/* 3 values pushed */
81 20 76
SRP1[ ]	/* SetRefPoint1 */
SRP2[ ]	/* SetRefPoint2 */
IP[ ]	/* InterpolatePts */
PUSHW[ ]	/* 3 values pushed */
92 20 76
SRP1[ ]	/* SetRefPoint1 */
SRP2[ ]	/* SetRefPoint2 */
IP[ ]	/* InterpolatePts */
SVTCA[1]	/* SetFreedomAndProjectionVectorToAxis */
PUSHW[ ]	/* 3 values pushed */
23 70 3
CALL[ ]	/* CallFunction */
NPUSHW[ ]	/* 27 values pushed */
6 23 22 23 38 23 54 23 70 23 86 23 102 23 118 23 134 23 150 23 166 23 182 23 198 23 13
DELTAP1[ ]	/* DeltaExceptionP1 */
NPUSHW[ ]	/* 5 values pushed */
213 23 229 23 2
DELTAP1[ ]	/* DeltaExceptionP1 */
PUSHW[ ]	/* 1 value pushed */
23
SRP0[ ]	/* SetRefPoint0 */
PUSHW[ ]	/* 1 value pushed */
20
MDRP[10000]	/* MoveDirectRelPt */
PUSHW[ ]	/* 1 value pushed */
20
MDAP[1]	/* MoveDirectAbsPt */
PUSHW[ ]	/* 1 value pushed */
23
SRP0[ ]	/* SetRefPoint0 */
PUSHW[ ]	/* 1 value pushed */
28
MDRP[11100]	/* MoveDirectRelPt */
PUSHW[ ]	/* 1 value pushed */
70
SRP0[ ]	/* SetRefPoint0 */
PUSHW[ ]	/* 1 value pushed */
31
MDRP[10000]	/* MoveDirectRelPt */
PUSHW[ ]	/* 1 value pushed */
31
MDAP[1]	/* MoveDirectAbsPt */
PUSHW[ ]	/* 1 value pushed */
70
SRP0[ ]	/* SetRefPoint0 */
PUSHW[ ]	/* 1 value pushed */
67
MDRP[10000]	/* MoveDirectRelPt */
PUSHW[ ]	/* 1 value pushed */
67
MDAP[1]	/* MoveDirectAbsPt */
PUSHW[ ]	/* 1 value pushed */
23
SRP0[ ]	/* SetRefPoint0 */
PUSHW[ ]	/* 1 value pushed */
81
MDRP[10000]	/* MoveDirectRelPt */
PUSHW[ ]	/* 1 value pushed */
81
MDAP[1]	/* MoveDirectAbsPt */
IUP[0]	/* InterpolateUntPts */
IUP[1]	/* InterpolateUntPts */";
};
width = 713;
}
);
note = asterisk;
unicode = 42;
},
{
glyphname = plus;
lastChange = "2025-12-26 02:35:02 +0000";
layers = (
{
layerId = m01;
shapes = (
{
closed = 1;
nodes = (
(304,374,o),
(260,370,q),
(266,398,o),
(282,460,o),
(288,478,qs),
(292,488,o),
(270,504,o),
(254,504,qs),
(230,504,o),
(222,482,qs),
(218,472,o),
(200,406,o),
(192,368,q),
(150,372,o),
(98,384,o),
(78,382,qs),
(56,380,o),
(66,332,o),
(82,322,qs),
(110,306,o),
(184,302,q),
(182,264,o),
(190,204,o),
(202,188,qs),
(212,174,o),
(226,174,qs),
(244,174,o),
(250,192,qs),
(256,210,o),
(250,260,o),
(252,302,q),
(254,302,ls),
(322,306,o),
(426,334,o),
(448,350,qs),
(462,360,o),
(452,392,o),
(418,388,qs),
(384,384,o)
);
}
);
userData = {
assembly = "PUSHW[ ]	/* 1 value pushed */
0
CALL[ ]	/* CallFunction */
SVTCA[0]	/* SetFreedomAndProjectionVectorToAxis */
PUSHW[ ]	/* 1 value pushed */
0
MDAP[1]	/* MoveDirectAbsPt */
PUSHW[ ]	/* 1 value pushed */
22
MDAP[1]	/* MoveDirectAbsPt */
PUSHW[ ]	/* 3 values pushed */
36 6 3
CALL[ ]	/* CallFunction */
PUSHW[ ]	/* 1 value pushed */
6
SRP0[ ]	/* SetRefPoint0 */
PUSHW[ ]	/* 1 value pushed */
17
MDRP[10000]	/* MoveDirectRelPt */
PUSHW[ ]	/* 1 value pushed */
36
SRP0[ ]	/* SetRefPoint0 */
PUSHW[ ]	/* 1 value pushed */
25
MDRP[10000]	/* MoveDirectRelPt */
PUSHW[ ]	/* 1 value pushed */
25
MDAP[1]	/* MoveDirectAbsPt */
SVTCA[1]	/* SetFreedomAndProjectionVectorToAxis */
PUSHW[ ]	/* 3 values pushed */
10 17 3
CALL[ ]	/* CallFunction */
NPUSHW[ ]	/* 27 values pushed */
6 10 22 10 38 10 54 10 70 10 86 10 102 10 118 10 134 10 150 10 166 10 182 10 198 10 13
DELTAP1[ ]	/* DeltaExceptionP1 */
NPUSHW[ ]	/* 5 values pushed */
213 10 229 10 2
DELTAP1[ ]	/* DeltaExceptionP1 */
PUSHW[ ]	/* 1 value pushed */
10
SRP0[ ]	/* SetRefPoint0 */
PUSHW[ ]	/* 1 value pushed */
7
MDRP[10000]	/* MoveDirectRelPt */
PUSHW[ ]	/* 1 value pushed */
7
MDAP[1]	/* MoveDirectAbsPt */
PUSHW[ ]	/* 1 value pushed */
17
SRP0[ ]	/* SetRefPoint0 */
PUSHW[ ]	/* 1 value pushed */
25
MDRP[10000]	/* MoveDirectRelPt */
PUSHW[ ]	/* 1 value pushed */
25
MDAP[1]	/* MoveDirectAbsPt */
PUSHW[ ]	/* 1 value pushed */
10
SRP0[ ]	/* SetRefPoint0 */
PUSHW[ ]	/* 1 value pushed */
36
MDRP[10000]	/* MoveDirectRelPt */
PUSHW[ ]	/* 1 value pushed */
36
MDAP[1]	/* MoveDirectAbsPt */
IUP[0]	/* InterpolateUntPts */
IUP[1]	/* InterpolateUntPts */";
};
width = 518;
}
);
note = plus;
unicode = 43;
},
{
glyphname = comma;
lastChange = "2025-12-26 02:35:02 +0000";
layers = (
{
layerId = m01;
shapes = (
{
closed = 1;
nodes = (
(73,-126,o),
(63,-146,qs),
(57,-158,o),
(73,-174,o),
(83,-174,qs),
(99,-174,o),
(103,-164,q),
(113,-152,o),
(145,-94,o),
(161,-60,qs),
(173,-32,o),
(193,58,o),
(187,92,q),
(183,104,o),
(159,120,o),
(145,120,qs),
(133,120,o),
(115,108,o),
(115,92,qs),
(115,62,o),
(109,-18,o),
(103,-36,qs),
(93,-70,o)
);
}
);
userData = {
assembly = "PUSHW[ ]	/* 1 value pushed */
0
CALL[ ]	/* CallFunction */
SVTCA[0]	/* SetFreedomAndProjectionVectorToAxis */
PUSHW[ ]	/* 3 values pushed */
6 17 3
CALL[ ]	/* CallFunction */
IUP[0]	/* InterpolateUntPts */
IUP[1]	/* InterpolateUntPts */";
};
width = 249;
}
);
note = comma;
unicode = 44;
},
{
glyphname = hyphen;
lastChange = "2025-12-26 02:35:02 +0000";
layers = (
{
layerId = m01;
shapes = (
{
closed = 1;
nodes = (
(312,264,o),
(370,268,qs),
(404,270,o),
(392,312,o),
(356,316,qs),
(314,318,o),
(210,302,o),
(174,306,qs),
(146,308,o),
(108,318,o),
(88,318,qs),
(82,318,ls),
(66,316,o),
(58,288,o),
(64,276,qs),
(68,268,o),
(108,244,o),
(166,244,qs),
(220,244,o)
);
}
);
userData = {
assembly = "PUSHW[ ]	/* 1 value pushed */
0
CALL[ ]	/* CallFunction */
SVTCA[0]	/* SetFreedomAndProjectionVectorToAxis */
PUSHW[ ]	/* 3 values pushed */
10 0 3
CALL[ ]	/* CallFunction */
PUSHW[ ]	/* 1 value pushed */
10
SRP0[ ]	/* SetRefPoint0 */
PUSHW[ ]	/* 1 value pushed */
6
MDRP[10000]	/* MoveDirectRelPt */
PUSHW[ ]	/* 1 value pushed */
6
MDAP[1]	/* MoveDirectAbsPt */
PUSHW[ ]	/* 1 value pushed */
10
SRP0[ ]	/* SetRefPoint0 */
PUSHW[ ]	/* 1 value pushed */
13
MDRP[10000]	/* MoveDirectRelPt */
PUSHW[ ]	/* 1 value pushed */
13
MDAP[1]	/* MoveDirectAbsPt */
PUSHW[ ]	/* 1 value pushed */
7
MDRP[10000]	/* MoveDirectRelPt */
PUSHW[ ]	/* 1 value pushed */
7
MDAP[1]	/* MoveDirectAbsPt */
PUSHW[ ]	/* 1 value pushed */
13
SRP0[ ]	/* SetRefPoint0 */
PUSHW[ ]	/* 1 value pushed */
16
MDRP[11100]	/* MoveDirectRelPt */
IUP[0]	/* InterpolateUntPts */
IUP[1]	/* InterpolateUntPts */";
};
width = 459;
}
);
note = hyphen;
unicode = 45;
},
{
glyphname = period;
lastChange = "2025-12-26 02:35:02 +0000";
layers = (
{
layerId = m01;
shapes = (
{
closed = 1;
nodes = (
(126,44,o),
(136,54,qs),
(146,64,o),
(164,92,o),
(158,102,q),
(154,112,o),
(134,118,o),
(118,118,qs),
(102,118,o),
(66,100,o),
(62,82,qs),
(58,70,o),
(66,42,o),
(80,34,qs),
(98,24,o)
);
}
);
userData = {
assembly = "PUSHW[ ]	/* 1 value pushed */
0
CALL[ ]	/* CallFunction */
SVTCA[0]	/* SetFreedomAndProjectionVectorToAxis */
PUSHW[ ]	/* 1 value pushed */
6
MDAP[1]	/* MoveDirectAbsPt */
IUP[0]	/* InterpolateUntPts */
IUP[1]	/* InterpolateUntPts */";
};
width = 220;
}
);
note = period;
unicode = 46;
},
{
glyphname = slash;
lastChange = "2025-12-26 02:35:02 +0000";
layers = (
{
layerId = m01;
shapes = (
{
closed = 1;
nodes = (
(400,646,o),
(340,562,o),
(266,462,o),
(226,408,qs),
(150,306,o),
(62,172,o),
(60,134,qs),
(58,110,o),
(76,84,o),
(86,84,qs),
(94,84,o),
(102,90,qs),
(112,98,o),
(132,140,o),
(168,210,o),
(230,308,o),
(280,372,qs),
(294,390,o),
(358,482,o),
(434,584,o),
(502,674,o),
(518,692,qs),
(534,708,o),
(510,736,o),
(490,736,qs),
(480,736,o),
(460,726,o),
(452,716,qs),
(444,704,o)
);
}
);
userData = {
assembly = "PUSHW[ ]	/* 1 value pushed */
0
CALL[ ]	/* CallFunction */
SVTCA[0]	/* SetFreedomAndProjectionVectorToAxis */
PUSHW[ ]	/* 1 value pushed */
16
MDAP[1]	/* MoveDirectAbsPt */
PUSHW[ ]	/* 1 value pushed */
18
MDAP[1]	/* MoveDirectAbsPt */
PUSHW[ ]	/* 3 values pushed */
3 0 3
CALL[ ]	/* CallFunction */
IUP[0]	/* InterpolateUntPts */
IUP[1]	/* InterpolateUntPts */";
};
width = 587;
}
);
note = slash;
unicode = 47;
},
{
glyphname = zero;
lastChange = "2025-12-26 02:35:02 +0000";
layers = (
{
layerId = m01;
shapes = (
{
closed = 1;
nodes = (
(436,172,o),
(366,130,o),
(296,102,o),
(266,102,qs),
(258,102,ls),
(226,104,o),
(176,144,o),
(144,200,o),
(128,262,o),
(130,286,qs),
(132,332,o),
(162,424,o),
(210,510,o),
(274,584,o),
(310,610,q),
(324,600,o),
(344,612,qs),
(352,616,o),
(366,628,o),
(376,634,q),
(392,634,o),
(416,624,o),
(426,620,q),
(442,610,o),
(464,626,o),
(456,642,qs),
(450,654,o),
(428,668,q),
(468,692,o),
(564,732,o),
(618,734,qs),
(660,734,o),
(738,682,o),
(742,610,qs),
(744,526,o),
(632,334,o),
(518,236,qs),
(496,218,o)
);
},
{
closed = 1;
nodes = (
(548,796,o),
(422,730,o),
(358,684,q),
(352,684,ls),
(328,686,o),
(264,646,o),
(196,584,o),
(136,506,o),
(118,472,qs),
(92,422,o),
(54,316,o),
(62,248,qs),
(66,216,o),
(98,142,o),
(152,76,o),
(224,34,o),
(268,34,qs),
(306,34,o),
(390,70,o),
(474,126,o),
(558,194,o),
(594,226,qs),
(634,262,o),
(712,346,o),
(772,442,o),
(812,550,o),
(814,606,qs),
(816,644,o),
(788,712,o),
(738,764,o),
(670,796,o),
(632,796,qs),
(626,796,ls)
);
}
);
userData = {
assembly = "PUSHW[ ]	/* 1 value pushed */
0
CALL[ ]	/* CallFunction */
SVTCA[0]	/* SetFreedomAndProjectionVectorToAxis */
PUSHW[ ]	/* 3 values pushed */
33 53 3
CALL[ ]	/* CallFunction */
PUSHW[ ]	/* 3 values pushed */
70 6 3
CALL[ ]	/* CallFunction */
PUSHW[ ]	/* 3 values pushed */
67 17 3
CALL[ ]	/* CallFunction */
PUSHW[ ]	/* 3 values pushed */
9 17 67
SRP1[ ]	/* SetRefPoint1 */
SRP2[ ]	/* SetRefPoint2 */
IP[ ]	/* InterpolatePts */
IUP[0]	/* InterpolateUntPts */
IUP[1]	/* InterpolateUntPts */";
};
width = 874;
}
);
note = zero;
unicode = 48;
},
{
glyphname = one;
lastChange = "2025-12-26 02:35:02 +0000";
layers = (
{
layerId = m01;
shapes = (
{
closed = 1;
nodes = (
(164,530,o),
(138,454,qs),
(126,420,o),
(98,328,o),
(76,236,o),
(60,156,o),
(60,132,qs),
(60,120,o),
(64,74,o),
(78,30,o),
(102,-4,o),
(120,-4,qs),
(128,-4,o),
(140,6,o),
(138,16,qs),
(136,26,o),
(132,68,o),
(128,124,o),
(132,188,o),
(140,218,qs),
(150,260,o),
(180,360,o),
(214,458,o),
(246,544,o),
(256,572,qs),
(278,636,o),
(318,768,o),
(322,808,qs),
(324,818,o),
(296,832,o),
(280,832,qs),
(260,832,o),
(254,816,q),
(248,790,o),
(234,728,o),
(224,700,qs),
(208,650,o)
);
}
);
userData = {
assembly = "PUSHW[ ]	/* 1 value pushed */
0
CALL[ ]	/* CallFunction */
SVTCA[0]	/* SetFreedomAndProjectionVectorToAxis */
PUSHW[ ]	/* 1 value pushed */
5
MDAP[1]	/* MoveDirectAbsPt */
PUSHW[ ]	/* 1 value pushed */
0
RCVT[ ]	/* ReadCVT */
IF[ ]	/* If */
PUSHW[ ]	/* 1 value pushed */
24
MDAP[1]	/* MoveDirectAbsPt */
ELSE[ ]	/* Else */
PUSHW[ ]	/* 2 values pushed */
24 5
MIAP[0]	/* MoveIndirectAbsPt */
EIF[ ]	/* EndIf */
IUP[0]	/* InterpolateUntPts */
IUP[1]	/* InterpolateUntPts */";
};
width = 382;
}
);
note = one;
unicode = 49;
},
{
glyphname = two;
lastChange = "2025-12-26 02:35:02 +0000";
layers = (
{
layerId = m01;
shapes = (
{
closed = 1;
nodes = (
(173,500,o),
(181,498,q),
(195,498,o),
(201,528,o),
(205,546,qs),
(213,586,o),
(275,658,o),
(359,710,o),
(453,740,o),
(491,740,qs),
(507,740,l),
(553,736,o),
(581,690,o),
(577,658,qs),
(573,614,o),
(517,508,o),
(431,398,o),
(325,290,o),
(215,196,o),
(113,124,o),
(75,104,qs),
(49,92,o),
(69,64,qs),
(79,52,o),
(101,38,o),
(123,38,qs),
(135,38,o),
(213,44,o),
(305,50,o),
(397,58,o),
(425,58,qs),
(459,58,o),
(517,52,o),
(533,48,q),
(551,46,o),
(571,64,o),
(541,84,qs),
(501,112,o),
(411,124,o),
(363,124,qs),
(335,124,o),
(283,122,o),
(261,120,qs),
(237,118,o),
(215,116,q),
(267,156,o),
(415,288,o),
(551,444,o),
(647,608,o),
(649,680,qs),
(649,710,o),
(621,758,o),
(575,790,o),
(519,806,o),
(491,806,qs),
(421,806,o),
(293,750,o),
(241,706,qs),
(199,670,o),
(141,584,o),
(141,550,qs),
(141,524,o)
);
}
);
userData = {
assembly = "PUSHW[ ]	/* 1 value pushed */
0
CALL[ ]	/* CallFunction */
SVTCA[0]	/* SetFreedomAndProjectionVectorToAxis */
PUSHW[ ]	/* 3 values pushed */
21 30 3
CALL[ ]	/* CallFunction */
PUSHW[ ]	/* 3 values pushed */
6 51 3
CALL[ ]	/* CallFunction */
PUSHW[ ]	/* 1 value pushed */
21
SRP0[ ]	/* SetRefPoint0 */
PUSHW[ ]	/* 1 value pushed */
16
MDRP[10000]	/* MoveDirectRelPt */
PUSHW[ ]	/* 1 value pushed */
16
MDAP[1]	/* MoveDirectAbsPt */
PUSHW[ ]	/* 1 value pushed */
21
SRP0[ ]	/* SetRefPoint0 */
PUSHW[ ]	/* 1 value pushed */
18
MDRP[10000]	/* MoveDirectRelPt */
PUSHW[ ]	/* 1 value pushed */
18
MDAP[1]	/* MoveDirectAbsPt */
PUSHW[ ]	/* 1 value pushed */
30
SRP0[ ]	/* SetRefPoint0 */
PUSHW[ ]	/* 1 value pushed */
27
MDRP[10000]	/* MoveDirectRelPt */
PUSHW[ ]	/* 1 value pushed */
27
MDAP[1]	/* MoveDirectAbsPt */
IUP[0]	/* InterpolateUntPts */
IUP[1]	/* InterpolateUntPts */";
};
width = 709;
}
);
note = two;
unicode = 50;
},
{
glyphname = three;
lastChange = "2025-12-26 02:35:02 +0000";
layers = (
{
layerId = m01;
shapes = (
{
closed = 1;
nodes = (
(314,710,o),
(328,732,qs),
(344,756,o),
(410,766,o),
(442,766,qs),
(462,766,o),
(510,764,o),
(554,754,o),
(584,736,o),
(584,720,qs),
(584,688,o),
(534,612,o),
(466,544,o),
(390,486,o),
(364,468,q),
(346,458,o),
(286,426,o),
(274,420,qs),
(260,414,o),
(252,384,o),
(266,372,qs),
(274,364,o),
(338,362,o),
(378,358,qs),
(416,356,o),
(494,344,o),
(556,322,o),
(594,292,o),
(592,268,qs),
(590,218,o),
(518,146,o),
(420,98,o),
(310,76,o),
(268,76,qs),
(210,76,o),
(132,114,o),
(128,124,qs),
(124,134,o),
(138,158,o),
(130,174,qs),
(126,184,o),
(94,186,o),
(84,178,qs),
(74,168,o),
(62,144,o),
(60,128,qs),
(58,110,o),
(112,54,o),
(154,38,qs),
(220,12,o),
(296,12,qs),
(348,12,o),
(476,48,o),
(586,114,o),
(660,210,o),
(660,270,qs),
(660,308,o),
(604,368,o),
(546,384,qs),
(512,394,o),
(416,412,o),
(376,416,q),
(416,440,o),
(506,506,o),
(588,584,o),
(644,676,o),
(646,726,qs),
(646,742,o),
(632,776,o),
(588,806,o),
(512,826,o),
(452,828,qs),
(400,828,o),
(326,808,o),
(306,794,qs),
(290,784,o),
(268,754,o),
(264,736,qs),
(262,722,o),
(288,684,o),
(300,682,qs),
(320,678,o)
);
}
);
userData = {
assembly = "PUSHW[ ]	/* 1 value pushed */
0
CALL[ ]	/* CallFunction */
SVTCA[0]	/* SetFreedomAndProjectionVectorToAxis */
PUSHW[ ]	/* 1 value pushed */
0
MDAP[1]	/* MoveDirectAbsPt */
PUSHW[ ]	/* 3 values pushed */
47 30 3
CALL[ ]	/* CallFunction */
PUSHW[ ]	/* 3 values pushed */
9 76 3
CALL[ ]	/* CallFunction */
SVTCA[1]	/* SetFreedomAndProjectionVectorToAxis */
PUSHW[ ]	/* 3 values pushed */
41 35 3
CALL[ ]	/* CallFunction */
NPUSHW[ ]	/* 27 values pushed */
6 41 22 41 38 41 54 41 70 41 86 41 102 41 118 41 134 41 150 41 166 41 182 41 198 41 13
DELTAP1[ ]	/* DeltaExceptionP1 */
NPUSHW[ ]	/* 5 values pushed */
213 41 229 41 2
DELTAP1[ ]	/* DeltaExceptionP1 */
IUP[0]	/* InterpolateUntPts */
IUP[1]	/* InterpolateUntPts */";
};
width = 720;
}
);
note = three;
unicode = 51;
},
{
glyphname = four;
lastChange = "2025-12-26 02:35:02 +0000";
layers = (
{
layerId = m01;
shapes = (
{
closed = 1;
nodes = (
(649,402,o),
(581,382,o),
(505,354,o),
(473,342,qs),
(453,334,o),
(425,324,q),
(451,394,o),
(495,476,o),
(499,492,qs),
(501,502,o),
(477,518,o),
(463,518,qs),
(447,518,o),
(413,474,o),
(383,418,o),
(361,360,o),
(357,348,qs),
(353,334,o),
(341,306,o),
(335,290,q),
(307,280,o),
(235,260,o),
(203,260,qs),
(179,260,o),
(143,276,o),
(139,296,qs),
(135,312,o),
(161,376,o),
(201,448,o),
(245,518,o),
(257,538,qs),
(283,580,o),
(345,664,o),
(401,738,o),
(451,794,o),
(465,808,qs),
(483,826,o),
(447,852,o),
(425,852,qs),
(407,852,o),
(399,844,q),
(379,828,o),
(271,676,o),
(195,558,qs),
(139,472,o),
(69,354,o),
(61,306,qs),
(55,264,o),
(129,192,o),
(181,188,qs),
(209,184,o),
(277,196,o),
(311,206,q),
(307,186,o),
(301,150,o),
(301,130,qs),
(299,68,o),
(327,-2,o),
(337,-12,q),
(343,-20,o),
(357,-20,qs),
(367,-20,o),
(381,-8,o),
(379,2,qs),
(375,22,o),
(373,56,o),
(373,78,qs),
(375,108,o),
(385,172,o),
(395,218,q),
(399,230,o),
(399,232,q),
(421,240,o),
(455,254,o),
(471,260,qs),
(503,274,o),
(575,304,o),
(643,332,o),
(701,352,o),
(717,356,qs),
(737,362,o),
(745,396,o),
(719,406,qs),
(705,412,o)
);
}
);
userData = {
assembly = "PUSHW[ ]	/* 1 value pushed */
0
CALL[ ]	/* CallFunction */
SVTCA[0]	/* SetFreedomAndProjectionVectorToAxis */
PUSHW[ ]	/* 1 value pushed */
42
MDAP[1]	/* MoveDirectAbsPt */
PUSHW[ ]	/* 1 value pushed */
44
MDAP[1]	/* MoveDirectAbsPt */
PUSHW[ ]	/* 1 value pushed */
71
MDAP[1]	/* MoveDirectAbsPt */
PUSHW[ ]	/* 1 value pushed */
0
RCVT[ ]	/* ReadCVT */
IF[ ]	/* If */
PUSHW[ ]	/* 1 value pushed */
22
MDAP[1]	/* MoveDirectAbsPt */
ELSE[ ]	/* Else */
PUSHW[ ]	/* 2 values pushed */
22 5
MIAP[0]	/* MoveIndirectAbsPt */
EIF[ ]	/* EndIf */
PUSHW[ ]	/* 1 value pushed */
0
RCVT[ ]	/* ReadCVT */
IF[ ]	/* If */
PUSHW[ ]	/* 1 value pushed */
24
MDAP[1]	/* MoveDirectAbsPt */
ELSE[ ]	/* Else */
PUSHW[ ]	/* 2 values pushed */
24 5
MIAP[0]	/* MoveIndirectAbsPt */
EIF[ ]	/* EndIf */
PUSHW[ ]	/* 1 value pushed */
0
RCVT[ ]	/* ReadCVT */
IF[ ]	/* If */
PUSHW[ ]	/* 1 value pushed */
19
MDAP[1]	/* MoveDirectAbsPt */
ELSE[ ]	/* Else */
PUSHW[ ]	/* 2 values pushed */
19 5
MIAP[0]	/* MoveIndirectAbsPt */
EIF[ ]	/* EndIf */
PUSHW[ ]	/* 3 values pushed */
60 33 3
CALL[ ]	/* CallFunction */
PUSHW[ ]	/* 3 values pushed */
30 33 60
SRP1[ ]	/* SetRefPoint1 */
SRP2[ ]	/* SetRefPoint2 */
IP[ ]	/* InterpolatePts */
PUSHW[ ]	/* 3 values pushed */
77 22 44
SRP1[ ]	/* SetRefPoint1 */
SRP2[ ]	/* SetRefPoint2 */
IP[ ]	/* InterpolatePts */
SVTCA[1]	/* SetFreedomAndProjectionVectorToAxis */
PUSHW[ ]	/* 3 values pushed */
16 27 3
CALL[ ]	/* CallFunction */
NPUSHW[ ]	/* 27 values pushed */
6 16 22 16 38 16 54 16 70 16 86 16 102 16 118 16 134 16 150 16 166 16 182 16 198 16 13
DELTAP1[ ]	/* DeltaExceptionP1 */
NPUSHW[ ]	/* 5 values pushed */
213 16 229 16 2
DELTAP1[ ]	/* DeltaExceptionP1 */
PUSHW[ ]	/* 1 value pushed */
16
SRP0[ ]	/* SetRefPoint0 */
PUSHW[ ]	/* 1 value pushed */
19
MDRP[10000]	/* MoveDirectRelPt */
PUSHW[ ]	/* 1 value pushed */
19
MDAP[1]	/* MoveDirectAbsPt */
PUSHW[ ]	/* 1 value pushed */
27
SRP0[ ]	/* SetRefPoint0 */
PUSHW[ ]	/* 1 value pushed */
30
MDRP[10000]	/* MoveDirectRelPt */
PUSHW[ ]	/* 1 value pushed */
30
MDAP[1]	/* MoveDirectAbsPt */
IUP[0]	/* InterpolateUntPts */
IUP[1]	/* InterpolateUntPts */";
};
width = 802;
}
);
note = four;
unicode = 52;
},
{
glyphname = five;
lastChange = "2025-12-26 02:35:02 +0000";
layers = (
{
layerId = m01;
shapes = (
{
closed = 1;
nodes = (
(408,730,o),
(344,730,o),
(298,728,o),
(294,724,qs),
(278,710,o),
(218,630,o),
(158,536,o),
(112,452,o),
(110,430,qs),
(108,406,o),
(160,348,o),
(200,352,qs),
(244,356,o),
(350,388,o),
(380,390,qs),
(412,392,o),
(432,390,o),
(438,384,q),
(444,380,o),
(420,324,o),
(396,292,qs),
(378,270,o),
(316,206,o),
(240,148,o),
(166,106,o),
(136,106,qs),
(116,106,o),
(90,120,o),
(80,122,qs),
(68,124,o),
(58,108,o),
(62,100,qs),
(72,82,o),
(108,50,o),
(148,50,qs),
(180,50,o),
(250,78,o),
(316,122,o),
(374,176,o),
(398,200,qs),
(420,222,o),
(464,272,o),
(498,326,o),
(520,376,o),
(516,394,qs),
(512,422,o),
(454,454,o),
(410,454,qs),
(386,454,o),
(358,448,qs),
(322,440,o),
(238,414,o),
(210,414,qs),
(194,414,o),
(188,420,q),
(184,426,o),
(192,456,o),
(210,494,o),
(232,536,o),
(242,552,qs),
(264,584,o),
(310,648,o),
(316,656,qs),
(320,660,o),
(370,660,o),
(398,660,qs),
(456,660,o),
(568,676,o),
(622,694,qs),
(644,700,o),
(706,720,o),
(770,740,o),
(826,756,o),
(844,762,qs),
(874,772,o),
(860,796,o),
(834,794,qs),
(790,792,o),
(702,774,o),
(616,752,o),
(536,736,o),
(500,732,qs),
(474,730,o)
);
}
);
userData = {
assembly = "PUSHW[ ]	/* 1 value pushed */
0
CALL[ ]	/* CallFunction */
SVTCA[0]	/* SetFreedomAndProjectionVectorToAxis */
PUSHW[ ]	/* 1 value pushed */
5
MDAP[1]	/* MoveDirectAbsPt */
PUSHW[ ]	/* 3 values pushed */
56 47 3
CALL[ ]	/* CallFunction */
PUSHW[ ]	/* 3 values pushed */
0 16 3
CALL[ ]	/* CallFunction */
PUSHW[ ]	/* 3 values pushed */
29 70 3
CALL[ ]	/* CallFunction */
PUSHW[ ]	/* 3 values pushed */
34 37 3
CALL[ ]	/* CallFunction */
PUSHW[ ]	/* 1 value pushed */
37
SRP0[ ]	/* SetRefPoint0 */
PUSHW[ ]	/* 1 value pushed */
67
MDRP[10000]	/* MoveDirectRelPt */
PUSHW[ ]	/* 1 value pushed */
67
MDAP[1]	/* MoveDirectAbsPt */
IUP[0]	/* InterpolateUntPts */
IUP[1]	/* InterpolateUntPts */";
};
width = 928;
}
);
note = five;
unicode = 53;
},
{
glyphname = six;
lastChange = "2025-12-26 02:35:02 +0000";
layers = (
{
layerId = m01;
shapes = (
{
closed = 1;
nodes = (
(486,318,o),
(488,294,qs),
(490,268,o),
(444,214,o),
(404,182,qs),
(366,150,o),
(258,86,o),
(212,82,q),
(174,82,o),
(138,148,o),
(140,198,qs),
(142,252,o),
(178,318,q),
(202,326,o),
(304,366,o),
(362,368,qs),
(420,368,o)
);
},
{
closed = 1;
nodes = (
(462,658,o),
(550,714,q),
(568,728,o),
(606,742,o),
(642,752,o),
(668,762,o),
(674,768,qs),
(682,778,o),
(636,814,o),
(608,814,qs),
(588,814,o),
(516,770,o),
(436,708,o),
(360,638,o),
(332,612,qs),
(296,578,o),
(202,474,o),
(118,356,o),
(60,234,o),
(60,180,qs),
(60,148,o),
(82,86,o),
(122,38,o),
(172,8,o),
(198,8,qs),
(226,8,o),
(290,32,o),
(356,68,o),
(414,108,o),
(436,126,qs),
(458,142,o),
(502,182,o),
(540,228,o),
(564,280,o),
(562,310,qs),
(560,340,o),
(514,386,o),
(452,414,o),
(384,428,o),
(360,428,qs),
(328,428,o),
(260,414,o),
(232,404,q),
(236,412,o),
(248,424,o),
(252,430,q),
(320,508,o)
);
}
);
userData = {
assembly = "PUSHW[ ]	/* 1 value pushed */
0
CALL[ ]	/* CallFunction */
SVTCA[0]	/* SetFreedomAndProjectionVectorToAxis */
PUSHW[ ]	/* 1 value pushed */
53
MDAP[1]	/* MoveDirectAbsPt */
PUSHW[ ]	/* 3 values pushed */
8 38 3
CALL[ ]	/* CallFunction */
PUSHW[ ]	/* 3 values pushed */
23 0 3
CALL[ ]	/* CallFunction */
PUSHW[ ]	/* 3 values pushed */
20 0 23
SRP1[ ]	/* SetRefPoint1 */
SRP2[ ]	/* SetRefPoint2 */
IP[ ]	/* InterpolatePts */
SVTCA[1]	/* SetFreedomAndProjectionVectorToAxis */
PUSHW[ ]	/* 1 value pushed */
64
MDAP[1]	/* MoveDirectAbsPt */
PUSHW[ ]	/* 1 value pushed */
14
MDAP[1]	/* MoveDirectAbsPt */
PUSHW[ ]	/* 1 value pushed */
64
SRP0[ ]	/* SetRefPoint0 */
PUSHW[ ]	/* 1 value pushed */
43
MDRP[10000]	/* MoveDirectRelPt */
PUSHW[ ]	/* 1 value pushed */
43
MDAP[1]	/* MoveDirectAbsPt */
PUSHW[ ]	/* 1 value pushed */
5
MDRP[11100]	/* MoveDirectRelPt */
NPUSHW[ ]	/* 27 values pushed */
6 5 22 5 38 5 54 5 70 5 86 5 102 5 118 5 134 5 150 5 166 5 182 5 198 5 13
DELTAP1[ ]	/* DeltaExceptionP1 */
NPUSHW[ ]	/* 5 values pushed */
213 5 229 5 2
DELTAP1[ ]	/* DeltaExceptionP1 */
NPUSHW[ ]	/* 5 values pushed */
218 14 234 14 2
DELTAP1[ ]	/* DeltaExceptionP1 */
NPUSHW[ ]	/* 27 values pushed */
9 14 25 14 41 14 57 14 73 14 89 14 105 14 121 14 137 14 153 14 169 14 185 14 201 14 13
DELTAP1[ ]	/* DeltaExceptionP1 */
PUSHW[ ]	/* 1 value pushed */
14
SRP0[ ]	/* SetRefPoint0 */
PUSHW[ ]	/* 1 value pushed */
28
MDRP[11100]	/* MoveDirectRelPt */
PUSHW[ ]	/* 3 values pushed */
20 43 28
SRP1[ ]	/* SetRefPoint1 */
SRP2[ ]	/* SetRefPoint2 */
IP[ ]	/* InterpolatePts */
PUSHW[ ]	/* 1 value pushed */
61
MDRP[10000]	/* MoveDirectRelPt */
PUSHW[ ]	/* 1 value pushed */
61
MDAP[1]	/* MoveDirectAbsPt */
IUP[0]	/* InterpolateUntPts */
IUP[1]	/* InterpolateUntPts */";
};
width = 736;
}
);
note = six;
unicode = 54;
},
{
glyphname = seven;
lastChange = "2025-12-26 02:35:02 +0000";
layers = (
{
layerId = m01;
shapes = (
{
closed = 1;
nodes = (
(472,388,o),
(410,382,q),
(434,410,o),
(472,456,o),
(482,468,qs),
(504,496,o),
(554,560,o),
(602,626,o),
(642,684,o),
(652,702,qs),
(668,730,o),
(684,766,o),
(676,780,qs),
(664,806,o),
(608,802,qs),
(594,802,o),
(534,786,o),
(468,768,o),
(406,750,o),
(390,746,qs),
(356,736,o),
(268,724,o),
(230,724,qs),
(204,724,ls),
(192,724,o),
(178,708,o),
(180,686,o),
(194,668,o),
(208,668,qs),
(230,668,ls),
(272,668,o),
(352,682,o),
(386,688,qs),
(402,692,o),
(484,716,o),
(522,726,qs),
(560,738,o),
(608,752,o),
(610,746,q),
(610,740,o),
(566,678,o),
(546,652,qs),
(538,640,o),
(484,570,o),
(420,488,o),
(360,412,o),
(346,394,qs),
(342,390,o),
(334,380,o),
(328,372,q),
(310,372,l),
(284,368,o),
(222,364,o),
(194,368,qs),
(164,370,o),
(114,390,o),
(92,384,qs),
(72,378,o),
(78,338,o),
(100,322,qs),
(122,306,o),
(210,298,o),
(254,302,qs),
(264,302,o),
(270,304,q),
(242,270,o),
(186,202,o),
(168,180,qs),
(152,160,o),
(116,114,o),
(84,72,o),
(62,40,o),
(60,30,qs),
(58,20,o),
(78,4,o),
(92,4,qs),
(102,4,o),
(108,10,qs),
(118,18,o),
(154,60,o),
(198,116,o),
(244,174,o),
(262,196,qs),
(276,216,o),
(326,278,o),
(354,312,q),
(388,316,o),
(470,328,o),
(556,342,o),
(636,362,o),
(666,374,qs),
(686,382,o),
(682,412,o),
(648,408,qs),
(606,404,o)
);
}
);
userData = {
assembly = "PUSHW[ ]	/* 1 value pushed */
0
CALL[ ]	/* CallFunction */
SVTCA[0]	/* SetFreedomAndProjectionVectorToAxis */
PUSHW[ ]	/* 1 value pushed */
79
MDAP[1]	/* MoveDirectAbsPt */
PUSHW[ ]	/* 1 value pushed */
3
MDAP[1]	/* MoveDirectAbsPt */
PUSHW[ ]	/* 1 value pushed */
37
MDAP[1]	/* MoveDirectAbsPt */
PUSHW[ ]	/* 1 value pushed */
43
MDAP[1]	/* MoveDirectAbsPt */
PUSHW[ ]	/* 1 value pushed */
47
MDAP[1]	/* MoveDirectAbsPt */
PUSHW[ ]	/* 1 value pushed */
92
MDAP[1]	/* MoveDirectAbsPt */
PUSHW[ ]	/* 3 values pushed */
71 64 3
CALL[ ]	/* CallFunction */
PUSHW[ ]	/* 3 values pushed */
40 31 3
CALL[ ]	/* CallFunction */
PUSHW[ ]	/* 1 value pushed */
37
SRP0[ ]	/* SetRefPoint0 */
PUSHW[ ]	/* 1 value pushed */
0
MDRP[11100]	/* MoveDirectRelPt */
PUSHW[ ]	/* 1 value pushed */
31
SRP0[ ]	/* SetRefPoint0 */
PUSHW[ ]	/* 1 value pushed */
8
MDRP[10000]	/* MoveDirectRelPt */
PUSHW[ ]	/* 1 value pushed */
8
MDAP[1]	/* MoveDirectAbsPt */
PUSHW[ ]	/* 1 value pushed */
40
SRP0[ ]	/* SetRefPoint0 */
PUSHW[ ]	/* 1 value pushed */
44
MDRP[10000]	/* MoveDirectRelPt */
PUSHW[ ]	/* 1 value pushed */
44
MDAP[1]	/* MoveDirectAbsPt */
IUP[0]	/* InterpolateUntPts */
IUP[1]	/* InterpolateUntPts */";
};
width = 744;
}
);
note = seven;
unicode = 55;
},
{
glyphname = eight;
lastChange = "2025-12-26 02:35:02 +0000";
layers = (
{
layerId = m01;
shapes = (
{
closed = 1;
nodes = (
(236,106,o),
(212,106,qs),
(198,106,l),
(170,110,o),
(124,162,o),
(126,194,qs),
(128,222,o),
(168,278,o),
(186,292,qs),
(190,296,o),
(216,312,o),
(234,322,q),
(246,292,o),
(276,202,o),
(276,172,qs),
(276,132,o)
);
},
{
closed = 1;
nodes = (
(336,464,o),
(272,426,q),
(260,462,o),
(246,532,o),
(250,564,qs),
(252,594,o),
(292,654,o),
(348,698,o),
(414,726,o),
(444,726,qs),
(486,726,o),
(532,680,o),
(532,652,qs),
(530,616,o),
(516,590,o),
(520,574,qs),
(524,558,o),
(538,554,q),
(468,526,o)
);
},
{
closed = 1;
nodes = (
(780,652,o),
(732,634,o),
(684,614,o),
(664,606,qs),
(648,600,o),
(606,582,o),
(580,572,q),
(606,616,o),
(596,676,qs),
(594,690,o),
(570,730,o),
(528,768,o),
(470,794,o),
(434,794,qs),
(386,792,o),
(294,752,o),
(220,688,o),
(174,604,o),
(172,556,qs),
(170,516,o),
(194,428,o),
(208,390,q),
(198,386,o),
(182,376,o),
(176,372,qs),
(132,344,o),
(60,258,o),
(60,206,qs),
(60,180,o),
(82,124,o),
(122,78,o),
(180,48,o),
(216,48,qs),
(294,50,o),
(346,128,o),
(346,172,qs),
(346,198,o),
(342,238,o),
(330,274,o),
(314,314,o),
(304,338,qs),
(302,342,o),
(298,354,o),
(296,360,q),
(330,382,o),
(402,420,o),
(428,434,qs),
(454,446,o),
(522,478,o),
(592,510,o),
(658,540,o),
(684,552,qs),
(736,576,o),
(836,628,o),
(852,638,qs),
(864,646,o),
(854,678,o),
(834,670,qs),
(822,666,o)
);
}
);
userData = {
assembly = "PUSHW[ ]	/* 1 value pushed */
0
CALL[ ]	/* CallFunction */
SVTCA[0]	/* SetFreedomAndProjectionVectorToAxis */
PUSHW[ ]	/* 3 values pushed */
13 60 3
CALL[ ]	/* CallFunction */
PUSHW[ ]	/* 3 values pushed */
79 24 3
CALL[ ]	/* CallFunction */
SVTCA[1]	/* SetFreedomAndProjectionVectorToAxis */
PUSHW[ ]	/* 3 values pushed */
9 65 3
CALL[ ]	/* CallFunction */
PUSHW[ ]	/* 3 values pushed */
57 0 3
CALL[ ]	/* CallFunction */
PUSHW[ ]	/* 3 values pushed */
84 21 3
CALL[ ]	/* CallFunction */
PUSHW[ ]	/* 3 values pushed */
29 74 3
CALL[ ]	/* CallFunction */
NPUSHW[ ]	/* 27 values pushed */
6 9 22 9 38 9 54 9 70 9 86 9 102 9 118 9 134 9 150 9 166 9 182 9 198 9 13
DELTAP1[ ]	/* DeltaExceptionP1 */
NPUSHW[ ]	/* 5 values pushed */
213 9 229 9 2
DELTAP1[ ]	/* DeltaExceptionP1 */
NPUSHW[ ]	/* 5 values pushed */
218 21 234 21 2
DELTAP1[ ]	/* DeltaExceptionP1 */
NPUSHW[ ]	/* 27 values pushed */
9 21 25 21 41 21 57 21 73 21 89 21 105 21 121 21 137 21 153 21 169 21 185 21 201 21 13
DELTAP1[ ]	/* DeltaExceptionP1 */
PUSHW[ ]	/* 3 values pushed */
16 21 84
SRP1[ ]	/* SetRefPoint1 */
SRP2[ ]	/* SetRefPoint2 */
IP[ ]	/* InterpolatePts */
NPUSHW[ ]	/* 27 values pushed */
6 29 22 29 38 29 54 29 70 29 86 29 102 29 118 29 134 29 150 29 166 29 182 29 198 29 13
DELTAP1[ ]	/* DeltaExceptionP1 */
NPUSHW[ ]	/* 5 values pushed */
213 29 229 29 2
DELTAP1[ ]	/* DeltaExceptionP1 */
NPUSHW[ ]	/* 27 values pushed */
6 57 22 57 38 57 54 57 70 57 86 57 102 57 118 57 134 57 150 57 166 57 182 57 198 57 13
DELTAP1[ ]	/* DeltaExceptionP1 */
NPUSHW[ ]	/* 5 values pushed */
213 57 229 57 2
DELTAP1[ ]	/* DeltaExceptionP1 */
PUSHW[ ]	/* 3 values pushed */
86 21 84
SRP1[ ]	/* SetRefPoint1 */
SRP2[ ]	/* SetRefPoint2 */
IP[ ]	/* InterpolatePts */
IUP[0]	/* InterpolateUntPts */
IUP[1]	/* InterpolateUntPts */";
};
width = 920;
}
);
note = eight;
unicode = 56;
},
{
glyphname = nine;
lastChange = "2025-12-26 02:35:02 +0000";
layers = (
{
layerId = m01;
shapes = (
{
closed = 1;
nodes = (
(410,686,qs),
(422,686,o),
(430,724,o),
(422,740,qs),
(412,760,o),
(348,786,o),
(312,786,qs),
(270,786,o),
(184,748,o),
(112,684,o),
(64,602,o),
(60,560,qs),
(56,508,o),
(116,434,o),
(174,424,q),
(188,424,ls),
(212,424,o),
(258,442,o),
(294,462,o),
(320,480,o),
(322,480,q),
(318,466,o),
(274,376,o),
(254,330,qs),
(236,286,o),
(200,192,o),
(202,152,qs),
(202,118,o),
(246,56,o),
(268,52,qs),
(292,50,o),
(316,76,o),
(302,86,q),
(262,120,o),
(272,180,qs),
(274,196,o),
(312,294,o),
(362,408,o),
(412,514,o),
(424,534,q),
(454,572,o),
(516,668,o),
(526,688,qs),
(532,698,o),
(546,726,o),
(560,754,o),
(568,776,o),
(568,782,q),
(566,792,o),
(546,802,o),
(534,802,qs),
(514,802,o),
(502,790,q),
(488,780,o),
(454,726,o),
(444,708,q),
(434,694,o),
(422,664,o),
(416,652,qs),
(412,646,o),
(376,612,o),
(330,570,o),
(284,534,o),
(270,524,qs),
(242,504,o),
(202,482,o),
(178,484,qs),
(154,486,o),
(130,534,o),
(134,574,qs),
(136,596,o),
(168,650,o),
(216,698,o),
(278,730,o),
(310,730,qs),
(358,730,o),
(388,702,o),
(400,692,qs),
(406,686,o)
);
}
);
userData = {
assembly = "PUSHW[ ]	/* 1 value pushed */
0
CALL[ ]	/* CallFunction */
SVTCA[0]	/* SetFreedomAndProjectionVectorToAxis */
PUSHW[ ]	/* 1 value pushed */
48
MDAP[1]	/* MoveDirectAbsPt */
PUSHW[ ]	/* 3 values pushed */
71 3 3
CALL[ ]	/* CallFunction */
PUSHW[ ]	/* 3 values pushed */
11 63 3
CALL[ ]	/* CallFunction */
PUSHW[ ]	/* 1 value pushed */
11
SRP0[ ]	/* SetRefPoint0 */
PUSHW[ ]	/* 1 value pushed */
57
MDRP[10000]	/* MoveDirectRelPt */
PUSHW[ ]	/* 1 value pushed */
57
MDAP[1]	/* MoveDirectAbsPt */
SVTCA[1]	/* SetFreedomAndProjectionVectorToAxis */
PUSHW[ ]	/* 3 values pushed */
48 51 3
CALL[ ]	/* CallFunction */
NPUSHW[ ]	/* 27 values pushed */
6 48 22 48 38 48 54 48 70 48 86 48 102 48 118 48 134 48 150 48 166 48 182 48 198 48 13
DELTAP1[ ]	/* DeltaExceptionP1 */
NPUSHW[ ]	/* 5 values pushed */
213 48 229 48 2
DELTAP1[ ]	/* DeltaExceptionP1 */
PUSHW[ ]	/* 1 value pushed */
48
SRP0[ ]	/* SetRefPoint0 */
PUSHW[ ]	/* 1 value pushed */
43
MDRP[10000]	/* MoveDirectRelPt */
PUSHW[ ]	/* 1 value pushed */
43
MDAP[1]	/* MoveDirectAbsPt */
IUP[0]	/* InterpolateUntPts */
IUP[1]	/* InterpolateUntPts */";
};
width = 628;
}
);
note = nine;
unicode = 57;
},
{
glyphname = colon;
lastChange = "2025-12-26 02:35:02 +0000";
layers = (
{
layerId = m01;
shapes = (
{
closed = 1;
nodes = (
(84,126,o),
(100,126,qs),
(102,126,ls),
(118,128,o),
(146,158,o),
(142,174,qs),
(136,206,o),
(98,206,q),
(78,204,o),
(62,182,o),
(60,168,qs),
(58,154,o)
);
},
{
closed = 1;
nodes = (
(104,310,o),
(124,306,q),
(136,306,o),
(152,342,o),
(150,354,qs),
(148,368,o),
(132,390,o),
(112,390,qs),
(104,390,l),
(80,386,o),
(68,360,o),
(70,348,qs),
(72,332,o)
);
}
);
userData = {
assembly = "PUSHW[ ]	/* 1 value pushed */
0
CALL[ ]	/* CallFunction */
SVTCA[0]	/* SetFreedomAndProjectionVectorToAxis */
PUSHW[ ]	/* 3 values pushed */
3 9 3
CALL[ ]	/* CallFunction */
PUSHW[ ]	/* 3 values pushed */
16 22 3
CALL[ ]	/* CallFunction */
SVTCA[1]	/* SetFreedomAndProjectionVectorToAxis */
PUSHW[ ]	/* 3 values pushed */
5 0 3
CALL[ ]	/* CallFunction */
NPUSHW[ ]	/* 27 values pushed */
6 5 22 5 38 5 54 5 70 5 86 5 102 5 118 5 134 5 150 5 166 5 182 5 198 5 13
DELTAP1[ ]	/* DeltaExceptionP1 */
NPUSHW[ ]	/* 5 values pushed */
213 5 229 5 2
DELTAP1[ ]	/* DeltaExceptionP1 */
PUSHW[ ]	/* 1 value pushed */
0
SRP0[ ]	/* SetRefPoint0 */
PUSHW[ ]	/* 1 value pushed */
12
MDRP[10000]	/* MoveDirectRelPt */
PUSHW[ ]	/* 1 value pushed */
12
MDAP[1]	/* MoveDirectAbsPt */
PUSHW[ ]	/* 1 value pushed */
5
SRP0[ ]	/* SetRefPoint0 */
PUSHW[ ]	/* 1 value pushed */
19
MDRP[10000]	/* MoveDirectRelPt */
PUSHW[ ]	/* 1 value pushed */
19
MDAP[1]	/* MoveDirectAbsPt */
IUP[0]	/* InterpolateUntPts */
IUP[1]	/* InterpolateUntPts */";
};
width = 210;
}
);
note = colon;
unicode = 58;
},
{
glyphname = semicolon;
lastChange = "2025-12-26 02:35:02 +0000";
layers = (
{
layerId = m01;
shapes = (
{
closed = 1;
nodes = (
(112,-70,o),
(82,-118,o),
(60,-164,o),
(60,-172,qs),
(60,-186,o),
(94,-208,o),
(104,-202,q),
(106,-200,o),
(138,-150,o),
(176,-88,o),
(210,-32,o),
(214,-24,qs),
(224,-2,o),
(230,44,o),
(218,60,qs),
(212,70,o),
(186,80,o),
(176,80,qs),
(154,80,o),
(152,62,qs),
(148,40,o),
(156,8,o),
(140,-20,q),
(138,-26,o)
);
},
{
closed = 1;
nodes = (
(212,242,o),
(216,228,qs),
(218,218,o),
(228,182,o),
(250,178,qs),
(274,174,o),
(292,208,o),
(290,230,qs),
(288,252,o),
(276,284,o),
(248,284,qs),
(226,284,o)
);
}
);
userData = {
assembly = "PUSHW[ ]	/* 1 value pushed */
0
CALL[ ]	/* CallFunction */
SVTCA[0]	/* SetFreedomAndProjectionVectorToAxis */
PUSHW[ ]	/* 3 values pushed */
24 30 3
CALL[ ]	/* CallFunction */
SVTCA[1]	/* SetFreedomAndProjectionVectorToAxis */
PUSHW[ ]	/* 3 values pushed */
27 8 3
CALL[ ]	/* CallFunction */
NPUSHW[ ]	/* 5 values pushed */
218 8 234 8 2
DELTAP1[ ]	/* DeltaExceptionP1 */
NPUSHW[ ]	/* 27 values pushed */
9 8 25 8 41 8 57 8 73 8 89 8 105 8 121 8 137 8 153 8 169 8 185 8 201 8 13
DELTAP1[ ]	/* DeltaExceptionP1 */
PUSHW[ ]	/* 1 value pushed */
8
SRP0[ ]	/* SetRefPoint0 */
PUSHW[ ]	/* 1 value pushed */
33
MDRP[10000]	/* MoveDirectRelPt */
PUSHW[ ]	/* 1 value pushed */
33
MDAP[1]	/* MoveDirectAbsPt */
IUP[0]	/* InterpolateUntPts */
IUP[1]	/* InterpolateUntPts */";
};
width = 350;
}
);
note = semicolon;
unicode = 59;
},
{
glyphname = less;
lastChange = "2025-12-26 02:35:02 +0000";
layers = (
{
layerId = m01;
shapes = (
{
closed = 1;
nodes = (
(342,520,o),
(292,486,o),
(238,452,o),
(216,440,qs),
(196,428,o),
(144,400,o),
(98,374,o),
(64,346,o),
(60,334,qs),
(56,316,o),
(130,248,o),
(176,216,qs),
(192,204,o),
(248,172,o),
(308,142,o),
(368,120,o),
(388,120,qs),
(410,120,o),
(420,152,o),
(398,162,qs),
(384,168,o),
(316,212,o),
(242,262,o),
(178,310,o),
(168,322,qs),
(164,328,o),
(232,372,o),
(322,428,o),
(414,486,o),
(434,504,qs),
(444,512,o),
(440,534,o),
(424,550,o),
(400,556,o),
(390,550,qs),
(382,546,o)
);
}
);
userData = {
assembly = "PUSHW[ ]	/* 1 value pushed */
0
CALL[ ]	/* CallFunction */
SVTCA[0]	/* SetFreedomAndProjectionVectorToAxis */
PUSHW[ ]	/* 1 value pushed */
18
MDAP[1]	/* MoveDirectAbsPt */
IUP[0]	/* InterpolateUntPts */
IUP[1]	/* InterpolateUntPts */";
};
width = 502;
}
);
note = less;
unicode = 60;
},
{
glyphname = equal;
lastChange = "2025-12-26 02:35:02 +0000";
layers = (
{
layerId = m01;
shapes = (
{
closed = 1;
nodes = (
(55,250,o),
(77,236,qs),
(95,222,o),
(137,212,o),
(159,212,qs),
(177,212,o),
(227,226,o),
(281,240,o),
(331,254,o),
(349,254,qs),
(361,254,o),
(369,270,o),
(363,286,o),
(345,300,o),
(329,300,qs),
(315,300,o),
(269,292,o),
(219,282,o),
(169,276,o),
(151,278,qs),
(133,280,o),
(103,294,o),
(83,290,qs),
(67,288,o)
);
},
{
closed = 1;
nodes = (
(341,394,o),
(381,402,qs),
(397,404,o),
(409,422,o),
(407,444,o),
(391,460,o),
(375,460,qs),
(343,460,o),
(257,432,o),
(229,426,qs),
(185,420,o),
(117,428,o),
(99,424,qs),
(83,420,o),
(83,382,o),
(95,374,qs),
(113,362,o),
(169,356,o),
(199,358,qs),
(235,362,o)
);
}
);
userData = {
assembly = "PUSHW[ ]	/* 1 value pushed */
0
CALL[ ]	/* CallFunction */
SVTCA[0]	/* SetFreedomAndProjectionVectorToAxis */
PUSHW[ ]	/* 1 value pushed */
18
MDAP[1]	/* MoveDirectAbsPt */
PUSHW[ ]	/* 1 value pushed */
0
RCVT[ ]	/* ReadCVT */
IF[ ]	/* If */
PUSHW[ ]	/* 1 value pushed */
24
MDAP[1]	/* MoveDirectAbsPt */
ELSE[ ]	/* Else */
PUSHW[ ]	/* 2 values pushed */
24 9
MIAP[0]	/* MoveIndirectAbsPt */
EIF[ ]	/* EndIf */
PUSHW[ ]	/* 3 values pushed */
8 13 3
CALL[ ]	/* CallFunction */
PUSHW[ ]	/* 3 values pushed */
36 41 3
CALL[ ]	/* CallFunction */
PUSHW[ ]	/* 1 value pushed */
8
SRP0[ ]	/* SetRefPoint0 */
PUSHW[ ]	/* 1 value pushed */
0
MDRP[10000]	/* MoveDirectRelPt */
PUSHW[ ]	/* 1 value pushed */
0
MDAP[1]	/* MoveDirectAbsPt */
IUP[0]	/* InterpolateUntPts */
IUP[1]	/* InterpolateUntPts */";
};
width = 468;
}
);
note = equal;
unicode = 61;
},
{
glyphname = greater;
lastChange = "2025-12-26 02:35:02 +0000";
layers = (
{
layerId = m01;
shapes = (
{
closed = 1;
nodes = (
(245,402,o),
(289,382,o),
(317,366,o),
(313,360,q),
(299,346,o),
(247,298,o),
(179,240,o),
(103,180,o),
(67,152,qs),
(59,146,o),
(61,122,o),
(73,104,o),
(93,94,o),
(103,100,qs),
(131,118,o),
(203,176,o),
(245,212,qs),
(273,236,o),
(339,294,o),
(391,348,o),
(417,392,o),
(407,404,qs),
(399,414,o),
(359,430,o),
(307,448,o),
(249,468,o),
(223,480,qs),
(183,500,o),
(147,524,o),
(119,542,q),
(109,550,o),
(97,550,qs),
(81,550,o),
(67,522,o),
(79,508,qs),
(99,486,o),
(143,448,o),
(175,432,qs),
(193,424,o)
);
}
);
userData = {
assembly = "PUSHW[ ]	/* 1 value pushed */
0
CALL[ ]	/* CallFunction */
SVTCA[0]	/* SetFreedomAndProjectionVectorToAxis */
PUSHW[ ]	/* 1 value pushed */
6
MDAP[1]	/* MoveDirectAbsPt */
PUSHW[ ]	/* 1 value pushed */
8
MDAP[1]	/* MoveDirectAbsPt */
IUP[0]	/* InterpolateUntPts */
IUP[1]	/* InterpolateUntPts */";
};
width = 471;
}
);
note = greater;
unicode = 62;
},
{
glyphname = question;
lastChange = "2025-12-26 02:35:02 +0000";
layers = (
{
layerId = m01;
shapes = (
{
closed = 1;
nodes = (
(429,88,o),
(409,92,qs),
(391,94,o),
(359,100,o),
(345,100,qs),
(325,100,o),
(315,92,qs),
(299,82,o),
(303,52,o),
(313,42,qs),
(319,36,o),
(343,30,o),
(355,30,qs),
(371,30,o),
(379,32,qs),
(409,42,o)
);
},
{
closed = 1;
nodes = (
(87,554,qs),
(107,554,o),
(107,576,qs),
(105,612,o),
(153,696,o),
(195,742,qs),
(213,764,o),
(275,800,o),
(343,826,o),
(413,842,o),
(441,842,qs),
(467,842,o),
(521,830,o),
(569,806,o),
(603,770,o),
(607,744,qs),
(611,716,o),
(585,642,o),
(539,566,o),
(485,498,o),
(461,474,qs),
(431,446,o),
(357,378,o),
(319,350,qs),
(279,322,o),
(227,296,o),
(209,282,qs),
(193,270,o),
(185,242,o),
(203,232,q),
(233,210,o),
(295,210,qs),
(323,210,o),
(391,218,o),
(463,232,o),
(531,250,o),
(557,258,qs),
(583,268,o),
(571,300,o),
(535,300,qs),
(515,300,o),
(451,292,o),
(385,282,o),
(333,274,o),
(325,274,qs),
(323,274,l),
(317,276,o),
(359,310,o),
(427,370,o),
(509,446,o),
(545,490,qs),
(563,512,o),
(611,570,o),
(653,638,o),
(675,720,o),
(665,764,qs),
(657,802,o),
(609,856,o),
(543,888,o),
(471,904,o),
(437,904,qs),
(363,904,o),
(221,834,o),
(165,788,qs),
(109,742,o),
(53,622,o),
(63,578,qs),
(69,554,o)
);
}
);
userData = {
assembly = "PUSHW[ ]	/* 1 value pushed */
0
CALL[ ]	/* CallFunction */
SVTCA[0]	/* SetFreedomAndProjectionVectorToAxis */
PUSHW[ ]	/* 1 value pushed */
43
MDAP[1]	/* MoveDirectAbsPt */
PUSHW[ ]	/* 3 values pushed */
10 2 3
CALL[ ]	/* CallFunction */
PUSHW[ ]	/* 3 values pushed */
22 72 3
CALL[ ]	/* CallFunction */
PUSHW[ ]	/* 3 values pushed */
37 51 3
CALL[ ]	/* CallFunction */
PUSHW[ ]	/* 1 value pushed */
10
SRP0[ ]	/* SetRefPoint0 */
PUSHW[ ]	/* 1 value pushed */
13
MDRP[10000]	/* MoveDirectRelPt */
PUSHW[ ]	/* 1 value pushed */
13
MDAP[1]	/* MoveDirectAbsPt */
IUP[0]	/* InterpolateUntPts */
IUP[1]	/* InterpolateUntPts */";
};
width = 730;
}
);
note = question;
unicode = 63;
},
{
glyphname = at;
lastChange = "2025-12-26 02:35:02 +0000";
layers = (
{
layerId = m01;
shapes = (
{
closed = 1;
nodes = (
(530,130,o),
(526,122,q),
(524,114,o),
(490,88,o),
(446,62,o),
(396,44,o),
(376,44,qs),
(354,46,o),
(326,86,o),
(330,120,qs),
(334,150,o),
(370,206,o),
(426,252,o),
(490,278,o),
(520,278,qs),
(542,278,o),
(566,264,o),
(582,252,q),
(586,248,o),
(590,248,q),
(566,218,o),
(556,202,qs),
(542,176,o)
);
},
{
closed = 1;
nodes = (
(722,268,qs),
(724,284,o),
(700,308,o),
(680,308,qs),
(662,308,o),
(630,288,o),
(618,276,q),
(602,296,o),
(540,332,o),
(504,332,qs),
(462,332,o),
(384,300,o),
(318,244,o),
(270,170,o),
(262,130,qs),
(250,74,o),
(326,-8,o),
(388,-8,qs),
(414,-8,o),
(464,12,o),
(486,24,qs),
(512,36,o),
(534,54,q),
(544,24,o),
(618,-6,o),
(646,-6,qs),
(684,-6,o),
(762,28,o),
(834,74,o),
(892,120,o),
(906,134,qs),
(960,184,o),
(1006,308,o),
(1000,364,qs),
(996,412,o),
(934,494,o),
(900,520,qs),
(862,548,o),
(772,580,o),
(692,580,qs),
(570,580,o),
(350,476,o),
(260,396,qs),
(230,370,o),
(160,292,o),
(100,202,o),
(60,100,o),
(60,46,qs),
(60,-18,o),
(122,-118,o),
(224,-186,o),
(356,-222,o),
(422,-222,qs),
(456,-222,o),
(544,-212,o),
(636,-194,o),
(722,-170,o),
(752,-154,qs),
(772,-144,o),
(760,-122,o),
(724,-128,qs),
(710,-130,o),
(656,-144,o),
(590,-160,o),
(516,-172,o),
(480,-174,qs),
(424,-176,o),
(316,-160,o),
(226,-124,o),
(160,-68,o),
(146,-30,qs),
(128,18,o),
(138,118,o),
(178,212,o),
(242,300,o),
(280,336,qs),
(320,374,o),
(410,444,o),
(510,498,o),
(618,532,o),
(674,532,qs),
(790,532,o),
(864,482,qs),
(946,428,o),
(944,346,qs),
(942,308,o),
(900,210,o),
(846,164,qs),
(782,112,o),
(688,48,o),
(650,48,qs),
(618,50,o),
(586,82,o),
(590,92,q),
(592,102,o),
(652,158,o),
(674,182,q),
(716,236,o)
);
}
);
userData = {
assembly = "PUSHW[ ]	/* 1 value pushed */
0
CALL[ ]	/* CallFunction */
SVTCA[0]	/* SetFreedomAndProjectionVectorToAxis */
PUSHW[ ]	/* 1 value pushed */
67
MDAP[1]	/* MoveDirectAbsPt */
PUSHW[ ]	/* 1 value pushed */
116
MDAP[1]	/* MoveDirectAbsPt */
PUSHW[ ]	/* 1 value pushed */
0
RCVT[ ]	/* ReadCVT */
IF[ ]	/* If */
PUSHW[ ]	/* 1 value pushed */
94
MDAP[1]	/* MoveDirectAbsPt */
ELSE[ ]	/* Else */
PUSHW[ ]	/* 2 values pushed */
94 5
MIAP[0]	/* MoveIndirectAbsPt */
EIF[ ]	/* EndIf */
PUSHW[ ]	/* 1 value pushed */
0
RCVT[ ]	/* ReadCVT */
IF[ ]	/* If */
PUSHW[ ]	/* 1 value pushed */
102
MDAP[1]	/* MoveDirectAbsPt */
ELSE[ ]	/* Else */
PUSHW[ ]	/* 2 values pushed */
102 5
MIAP[0]	/* MoveIndirectAbsPt */
EIF[ ]	/* EndIf */
PUSHW[ ]	/* 3 values pushed */
80 39 3
CALL[ ]	/* CallFunction */
PUSHW[ ]	/* 3 values pushed */
110 7 3
CALL[ ]	/* CallFunction */
PUSHW[ ]	/* 1 value pushed */
102
SRP0[ ]	/* SetRefPoint0 */
PUSHW[ ]	/* 1 value pushed */
15
MDRP[11100]	/* MoveDirectRelPt */
NPUSHW[ ]	/* 27 values pushed */
7 15 23 15 39 15 55 15 71 15 87 15 103 15 119 15 135 15 151 15 167 15 183 15 199 15 13
DELTAP1[ ]	/* DeltaExceptionP1 */
NPUSHW[ ]	/* 5 values pushed */
214 15 230 15 2
DELTAP1[ ]	/* DeltaExceptionP1 */
PUSHW[ ]	/* 1 value pushed */
29
MDRP[10000]	/* MoveDirectRelPt */
PUSHW[ ]	/* 1 value pushed */
29
MDAP[1]	/* MoveDirectAbsPt */
PUSHW[ ]	/* 3 values pushed */
97 67 116
SRP1[ ]	/* SetRefPoint1 */
SRP2[ ]	/* SetRefPoint2 */
IP[ ]	/* InterpolatePts */
IUP[0]	/* InterpolateUntPts */
IUP[1]	/* InterpolateUntPts */";
};
width = 1061;
}
);
note = at;
unicode = 64;
},
{
glyphname = A;
lastChange = "2025-12-26 05:55:08 +0000";
layers = (
{
layerId = m01;
shapes = (
{
closed = 1;
nodes = (
(125,-20,qs),
(131,-4,o),
(127,36,o),
(133,84,qs),
(137,116,o),
(163,204,o),
(197,298,o),
(237,388,o),
(255,422,qs),
(299,500,o),
(405,638,o),
(517,740,o),
(633,798,o),
(687,798,qs),
(693,798,ls),
(733,798,o),
(815,756,o),
(881,684,o),
(921,582,o),
(919,516,qs),
(917,462,o),
(909,376,o),
(893,300,o),
(867,224,o),
(849,176,qs),
(837,148,o),
(815,94,o),
(793,70,qs),
(779,54,o),
(799,28,o),
(815,28,qs),
(831,28,o),
(861,64,o),
(889,114,o),
(909,162,o),
(913,174,qs),
(931,222,o),
(981,384,o),
(985,496,qs),
(989,556,o),
(959,680,o),
(925,730,qs),
(911,752,o),
(861,798,o),
(797,838,o),
(727,862,o),
(691,862,qs),
(617,862,o),
(485,792,o),
(369,688,o),
(271,562,o),
(235,506,qs),
(197,444,o),
(135,312,o),
(91,188,o),
(67,88,o),
(63,58,qs),
(59,24,o),
(63,-44,o),
(95,-48,qs),
(115,-48,o)
);
},
{
closed = 1;
nodes = (
(809,326,o),
(803,336,o),
(777,338,o),
(761,336,qs),
(739,334,o),
(683,332,o),
(651,332,qs),
(593,332,o),
(479,342,o),
(421,350,qs),
(403,354,o),
(389,334,o),
(387,318,qs),
(387,308,o),
(403,288,o),
(435,282,qs),
(481,272,o),
(545,272,qs),
(597,272,o),
(709,286,o),
(757,302,qs),
(789,312,o)
);
}
);
userData = {
assembly = "PUSHW[ ]	/* 1 value pushed */
0
CALL[ ]	/* CallFunction */
SVTCA[0]	/* SetFreedomAndProjectionVectorToAxis */
PUSHW[ ]	/* 1 value pushed */
13
MDAP[1]	/* MoveDirectAbsPt */
PUSHW[ ]	/* 1 value pushed */
29
MDAP[1]	/* MoveDirectAbsPt */
PUSHW[ ]	/* 3 values pushed */
75 64 3
CALL[ ]	/* CallFunction */
PUSHW[ ]	/* 1 value pushed */
13
SRP0[ ]	/* SetRefPoint0 */
PUSHW[ ]	/* 1 value pushed */
45
MDRP[11100]	/* MoveDirectRelPt */
PUSHW[ ]	/* 1 value pushed */
75
SRP0[ ]	/* SetRefPoint0 */
PUSHW[ ]	/* 1 value pushed */
78
MDRP[10000]	/* MoveDirectRelPt */
PUSHW[ ]	/* 1 value pushed */
78
MDAP[1]	/* MoveDirectAbsPt */
IUP[0]	/* InterpolateUntPts */
IUP[1]	/* InterpolateUntPts */";
};
width = 1046;
}
);
note = A;
unicode = 65;
},
{
glyphname = B;
lastChange = "2025-12-26 02:35:02 +0000";
layers = (
{
layerId = m01;
shapes = (
{
closed = 1;
nodes = (
(514,792,o),
(416,738,o),
(360,680,o),
(356,662,qs),
(350,628,o),
(376,628,qs),
(390,628,o),
(400,644,qs),
(408,656,o),
(450,694,o),
(506,732,o),
(576,764,o),
(614,772,qs),
(640,778,o),
(718,786,o),
(758,786,qs),
(790,786,o),
(850,780,o),
(898,762,o),
(926,734,o),
(926,712,qs),
(926,680,o),
(870,610,o),
(790,548,o),
(706,498,o),
(678,486,qs),
(632,466,o),
(550,446,o),
(506,450,q),
(536,502,o),
(592,600,o),
(598,614,qs),
(608,632,o),
(588,662,o),
(572,662,qs),
(558,662,o),
(546,644,qs),
(536,628,o),
(510,572,o),
(490,538,qs),
(474,512,o),
(438,450,o),
(420,418,qs),
(408,396,o),
(380,336,o),
(356,274,o),
(340,220,o),
(340,204,qs),
(340,188,o),
(350,178,qs),
(356,172,o),
(384,174,o),
(388,188,qs),
(404,236,o),
(432,302,o),
(444,330,qs),
(450,346,o),
(476,396,q),
(522,394,o),
(650,370,o),
(706,328,qs),
(746,298,o),
(766,240,o),
(752,190,o),
(710,148,o),
(686,134,qs),
(610,92,o),
(448,42,o),
(360,42,qs),
(316,42,o),
(236,60,o),
(172,86,o),
(130,114,o),
(122,126,qs),
(108,148,o),
(110,186,o),
(90,192,qs),
(74,196,o),
(60,170,o),
(60,154,qs),
(60,136,o),
(96,78,o),
(126,56,qs),
(160,32,o),
(272,-14,o),
(390,-14,qs),
(454,-14,o),
(608,28,o),
(744,100,o),
(834,194,o),
(832,246,qs),
(830,284,o),
(782,344,o),
(718,388,o),
(658,416,o),
(646,418,q),
(684,432,o),
(800,494,o),
(910,574,o),
(988,668,o),
(988,712,qs),
(986,768,o),
(866,842,o),
(738,838,qs),
(652,836,o)
);
}
);
userData = {
assembly = "PUSHW[ ]	/* 1 value pushed */
0
CALL[ ]	/* CallFunction */
SVTCA[0]	/* SetFreedomAndProjectionVectorToAxis */
PUSHW[ ]	/* 1 value pushed */
69
MDAP[1]	/* MoveDirectAbsPt */
PUSHW[ ]	/* 1 value pushed */
100
MDAP[1]	/* MoveDirectAbsPt */
PUSHW[ ]	/* 1 value pushed */
0
RCVT[ ]	/* ReadCVT */
IF[ ]	/* If */
PUSHW[ ]	/* 1 value pushed */
18
MDAP[1]	/* MoveDirectAbsPt */
ELSE[ ]	/* Else */
PUSHW[ ]	/* 2 values pushed */
18 5
MIAP[0]	/* MoveIndirectAbsPt */
EIF[ ]	/* EndIf */
PUSHW[ ]	/* 3 values pushed */
0 88 3
CALL[ ]	/* CallFunction */
PUSHW[ ]	/* 3 values pushed */
96 98 3
CALL[ ]	/* CallFunction */
PUSHW[ ]	/* 3 values pushed */
75 46 3
CALL[ ]	/* CallFunction */
PUSHW[ ]	/* 3 values pushed */
8 46 75
SRP1[ ]	/* SetRefPoint1 */
SRP2[ ]	/* SetRefPoint2 */
IP[ ]	/* InterpolatePts */
PUSHW[ ]	/* 1 value pushed */
18
SRP0[ ]	/* SetRefPoint0 */
PUSHW[ ]	/* 1 value pushed */
35
MDRP[11100]	/* MoveDirectRelPt */
NPUSHW[ ]	/* 27 values pushed */
7 35 23 35 39 35 55 35 71 35 87 35 103 35 119 35 135 35 151 35 167 35 183 35 199 35 13
DELTAP1[ ]	/* DeltaExceptionP1 */
NPUSHW[ ]	/* 5 values pushed */
214 35 230 35 2
DELTAP1[ ]	/* DeltaExceptionP1 */
SVTCA[1]	/* SetFreedomAndProjectionVectorToAxis */
PUSHW[ ]	/* 3 values pushed */
51 56 3
CALL[ ]	/* CallFunction */
PUSHW[ ]	/* 3 values pushed */
3 83 3
CALL[ ]	/* CallFunction */
PUSHW[ ]	/* 3 values pushed */
8 56 3
SRP1[ ]	/* SetRefPoint1 */
SRP2[ ]	/* SetRefPoint2 */
IP[ ]	/* InterpolatePts */
NPUSHW[ ]	/* 27 values pushed */
6 51 22 51 38 51 54 51 70 51 86 51 102 51 118 51 134 51 150 51 166 51 182 51 198 51 13
DELTAP1[ ]	/* DeltaExceptionP1 */
NPUSHW[ ]	/* 5 values pushed */
213 51 229 51 2
DELTAP1[ ]	/* DeltaExceptionP1 */
PUSHW[ ]	/* 3 values pushed */
75 56 3
SRP1[ ]	/* SetRefPoint1 */
SRP2[ ]	/* SetRefPoint2 */
IP[ ]	/* InterpolatePts */
NPUSHW[ ]	/* 5 values pushed */
218 83 234 83 2
DELTAP1[ ]	/* DeltaExceptionP1 */
NPUSHW[ ]	/* 27 values pushed */
9 83 25 83 41 83 57 83 73 83 89 83 105 83 121 83 137 83 153 83 169 83 185 83 201 83 13
DELTAP1[ ]	/* DeltaExceptionP1 */
IUP[0]	/* InterpolateUntPts */
IUP[1]	/* InterpolateUntPts */";
};
width = 1048;
}
);
note = B;
unicode = 66;
},
{
glyphname = C;
lastChange = "2025-12-26 02:35:02 +0000";
layers = (
{
layerId = m01;
shapes = (
{
closed = 1;
nodes = (
(762,98,o),
(712,86,qs),
(704,84,o),
(642,68,o),
(556,52,o),
(456,38,o),
(410,38,qs),
(392,38,o),
(340,42,o),
(286,48,o),
(238,62,o),
(224,70,qs),
(196,86,o),
(148,138,o),
(130,212,o),
(154,310,o),
(198,370,qs),
(284,490,o),
(538,696,o),
(694,756,qs),
(768,784,o),
(868,808,o),
(902,808,qs),
(938,808,o),
(1008,782,o),
(1030,754,qs),
(1040,742,o),
(1058,764,o),
(1054,780,qs),
(1046,802,o),
(1008,830,o),
(962,846,o),
(912,854,o),
(892,854,qs),
(850,854,o),
(732,828,o),
(602,776,o),
(470,706,o),
(412,660,qs),
(362,622,o),
(242,520,o),
(136,400,o),
(64,264,o),
(60,194,qs),
(58,128,o),
(126,46,o),
(228,-2,o),
(350,-18,o),
(400,-18,qs),
(454,-18,o),
(580,4,o),
(708,36,o),
(832,76,o),
(884,96,qs),
(916,108,o),
(924,128,o),
(902,128,qs),
(888,128,o),
(860,122,qs),
(840,118,o)
);
}
);
userData = {
assembly = "PUSHW[ ]	/* 1 value pushed */
0
CALL[ ]	/* CallFunction */
SVTCA[0]	/* SetFreedomAndProjectionVectorToAxis */
PUSHW[ ]	/* 1 value pushed */
0
MDAP[1]	/* MoveDirectAbsPt */
PUSHW[ ]	/* 1 value pushed */
2
MDAP[1]	/* MoveDirectAbsPt */
PUSHW[ ]	/* 1 value pushed */
0
RCVT[ ]	/* ReadCVT */
IF[ ]	/* If */
PUSHW[ ]	/* 1 value pushed */
10
MDAP[1]	/* MoveDirectAbsPt */
ELSE[ ]	/* Else */
PUSHW[ ]	/* 2 values pushed */
10 5
MIAP[0]	/* MoveIndirectAbsPt */
EIF[ ]	/* EndIf */
PUSHW[ ]	/* 3 values pushed */
25 36 3
CALL[ ]	/* CallFunction */
PUSHW[ ]	/* 1 value pushed */
10
SRP0[ ]	/* SetRefPoint0 */
PUSHW[ ]	/* 1 value pushed */
52
MDRP[11100]	/* MoveDirectRelPt */
NPUSHW[ ]	/* 27 values pushed */
7 52 23 52 39 52 55 52 71 52 87 52 103 52 119 52 135 52 151 52 167 52 183 52 199 52 13
DELTAP1[ ]	/* DeltaExceptionP1 */
NPUSHW[ ]	/* 5 values pushed */
214 52 230 52 2
DELTAP1[ ]	/* DeltaExceptionP1 */
IUP[0]	/* InterpolateUntPts */
IUP[1]	/* InterpolateUntPts */";
};
width = 1115;
}
);
note = C;
unicode = 67;
},
{
glyphname = D;
lastChange = "2025-12-26 02:35:02 +0000";
layers = (
{
layerId = m01;
shapes = (
{
closed = 1;
nodes = (
(486,576,o),
(468,504,o),
(452,440,o),
(450,434,qs),
(444,408,o),
(428,338,o),
(420,268,o),
(420,208,o),
(430,192,qs),
(442,172,o),
(454,172,qs),
(470,172,o),
(478,198,qs),
(480,208,o),
(484,290,o),
(490,336,qs),
(494,372,o),
(508,432,o),
(512,448,qs),
(524,506,o),
(562,596,o),
(566,618,qs),
(568,632,o),
(542,646,o),
(526,646,qs),
(508,646,o),
(502,636,q),
(502,634,o)
);
},
{
closed = 1;
nodes = (
(238,546,qs),
(252,546,o),
(270,574,qs),
(286,598,o),
(328,678,o),
(378,712,qs),
(424,746,o),
(528,798,o),
(614,798,qs),
(684,798,o),
(784,754,o),
(854,692,o),
(898,626,o),
(908,608,qs),
(926,572,o),
(958,436,o),
(932,348,qs),
(908,268,o),
(806,148,o),
(670,72,o),
(512,34,o),
(434,34,qs),
(398,34,o),
(306,46,o),
(210,66,o),
(122,94,o),
(92,110,qs),
(80,116,o),
(72,116,qs),
(58,116,o),
(62,90,o),
(82,76,q),
(100,66,o),
(182,34,o),
(290,2,o),
(412,-22,o),
(466,-22,qs),
(666,-22,o),
(810,86,qs),
(920,168,o),
(1004,336,o),
(1006,446,qs),
(1006,490,o),
(982,580,o),
(940,664,o),
(886,734,o),
(856,760,qs),
(794,812,o),
(660,852,o),
(608,852,qs),
(564,852,o),
(466,824,o),
(374,776,o),
(294,712,o),
(268,676,qs),
(260,664,o),
(242,632,o),
(230,596,o),
(224,566,o),
(226,558,qs),
(230,546,o)
);
}
);
userData = {
assembly = "PUSHW[ ]	/* 1 value pushed */
0
CALL[ ]	/* CallFunction */
SVTCA[0]	/* SetFreedomAndProjectionVectorToAxis */
PUSHW[ ]	/* 1 value pushed */
59
MDAP[1]	/* MoveDirectAbsPt */
PUSHW[ ]	/* 1 value pushed */
61
MDAP[1]	/* MoveDirectAbsPt */
PUSHW[ ]	/* 1 value pushed */
0
RCVT[ ]	/* ReadCVT */
IF[ ]	/* If */
PUSHW[ ]	/* 1 value pushed */
51
MDAP[1]	/* MoveDirectAbsPt */
ELSE[ ]	/* Else */
PUSHW[ ]	/* 2 values pushed */
51 5
MIAP[0]	/* MoveIndirectAbsPt */
EIF[ ]	/* EndIf */
PUSHW[ ]	/* 3 values pushed */
38 79 3
CALL[ ]	/* CallFunction */
PUSHW[ ]	/* 1 value pushed */
51
SRP0[ ]	/* SetRefPoint0 */
PUSHW[ ]	/* 1 value pushed */
66
MDRP[11100]	/* MoveDirectRelPt */
NPUSHW[ ]	/* 27 values pushed */
7 66 23 66 39 66 55 66 71 66 87 66 103 66 119 66 135 66 151 66 167 66 183 66 199 66 13
DELTAP1[ ]	/* DeltaExceptionP1 */
NPUSHW[ ]	/* 5 values pushed */
214 66 230 66 2
DELTAP1[ ]	/* DeltaExceptionP1 */
IUP[0]	/* InterpolateUntPts */
IUP[1]	/* InterpolateUntPts */";
};
width = 1066;
}
);
note = D;
unicode = 68;
},
{
glyphname = E;
lastChange = "2025-12-26 02:35:02 +0000";
layers = (
{
layerId = m01;
shapes = (
{
closed = 1;
nodes = (
(920,798,o),
(838,786,o),
(750,776,o),
(712,772,qs),
(674,770,o),
(586,764,o),
(504,754,o),
(442,744,o),
(430,734,q),
(406,718,o),
(406,690,o),
(420,680,q),
(416,676,o),
(404,664,o),
(400,658,qs),
(388,644,o),
(334,576,o),
(270,494,o),
(208,412,o),
(190,382,qs),
(172,354,o),
(122,286,o),
(80,212,o),
(56,134,o),
(62,94,qs),
(76,22,o),
(178,-50,o),
(250,-46,qs),
(302,-44,o),
(442,-16,o),
(588,22,o),
(724,70,o),
(772,90,qs),
(806,102,o),
(796,136,o),
(758,132,qs),
(740,130,o),
(682,114,o),
(618,94,o),
(554,72,o),
(526,66,qs),
(498,58,o),
(424,42,o),
(348,28,o),
(284,20,o),
(266,20,qs),
(228,22,o),
(162,38,o),
(140,72,qs),
(124,98,o),
(134,172,o),
(150,214,qs),
(154,228,o),
(200,302,o),
(234,350,q),
(250,336,o),
(290,342,qs),
(414,360,o),
(642,424,o),
(760,466,qs),
(792,478,o),
(778,516,o),
(762,516,qs),
(752,516,o),
(734,508,o),
(714,502,qs),
(676,490,o),
(584,464,o),
(488,444,o),
(394,426,o),
(356,420,qs),
(340,418,o),
(298,418,o),
(280,414,q),
(284,420,o),
(290,430,o),
(294,436,qs),
(324,476,o),
(384,552,o),
(436,612,o),
(470,654,o),
(476,660,qs),
(484,668,o),
(486,672,q),
(498,676,o),
(526,686,o),
(548,690,qs),
(582,696,o),
(628,702,o),
(658,706,q),
(674,710,o),
(742,722,o),
(764,726,qs),
(866,744,o),
(1002,762,o),
(1030,774,qs),
(1058,786,o),
(1032,816,o),
(1004,810,qs),
(988,808,o)
);
}
);
userData = {
assembly = "PUSHW[ ]	/* 1 value pushed */
0
CALL[ ]	/* CallFunction */
SVTCA[0]	/* SetFreedomAndProjectionVectorToAxis */
PUSHW[ ]	/* 1 value pushed */
63
MDAP[1]	/* MoveDirectAbsPt */
PUSHW[ ]	/* 1 value pushed */
33
MDAP[1]	/* MoveDirectAbsPt */
PUSHW[ ]	/* 1 value pushed */
36
MDAP[1]	/* MoveDirectAbsPt */
PUSHW[ ]	/* 3 values pushed */
53 71 3
CALL[ ]	/* CallFunction */
PUSHW[ ]	/* 3 values pushed */
28 42 3
CALL[ ]	/* CallFunction */
PUSHW[ ]	/* 1 value pushed */
28
SRP0[ ]	/* SetRefPoint0 */
PUSHW[ ]	/* 1 value pushed */
25
MDRP[10000]	/* MoveDirectRelPt */
PUSHW[ ]	/* 1 value pushed */
25
MDAP[1]	/* MoveDirectAbsPt */
IUP[0]	/* InterpolateUntPts */
IUP[1]	/* InterpolateUntPts */";
};
width = 1109;
}
);
note = E;
unicode = 69;
},
{
glyphname = F;
lastChange = "2025-12-26 02:35:02 +0000";
layers = (
{
layerId = m01;
shapes = (
{
closed = 1;
nodes = (
(755,852,o),
(691,824,qs),
(683,820,o),
(639,798,o),
(585,770,o),
(527,738,o),
(501,724,qs),
(481,712,o),
(439,690,o),
(417,678,q),
(413,690,o),
(389,706,o),
(379,706,qs),
(357,706,o),
(357,684,qs),
(357,644,l),
(333,632,o),
(245,578,o),
(155,518,o),
(81,464,o),
(69,448,qs),
(53,428,o),
(77,400,o),
(93,400,qs),
(105,400,o),
(113,408,qs),
(123,418,o),
(183,468,o),
(221,492,qs),
(255,516,o),
(331,560,o),
(353,574,q),
(355,574,o),
(357,576,o),
(359,576,q),
(359,548,o),
(355,488,o),
(349,454,qs),
(345,432,o),
(335,378,o),
(329,344,q),
(321,338,o),
(313,336,q),
(261,308,o),
(175,256,o),
(161,228,q),
(151,212,o),
(169,186,o),
(185,186,qs),
(197,186,o),
(205,194,qs),
(221,208,o),
(277,240,o),
(311,258,q),
(309,246,o),
(305,222,o),
(301,210,q),
(297,190,o),
(283,122,o),
(269,52,o),
(259,-6,o),
(259,-12,q),
(263,-36,o),
(289,-36,qs),
(303,-36,o),
(325,-16,o),
(327,2,qs),
(329,28,o),
(343,100,o),
(359,172,o),
(377,238,o),
(381,256,q),
(385,266,o),
(387,286,o),
(391,296,q),
(445,322,o),
(539,362,o),
(557,372,q),
(593,388,o),
(661,412,o),
(681,422,qs),
(691,428,o),
(715,442,o),
(725,446,qs),
(747,456,o),
(739,492,o),
(703,480,qs),
(687,476,o),
(601,452,o),
(549,436,qs),
(529,430,o),
(449,398,o),
(405,378,q),
(409,406,o),
(417,462,o),
(421,488,qs),
(423,508,o),
(427,582,o),
(425,616,q),
(447,630,o),
(489,654,o),
(509,666,qs),
(531,678,o),
(569,696,o),
(591,708,qs),
(649,742,o),
(733,786,o),
(793,816,o),
(835,832,o),
(849,838,qs),
(863,844,o),
(889,862,o),
(899,880,o),
(891,894,o),
(873,892,qs),
(833,890,o)
);
}
);
userData = {
assembly = "PUSHW[ ]	/* 1 value pushed */
0
CALL[ ]	/* CallFunction */
SVTCA[0]	/* SetFreedomAndProjectionVectorToAxis */
PUSHW[ ]	/* 1 value pushed */
0
RCVT[ ]	/* ReadCVT */
IF[ ]	/* If */
PUSHW[ ]	/* 1 value pushed */
0
MDAP[1]	/* MoveDirectAbsPt */
ELSE[ ]	/* Else */
PUSHW[ ]	/* 2 values pushed */
0 11
MIAP[0]	/* MoveIndirectAbsPt */
EIF[ ]	/* EndIf */
PUSHW[ ]	/* 3 values pushed */
58 66 3
CALL[ ]	/* CallFunction */
PUSHW[ ]	/* 3 values pushed */
34 91 3
CALL[ ]	/* CallFunction */
SVTCA[1]	/* SetFreedomAndProjectionVectorToAxis */
PUSHW[ ]	/* 3 values pushed */
16 80 3
CALL[ ]	/* CallFunction */
PUSHW[ ]	/* 3 values pushed */
48 53 3
CALL[ ]	/* CallFunction */
NPUSHW[ ]	/* 27 values pushed */
6 16 22 16 38 16 54 16 70 16 86 16 102 16 118 16 134 16 150 16 166 16 182 16 198 16 13
DELTAP1[ ]	/* DeltaExceptionP1 */
NPUSHW[ ]	/* 5 values pushed */
213 16 229 16 2
DELTAP1[ ]	/* DeltaExceptionP1 */
PUSHW[ ]	/* 1 value pushed */
16
SRP0[ ]	/* SetRefPoint0 */
PUSHW[ ]	/* 1 value pushed */
19
MDRP[10000]	/* MoveDirectRelPt */
PUSHW[ ]	/* 1 value pushed */
19
MDAP[1]	/* MoveDirectAbsPt */
PUSHW[ ]	/* 3 values pushed */
22 80 16
SRP1[ ]	/* SetRefPoint1 */
SRP2[ ]	/* SetRefPoint2 */
IP[ ]	/* InterpolatePts */
NPUSHW[ ]	/* 27 values pushed */
6 48 22 48 38 48 54 48 70 48 86 48 102 48 118 48 134 48 150 48 166 48 182 48 198 48 13
DELTAP1[ ]	/* DeltaExceptionP1 */
NPUSHW[ ]	/* 5 values pushed */
213 48 229 48 2
DELTAP1[ ]	/* DeltaExceptionP1 */
PUSHW[ ]	/* 3 values pushed */
61 53 48
SRP1[ ]	/* SetRefPoint1 */
SRP2[ ]	/* SetRefPoint2 */
IP[ ]	/* InterpolatePts */
PUSHW[ ]	/* 1 value pushed */
48
SRP0[ ]	/* SetRefPoint0 */
PUSHW[ ]	/* 1 value pushed */
74
MDRP[10000]	/* MoveDirectRelPt */
PUSHW[ ]	/* 1 value pushed */
74
MDAP[1]	/* MoveDirectAbsPt */
PUSHW[ ]	/* 3 values pushed */
83 53 16
SRP1[ ]	/* SetRefPoint1 */
SRP2[ ]	/* SetRefPoint2 */
IP[ ]	/* InterpolatePts */
PUSHW[ ]	/* 1 value pushed */
80
SRP0[ ]	/* SetRefPoint0 */
PUSHW[ ]	/* 1 value pushed */
99
MDRP[10000]	/* MoveDirectRelPt */
PUSHW[ ]	/* 1 value pushed */
99
MDAP[1]	/* MoveDirectAbsPt */
IUP[0]	/* InterpolateUntPts */
IUP[1]	/* InterpolateUntPts */";
};
width = 957;
}
);
note = F;
unicode = 70;
},
{
glyphname = G;
lastChange = "2025-12-26 02:35:02 +0000";
layers = (
{
layerId = m01;
shapes = (
{
closed = 1;
nodes = (
(775,858,qs),
(741,858,o),
(669,848,o),
(633,838,qs),
(565,818,o),
(401,732,o),
(247,620,o),
(121,490,o),
(91,426,qs),
(73,388,o),
(57,314,o),
(61,256,qs),
(65,206,o),
(119,108,o),
(205,30,o),
(315,-20,o),
(377,-20,qs),
(413,-20,o),
(509,0,o),
(599,40,o),
(671,96,o),
(685,134,q),
(697,136,o),
(711,140,qs),
(725,144,o),
(761,148,o),
(783,150,qs),
(827,154,o),
(839,138,q),
(845,132,o),
(841,108,o),
(829,80,o),
(817,54,o),
(813,46,q),
(803,18,o),
(833,-18,o),
(851,-18,qs),
(871,-18,o),
(879,6,qs),
(889,34,o),
(895,70,q),
(905,108,o),
(911,172,o),
(881,192,qs),
(861,206,o),
(811,216,o),
(783,216,qs),
(749,216,o),
(685,208,o),
(657,204,qs),
(633,200,o),
(597,218,o),
(565,220,qs),
(539,220,o),
(521,188,o),
(531,170,qs),
(541,154,o),
(593,138,o),
(601,132,qs),
(607,128,o),
(579,104,o),
(525,74,o),
(451,48,o),
(411,44,qs),
(353,38,o),
(213,96,o),
(169,164,qs),
(149,196,o),
(131,276,o),
(139,358,o),
(169,438,o),
(195,468,qs),
(243,524,o),
(381,642,o),
(539,740,o),
(707,804,o),
(783,804,qs),
(843,804,o),
(949,778,o),
(983,726,qs),
(999,700,o),
(1017,704,qs),
(1027,706,o),
(1033,722,o),
(1033,730,qs),
(1031,752,o),
(971,820,o),
(915,836,qs),
(845,858,o)
);
}
);
userData = {
assembly = "PUSHW[ ]	/* 1 value pushed */
0
CALL[ ]	/* CallFunction */
SVTCA[0]	/* SetFreedomAndProjectionVectorToAxis */
PUSHW[ ]	/* 1 value pushed */
11
MDAP[1]	/* MoveDirectAbsPt */
PUSHW[ ]	/* 1 value pushed */
35
MDAP[1]	/* MoveDirectAbsPt */
PUSHW[ ]	/* 1 value pushed */
41
MDAP[1]	/* MoveDirectAbsPt */
PUSHW[ ]	/* 1 value pushed */
0
RCVT[ ]	/* ReadCVT */
IF[ ]	/* If */
PUSHW[ ]	/* 1 value pushed */
51
MDAP[1]	/* MoveDirectAbsPt */
ELSE[ ]	/* Else */
PUSHW[ ]	/* 2 values pushed */
51 5
MIAP[0]	/* MoveIndirectAbsPt */
EIF[ ]	/* EndIf */
PUSHW[ ]	/* 1 value pushed */
0
RCVT[ ]	/* ReadCVT */
IF[ ]	/* If */
PUSHW[ ]	/* 1 value pushed */
71
MDAP[1]	/* MoveDirectAbsPt */
ELSE[ ]	/* Else */
PUSHW[ ]	/* 2 values pushed */
71 5
MIAP[0]	/* MoveIndirectAbsPt */
EIF[ ]	/* EndIf */
PUSHW[ ]	/* 1 value pushed */
41
SRP0[ ]	/* SetRefPoint0 */
PUSHW[ ]	/* 1 value pushed */
38
MDRP[10000]	/* MoveDirectRelPt */
PUSHW[ ]	/* 1 value pushed */
38
MDAP[1]	/* MoveDirectAbsPt */
PUSHW[ ]	/* 1 value pushed */
41
SRP0[ ]	/* SetRefPoint0 */
PUSHW[ ]	/* 1 value pushed */
61
MDRP[11100]	/* MoveDirectRelPt */
PUSHW[ ]	/* 1 value pushed */
11
SRP0[ ]	/* SetRefPoint0 */
PUSHW[ ]	/* 1 value pushed */
87
MDRP[11100]	/* MoveDirectRelPt */
IUP[0]	/* InterpolateUntPts */
IUP[1]	/* InterpolateUntPts */";
};
width = 1093;
}
);
note = G;
unicode = 71;
},
{
glyphname = H;
lastChange = "2025-12-26 02:35:02 +0000";
layers = (
{
layerId = m01;
shapes = (
{
closed = 1;
nodes = (
(823,716,o),
(797,670,qs),
(785,648,o),
(731,540,o),
(697,474,qs),
(687,454,o),
(671,418,o),
(661,400,q),
(625,402,o),
(515,396,o),
(447,396,qs),
(417,396,o),
(353,396,o),
(291,394,o),
(235,390,o),
(217,388,q),
(233,426,o),
(263,488,o),
(273,510,qs),
(297,564,o),
(337,638,o),
(369,688,o),
(389,716,o),
(389,726,q),
(391,738,o),
(345,760,o),
(331,752,qs),
(325,748,o),
(291,692,o),
(249,610,o),
(207,518,o),
(189,478,qs),
(155,394,o),
(77,212,o),
(61,106,qs),
(57,84,o),
(79,40,o),
(101,30,qs),
(137,12,o),
(143,36,qs),
(145,50,o),
(131,74,o),
(127,84,qs),
(123,98,o),
(135,174,o),
(153,228,qs),
(161,250,o),
(175,292,o),
(185,314,q),
(201,312,o),
(263,316,o),
(337,322,o),
(413,328,o),
(439,328,q),
(491,332,o),
(607,344,o),
(637,352,q),
(597,272,o),
(573,218,qs),
(545,144,o),
(521,52,o),
(525,28,qs),
(529,0,o),
(553,0,qs),
(565,0,o),
(571,12,qs),
(583,32,o),
(605,132,o),
(631,190,qs),
(641,214,o),
(673,284,o),
(705,352,o),
(737,414,o),
(745,430,qs),
(753,446,o),
(783,506,o),
(819,576,o),
(857,646,o),
(873,672,qs),
(903,722,o),
(945,788,o),
(949,798,qs),
(953,808,o),
(927,834,o),
(913,834,qs),
(901,834,o),
(895,826,qs),
(875,804,o)
);
}
);
userData = {
assembly = "PUSHW[ ]	/* 1 value pushed */
0
CALL[ ]	/* CallFunction */
SVTCA[0]	/* SetFreedomAndProjectionVectorToAxis */
PUSHW[ ]	/* 1 value pushed */
0
MDAP[1]	/* MoveDirectAbsPt */
PUSHW[ ]	/* 1 value pushed */
2
MDAP[1]	/* MoveDirectAbsPt */
PUSHW[ ]	/* 1 value pushed */
0
RCVT[ ]	/* ReadCVT */
IF[ ]	/* If */
PUSHW[ ]	/* 1 value pushed */
21
MDAP[1]	/* MoveDirectAbsPt */
ELSE[ ]	/* Else */
PUSHW[ ]	/* 2 values pushed */
21 5
MIAP[0]	/* MoveIndirectAbsPt */
EIF[ ]	/* EndIf */
PUSHW[ ]	/* 1 value pushed */
0
RCVT[ ]	/* ReadCVT */
IF[ ]	/* If */
PUSHW[ ]	/* 1 value pushed */
23
MDAP[1]	/* MoveDirectAbsPt */
ELSE[ ]	/* Else */
PUSHW[ ]	/* 2 values pushed */
23 5
MIAP[0]	/* MoveIndirectAbsPt */
EIF[ ]	/* EndIf */
PUSHW[ ]	/* 3 values pushed */
76 33 3
CALL[ ]	/* CallFunction */
PUSHW[ ]	/* 3 values pushed */
30 33 76
SRP1[ ]	/* SetRefPoint1 */
SRP2[ ]	/* SetRefPoint2 */
IP[ ]	/* InterpolatePts */
PUSHW[ ]	/* 1 value pushed */
33
SRP0[ ]	/* SetRefPoint0 */
PUSHW[ ]	/* 1 value pushed */
38
MDRP[10000]	/* MoveDirectRelPt */
PUSHW[ ]	/* 1 value pushed */
38
MDAP[1]	/* MoveDirectAbsPt */
PUSHW[ ]	/* 1 value pushed */
76
SRP0[ ]	/* SetRefPoint0 */
PUSHW[ ]	/* 1 value pushed */
71
MDRP[10000]	/* MoveDirectRelPt */
PUSHW[ ]	/* 1 value pushed */
71
MDAP[1]	/* MoveDirectAbsPt */
PUSHW[ ]	/* 1 value pushed */
76
SRP0[ ]	/* SetRefPoint0 */
PUSHW[ ]	/* 1 value pushed */
79
MDRP[10000]	/* MoveDirectRelPt */
PUSHW[ ]	/* 1 value pushed */
79
MDAP[1]	/* MoveDirectAbsPt */
SVTCA[1]	/* SetFreedomAndProjectionVectorToAxis */
PUSHW[ ]	/* 3 values pushed */
44 52 3
CALL[ ]	/* CallFunction */
NPUSHW[ ]	/* 27 values pushed */
6 44 22 44 38 44 54 44 70 44 86 44 102 44 118 44 134 44 150 44 166 44 182 44 198 44 13
DELTAP1[ ]	/* DeltaExceptionP1 */
NPUSHW[ ]	/* 5 values pushed */
213 44 229 44 2
DELTAP1[ ]	/* DeltaExceptionP1 */
IUP[0]	/* InterpolateUntPts */
IUP[1]	/* InterpolateUntPts */";
};
width = 1010;
}
);
note = H;
unicode = 72;
},
{
glyphname = I;
lastChange = "2025-12-26 02:35:02 +0000";
layers = (
{
layerId = m01;
shapes = (
{
closed = 1;
nodes = (
(160,472,o),
(132,388,qs),
(120,352,o),
(94,256,o),
(72,158,o),
(60,72,o),
(60,48,qs),
(60,32,o),
(66,0,o),
(74,-6,q),
(84,-16,o),
(112,-16,o),
(114,-6,q),
(118,4,o),
(116,22,o),
(118,36,qs),
(134,158,o),
(204,398,o),
(244,514,qs),
(260,558,o),
(290,658,o),
(314,750,o),
(328,824,o),
(324,844,qs),
(322,854,o),
(304,860,o),
(292,860,qs),
(278,860,o),
(254,850,o),
(256,838,qs),
(260,818,o),
(252,750,o),
(238,704,qs),
(216,632,o)
);
}
);
userData = {
assembly = "PUSHW[ ]	/* 1 value pushed */
0
CALL[ ]	/* CallFunction */
SVTCA[0]	/* SetFreedomAndProjectionVectorToAxis */
PUSHW[ ]	/* 1 value pushed */
6
MDAP[1]	/* MoveDirectAbsPt */
IUP[0]	/* InterpolateUntPts */
IUP[1]	/* InterpolateUntPts */";
};
width = 385;
}
);
note = I;
unicode = 73;
},
{
glyphname = J;
lastChange = "2025-12-26 02:35:02 +0000";
layers = (
{
layerId = m01;
shapes = (
{
closed = 1;
nodes = (
(244,-366,o),
(218,-382,qs),
(210,-386,o),
(182,-376,o),
(154,-348,o),
(132,-308,o),
(132,-282,qs),
(132,-248,o),
(166,-198,o),
(200,-174,qs),
(232,-152,o),
(310,-100,o),
(374,-72,qs),
(394,-64,o),
(402,-60,q),
(350,-184,o),
(314,-254,qs),
(294,-288,o)
);
},
{
closed = 1;
nodes = (
(894,834,o),
(846,812,qs),
(804,794,o),
(706,756,o),
(670,740,qs),
(604,712,o),
(434,656,o),
(350,658,qs),
(326,658,o),
(298,668,o),
(280,680,o),
(268,688,o),
(260,688,qs),
(252,688,o),
(242,682,qs),
(228,674,o),
(238,634,o),
(256,620,qs),
(284,598,o),
(344,586,o),
(390,590,qs),
(444,594,o),
(582,636,o),
(644,658,qs),
(718,686,o),
(792,720,q),
(702,588,o),
(538,316,o),
(486,164,qs),
(474,128,o),
(450,60,o),
(438,30,q),
(416,20,o),
(380,8,o),
(366,0,qs),
(328,-18,o),
(222,-70,o),
(126,-138,o),
(60,-222,o),
(60,-270,qs),
(60,-298,o),
(88,-358,o),
(134,-408,o),
(190,-442,o),
(218,-442,qs),
(256,-442,o),
(340,-342,o),
(414,-204,o),
(476,-66,o),
(490,-26,q),
(512,-16,o),
(554,-2,o),
(578,8,qs),
(636,28,o),
(796,84,o),
(860,98,qs),
(902,108,o),
(890,136,o),
(846,130,qs),
(676,108,o),
(522,56,q),
(532,86,o),
(554,146,o),
(564,174,qs),
(588,244,o),
(660,396,o),
(746,544,o),
(846,680,o),
(896,734,qs),
(940,780,o),
(1018,832,o),
(1020,838,qs),
(1026,852,o),
(982,874,o),
(966,874,q),
(952,870,o)
);
}
);
userData = {
assembly = "PUSHW[ ]	/* 1 value pushed */
0
CALL[ ]	/* CallFunction */
SVTCA[0]	/* SetFreedomAndProjectionVectorToAxis */
PUSHW[ ]	/* 1 value pushed */
48
MDAP[1]	/* MoveDirectAbsPt */
PUSHW[ ]	/* 1 value pushed */
18
MDAP[1]	/* MoveDirectAbsPt */
PUSHW[ ]	/* 1 value pushed */
78
MDAP[1]	/* MoveDirectAbsPt */
PUSHW[ ]	/* 1 value pushed */
80
MDAP[1]	/* MoveDirectAbsPt */
PUSHW[ ]	/* 1 value pushed */
69
MDAP[1]	/* MoveDirectAbsPt */
PUSHW[ ]	/* 1 value pushed */
85
MDAP[1]	/* MoveDirectAbsPt */
PUSHW[ ]	/* 3 values pushed */
32 48 18
SRP1[ ]	/* SetRefPoint1 */
SRP2[ ]	/* SetRefPoint2 */
IP[ ]	/* InterpolatePts */
PUSHW[ ]	/* 3 values pushed */
67 48 18
SRP1[ ]	/* SetRefPoint1 */
SRP2[ ]	/* SetRefPoint2 */
IP[ ]	/* InterpolatePts */
SVTCA[1]	/* SetFreedomAndProjectionVectorToAxis */
PUSHW[ ]	/* 3 values pushed */
10 53 3
CALL[ ]	/* CallFunction */
NPUSHW[ ]	/* 27 values pushed */
6 10 22 10 38 10 54 10 70 10 86 10 102 10 118 10 134 10 150 10 166 10 182 10 198 10 13
DELTAP1[ ]	/* DeltaExceptionP1 */
NPUSHW[ ]	/* 5 values pushed */
213 10 229 10 2
DELTAP1[ ]	/* DeltaExceptionP1 */
IUP[0]	/* InterpolateUntPts */
IUP[1]	/* InterpolateUntPts */";
};
width = 1081;
}
);
note = J;
unicode = 74;
},
{
glyphname = K;
lastChange = "2025-12-26 02:35:02 +0000";
layers = (
{
layerId = m01;
shapes = (
{
closed = 1;
nodes = (
(995,756,o),
(931,710,qs),
(865,662,o),
(725,560,o),
(653,502,qs),
(617,472,o),
(493,360,o),
(433,302,qs),
(361,236,o),
(283,162,qs),
(253,132,o),
(227,110,qs),
(205,92,o),
(161,66,o),
(151,72,qs),
(141,78,o),
(133,120,o),
(133,184,o),
(143,264,o),
(149,306,qs),
(155,348,o),
(175,446,o),
(195,542,o),
(213,622,o),
(217,646,qs),
(227,694,o),
(237,778,o),
(233,806,qs),
(231,822,o),
(213,836,o),
(201,836,qs),
(185,836,o),
(157,808,o),
(157,780,qs),
(157,756,o),
(153,692,o),
(143,626,o),
(133,562,o),
(127,536,qs),
(121,506,o),
(101,404,o),
(83,296,o),
(67,204,o),
(65,188,qs),
(57,118,o),
(69,38,o),
(99,2,o),
(135,-6,o),
(151,-4,qs),
(177,-2,o),
(241,38,o),
(307,96,o),
(367,154,o),
(387,174,qs),
(401,186,o),
(439,220,o),
(461,240,q),
(469,216,o),
(479,196,qs),
(491,170,o),
(517,126,o),
(529,104,q),
(555,66,o),
(609,10,o),
(633,-4,qs),
(653,-14,o),
(669,-10,o),
(671,6,o),
(661,28,o),
(655,34,qs),
(639,50,o),
(607,106,o),
(591,134,qs),
(569,174,o),
(543,244,o),
(509,270,q),
(505,272,o),
(501,276,q),
(549,322,o),
(651,414,o),
(687,444,qs),
(707,462,o),
(781,522,o),
(873,594,o),
(973,668,o),
(1061,734,o),
(1131,784,o),
(1147,792,qs),
(1153,796,o),
(1163,814,o),
(1159,828,o),
(1137,830,o),
(1111,818,qs),
(1093,808,o)
);
}
);
userData = {
assembly = "PUSHW[ ]	/* 1 value pushed */
0
CALL[ ]	/* CallFunction */
SVTCA[0]	/* SetFreedomAndProjectionVectorToAxis */
PUSHW[ ]	/* 1 value pushed */
62
MDAP[1]	/* MoveDirectAbsPt */
PUSHW[ ]	/* 1 value pushed */
0
RCVT[ ]	/* ReadCVT */
IF[ ]	/* If */
PUSHW[ ]	/* 1 value pushed */
28
MDAP[1]	/* MoveDirectAbsPt */
ELSE[ ]	/* Else */
PUSHW[ ]	/* 2 values pushed */
28 5
MIAP[0]	/* MoveIndirectAbsPt */
EIF[ ]	/* EndIf */
PUSHW[ ]	/* 1 value pushed */
0
RCVT[ ]	/* ReadCVT */
IF[ ]	/* If */
PUSHW[ ]	/* 1 value pushed */
44
MDAP[1]	/* MoveDirectAbsPt */
ELSE[ ]	/* Else */
PUSHW[ ]	/* 2 values pushed */
44 5
MIAP[0]	/* MoveIndirectAbsPt */
EIF[ ]	/* EndIf */
PUSHW[ ]	/* 3 values pushed */
36 28 62
SRP1[ ]	/* SetRefPoint1 */
SRP2[ ]	/* SetRefPoint2 */
IP[ ]	/* InterpolatePts */
SVTCA[1]	/* SetFreedomAndProjectionVectorToAxis */
PUSHW[ ]	/* 3 values pushed */
65 59 3
CALL[ ]	/* CallFunction */
NPUSHW[ ]	/* 27 values pushed */
6 65 22 65 38 65 54 65 70 65 86 65 102 65 118 65 134 65 150 65 166 65 182 65 198 65 13
DELTAP1[ ]	/* DeltaExceptionP1 */
NPUSHW[ ]	/* 5 values pushed */
213 65 229 65 2
DELTAP1[ ]	/* DeltaExceptionP1 */
PUSHW[ ]	/* 1 value pushed */
59
SRP0[ ]	/* SetRefPoint0 */
PUSHW[ ]	/* 1 value pushed */
73
MDRP[10000]	/* MoveDirectRelPt */
PUSHW[ ]	/* 1 value pushed */
73
MDAP[1]	/* MoveDirectAbsPt */
IUP[0]	/* InterpolateUntPts */
IUP[1]	/* InterpolateUntPts */";
};
width = 1222;
}
);
note = K;
unicode = 75;
},
{
glyphname = L;
lastChange = "2025-12-26 02:35:02 +0000";
layers = (
{
layerId = m01;
shapes = (
{
closed = 1;
nodes = (
(272,556,o),
(228,486,o),
(186,418,o),
(170,394,qs),
(158,374,o),
(118,306,o),
(82,230,o),
(58,156,o),
(60,128,qs),
(64,52,o),
(158,-16,o),
(224,-16,qs),
(290,-16,o),
(380,14,o),
(428,30,qs),
(454,40,o),
(532,70,o),
(616,100,o),
(694,128,o),
(718,136,qs),
(748,146,o),
(740,170,o),
(702,166,qs),
(680,164,o),
(618,148,o),
(550,130,o),
(482,110,o),
(456,102,qs),
(406,86,o),
(294,60,o),
(242,60,qs),
(196,60,o),
(142,82,o),
(138,134,qs),
(136,174,o),
(176,266,o),
(210,326,qs),
(232,364,o),
(302,490,o),
(382,620,o),
(468,732,o),
(504,756,qs),
(526,772,o),
(546,780,o),
(550,794,qs),
(554,810,o),
(534,834,o),
(516,834,qs),
(496,834,o),
(438,784,o),
(382,718,o),
(336,654,o),
(326,638,qs),
(312,618,o)
);
}
);
userData = {
assembly = "PUSHW[ ]	/* 1 value pushed */
0
CALL[ ]	/* CallFunction */
SVTCA[0]	/* SetFreedomAndProjectionVectorToAxis */
PUSHW[ ]	/* 1 value pushed */
5
MDAP[1]	/* MoveDirectAbsPt */
PUSHW[ ]	/* 1 value pushed */
30
MDAP[1]	/* MoveDirectAbsPt */
PUSHW[ ]	/* 1 value pushed */
0
RCVT[ ]	/* ReadCVT */
IF[ ]	/* If */
PUSHW[ ]	/* 1 value pushed */
41
MDAP[1]	/* MoveDirectAbsPt */
ELSE[ ]	/* Else */
PUSHW[ ]	/* 2 values pushed */
41 5
MIAP[0]	/* MoveIndirectAbsPt */
EIF[ ]	/* EndIf */
PUSHW[ ]	/* 1 value pushed */
22
MDRP[11100]	/* MoveDirectRelPt */
NPUSHW[ ]	/* 27 values pushed */
7 22 23 22 39 22 55 22 71 22 87 22 103 22 119 22 135 22 151 22 167 22 183 22 199 22 13
DELTAP1[ ]	/* DeltaExceptionP1 */
NPUSHW[ ]	/* 5 values pushed */
214 22 230 22 2
DELTAP1[ ]	/* DeltaExceptionP1 */
SVTCA[1]	/* SetFreedomAndProjectionVectorToAxis */
PUSHW[ ]	/* 3 values pushed */
19 44 3
CALL[ ]	/* CallFunction */
NPUSHW[ ]	/* 27 values pushed */
6 19 22 19 38 19 54 19 70 19 86 19 102 19 118 19 134 19 150 19 166 19 182 19 198 19 13
DELTAP1[ ]	/* DeltaExceptionP1 */
NPUSHW[ ]	/* 5 values pushed */
213 19 229 19 2
DELTAP1[ ]	/* DeltaExceptionP1 */
IUP[0]	/* InterpolateUntPts */
IUP[1]	/* InterpolateUntPts */";
};
width = 804;
}
);
note = L;
unicode = 76;
},
{
glyphname = M;
lastChange = "2025-12-26 02:35:02 +0000";
layers = (
{
layerId = m01;
shapes = (
{
closed = 1;
nodes = (
(226,-2,o),
(300,56,o),
(378,122,o),
(410,148,qs),
(442,172,o),
(552,270,o),
(668,374,o),
(774,472,o),
(800,496,q),
(784,474,o),
(722,384,o),
(662,286,o),
(614,196,o),
(612,172,qs),
(608,126,o),
(652,70,o),
(704,68,qs),
(734,66,o),
(840,130,o),
(952,210,o),
(1046,288,o),
(1062,300,q),
(1056,288,o),
(1032,244,o),
(1010,190,o),
(992,134,o),
(992,112,qs),
(992,68,o),
(1064,0,o),
(1112,0,qs),
(1146,0,o),
(1206,24,o),
(1228,52,q),
(1234,62,o),
(1234,84,o),
(1212,82,qs),
(1190,80,o),
(1156,62,o),
(1128,62,q),
(1108,60,o),
(1076,84,o),
(1072,124,qs),
(1070,142,o),
(1088,196,o),
(1118,260,o),
(1156,326,o),
(1174,356,qs),
(1192,384,o),
(1230,436,o),
(1240,450,qs),
(1254,466,o),
(1316,530,o),
(1348,570,qs),
(1364,588,o),
(1406,634,o),
(1448,686,o),
(1484,736,o),
(1492,756,qs),
(1500,772,o),
(1478,790,o),
(1462,790,qs),
(1438,790,o),
(1352,708,o),
(1262,602,o),
(1186,498,o),
(1172,476,q),
(1156,456,o),
(1084,388,o),
(990,312,o),
(888,232,o),
(794,168,o),
(724,128,o),
(708,128,qs),
(698,128,o),
(696,132,q),
(686,144,o),
(688,180,o),
(702,224,o),
(724,266,o),
(734,284,qs),
(744,300,o),
(790,372,o),
(848,460,o),
(908,548,o),
(932,578,qs),
(962,618,o),
(1030,692,o),
(1088,752,o),
(1130,794,o),
(1132,804,qs),
(1136,816,o),
(1114,838,o),
(1098,838,qs),
(1088,838,o),
(1078,832,qs),
(1070,828,o),
(1036,798,o),
(994,758,o),
(946,710,o),
(922,686,qs),
(888,652,o),
(762,532,o),
(608,390,o),
(440,242,o),
(288,120,o),
(168,36,o),
(136,28,qs),
(120,24,o),
(94,42,o),
(82,38,qs),
(66,34,o),
(56,4,o),
(70,-10,qs),
(86,-24,o),
(114,-42,o),
(144,-42,qs),
(162,-42,o)
);
}
);
userData = {
assembly = "PUSHW[ ]	/* 1 value pushed */
0
CALL[ ]	/* CallFunction */
SVTCA[0]	/* SetFreedomAndProjectionVectorToAxis */
PUSHW[ ]	/* 1 value pushed */
21
MDAP[1]	/* MoveDirectAbsPt */
PUSHW[ ]	/* 1 value pushed */
23
MDAP[1]	/* MoveDirectAbsPt */
PUSHW[ ]	/* 1 value pushed */
0
RCVT[ ]	/* ReadCVT */
IF[ ]	/* If */
PUSHW[ ]	/* 1 value pushed */
3
MDAP[1]	/* MoveDirectAbsPt */
ELSE[ ]	/* Else */
PUSHW[ ]	/* 2 values pushed */
3 5
MIAP[0]	/* MoveIndirectAbsPt */
EIF[ ]	/* EndIf */
PUSHW[ ]	/* 1 value pushed */
0
RCVT[ ]	/* ReadCVT */
IF[ ]	/* If */
PUSHW[ ]	/* 1 value pushed */
86
MDAP[1]	/* MoveDirectAbsPt */
ELSE[ ]	/* Else */
PUSHW[ ]	/* 2 values pushed */
86 5
MIAP[0]	/* MoveIndirectAbsPt */
EIF[ ]	/* EndIf */
PUSHW[ ]	/* 3 values pushed */
9 0 3
CALL[ ]	/* CallFunction */
PUSHW[ ]	/* 1 value pushed */
86
SRP0[ ]	/* SetRefPoint0 */
PUSHW[ ]	/* 1 value pushed */
77
MDRP[11100]	/* MoveDirectRelPt */
NPUSHW[ ]	/* 27 values pushed */
7 77 23 77 39 77 55 77 71 77 87 77 103 77 119 77 135 77 151 77 167 77 183 77 199 77 13
DELTAP1[ ]	/* DeltaExceptionP1 */
NPUSHW[ ]	/* 5 values pushed */
214 77 230 77 2
DELTAP1[ ]	/* DeltaExceptionP1 */
PUSHW[ ]	/* 1 value pushed */
99
MDRP[10000]	/* MoveDirectRelPt */
PUSHW[ ]	/* 1 value pushed */
99
MDAP[1]	/* MoveDirectAbsPt */
PUSHW[ ]	/* 1 value pushed */
43
MDRP[11100]	/* MoveDirectRelPt */
PUSHW[ ]	/* 1 value pushed */
99
SRP0[ ]	/* SetRefPoint0 */
PUSHW[ ]	/* 1 value pushed */
80
MDRP[10000]	/* MoveDirectRelPt */
PUSHW[ ]	/* 1 value pushed */
80
MDAP[1]	/* MoveDirectAbsPt */
PUSHW[ ]	/* 3 values pushed */
94 3 23
SRP1[ ]	/* SetRefPoint1 */
SRP2[ ]	/* SetRefPoint2 */
IP[ ]	/* InterpolatePts */
PUSHW[ ]	/* 3 values pushed */
107 3 23
SRP1[ ]	/* SetRefPoint1 */
SRP2[ ]	/* SetRefPoint2 */
IP[ ]	/* InterpolatePts */
SVTCA[1]	/* SetFreedomAndProjectionVectorToAxis */
PUSHW[ ]	/* 3 values pushed */
74 89 3
CALL[ ]	/* CallFunction */
NPUSHW[ ]	/* 5 values pushed */
218 89 234 89 2
DELTAP1[ ]	/* DeltaExceptionP1 */
NPUSHW[ ]	/* 27 values pushed */
9 89 25 89 41 89 57 89 73 89 89 89 105 89 121 89 137 89 153 89 169 89 185 89 201 89 13
DELTAP1[ ]	/* DeltaExceptionP1 */
PUSHW[ ]	/* 3 values pushed */
94 89 74
SRP1[ ]	/* SetRefPoint1 */
SRP2[ ]	/* SetRefPoint2 */
IP[ ]	/* InterpolatePts */
IUP[0]	/* InterpolateUntPts */
IUP[1]	/* InterpolateUntPts */";
};
width = 1555;
}
);
note = M;
unicode = 77;
},
{
glyphname = N;
lastChange = "2025-12-26 02:35:02 +0000";
layers = (
{
layerId = m01;
shapes = (
{
closed = 1;
nodes = (
(139,92,o),
(161,154,qs),
(181,208,o),
(239,338,o),
(301,460,o),
(355,560,o),
(369,584,qs),
(383,604,o),
(421,668,o),
(461,726,o),
(495,768,o),
(503,768,q),
(507,764,o),
(499,714,o),
(485,646,o),
(469,568,o),
(463,536,qs),
(457,512,o),
(441,426,o),
(427,320,o),
(417,210,o),
(419,162,qs),
(425,36,o),
(465,14,qs),
(477,8,o),
(489,8,qs),
(533,8,o),
(551,66,qs),
(591,180,o),
(741,404,o),
(931,606,o),
(1143,774,o),
(1245,834,qs),
(1317,874,o),
(1307,894,qs),
(1305,898,o),
(1295,898,qs),
(1285,898,o),
(1249,886,o),
(1233,880,qs),
(1135,842,o),
(927,694,o),
(737,512,o),
(581,310,o),
(537,220,qs),
(519,182,o),
(497,130,o),
(489,130,q),
(489,130,o),
(487,132,q),
(481,142,o),
(481,208,o),
(487,298,o),
(499,398,o),
(505,442,qs),
(511,480,o),
(529,576,o),
(547,666,o),
(561,734,o),
(563,742,qs),
(569,770,o),
(575,836,o),
(561,846,qs),
(551,854,o),
(527,854,qs),
(511,854,o),
(475,842,o),
(465,830,qs),
(455,820,o),
(415,760,o),
(369,688,o),
(323,612,o),
(307,586,qs),
(277,536,o),
(209,416,o),
(145,290,o),
(91,164,o),
(75,106,qs),
(65,72,o),
(57,12,o),
(67,-2,q),
(77,-12,o),
(89,-12,qs),
(115,-12,o),
(125,8,qs),
(133,22,o)
);
}
);
userData = {
assembly = "PUSHW[ ]	/* 1 value pushed */
0
CALL[ ]	/* CallFunction */
SVTCA[0]	/* SetFreedomAndProjectionVectorToAxis */
PUSHW[ ]	/* 1 value pushed */
17
MDAP[1]	/* MoveDirectAbsPt */
PUSHW[ ]	/* 1 value pushed */
22
MDAP[1]	/* MoveDirectAbsPt */
PUSHW[ ]	/* 1 value pushed */
52
MDAP[1]	/* MoveDirectAbsPt */
PUSHW[ ]	/* 1 value pushed */
0
RCVT[ ]	/* ReadCVT */
IF[ ]	/* If */
PUSHW[ ]	/* 1 value pushed */
2
MDAP[1]	/* MoveDirectAbsPt */
ELSE[ ]	/* Else */
PUSHW[ ]	/* 2 values pushed */
2 5
MIAP[0]	/* MoveIndirectAbsPt */
EIF[ ]	/* EndIf */
PUSHW[ ]	/* 1 value pushed */
0
RCVT[ ]	/* ReadCVT */
IF[ ]	/* If */
PUSHW[ ]	/* 1 value pushed */
4
MDAP[1]	/* MoveDirectAbsPt */
ELSE[ ]	/* Else */
PUSHW[ ]	/* 2 values pushed */
4 5
MIAP[0]	/* MoveIndirectAbsPt */
EIF[ ]	/* EndIf */
PUSHW[ ]	/* 3 values pushed */
48 45 3
CALL[ ]	/* CallFunction */
PUSHW[ ]	/* 1 value pushed */
52
SRP0[ ]	/* SetRefPoint0 */
PUSHW[ ]	/* 1 value pushed */
20
MDRP[11100]	/* MoveDirectRelPt */
PUSHW[ ]	/* 1 value pushed */
2
SRP0[ ]	/* SetRefPoint0 */
PUSHW[ ]	/* 1 value pushed */
59
MDRP[11100]	/* MoveDirectRelPt */
NPUSHW[ ]	/* 27 values pushed */
7 59 23 59 39 59 55 59 71 59 87 59 103 59 119 59 135 59 151 59 167 59 183 59 199 59 13
DELTAP1[ ]	/* DeltaExceptionP1 */
NPUSHW[ ]	/* 5 values pushed */
214 59 230 59 2
DELTAP1[ ]	/* DeltaExceptionP1 */
PUSHW[ ]	/* 1 value pushed */
37
MDRP[11100]	/* MoveDirectRelPt */
PUSHW[ ]	/* 1 value pushed */
20
SRP0[ ]	/* SetRefPoint0 */
PUSHW[ ]	/* 1 value pushed */
73
MDRP[11100]	/* MoveDirectRelPt */
IUP[0]	/* InterpolateUntPts */
IUP[1]	/* InterpolateUntPts */";
};
width = 1368;
}
);
note = N;
unicode = 78;
},
{
glyphname = O;
lastChange = "2025-12-26 02:35:02 +0000";
layers = (
{
layerId = m01;
shapes = (
{
closed = 1;
nodes = (
(1044,724,o),
(938,792,o),
(814,828,o),
(756,828,qs),
(740,828,o),
(714,826,o),
(700,824,q),
(696,834,o),
(662,840,o),
(652,840,qs),
(594,840,o),
(412,778,o),
(316,702,qs),
(276,670,o),
(192,592,o),
(122,496,o),
(72,386,o),
(62,320,qs),
(48,204,o),
(124,106,qs),
(146,76,o),
(208,36,o),
(280,12,o),
(354,0,o),
(390,0,qs),
(492,0,o),
(690,102,o),
(816,180,qs),
(886,224,o),
(1000,322,o),
(1080,424,o),
(1122,520,o),
(1120,562,qs),
(1116,626,o)
);
},
{
closed = 1;
nodes = (
(434,716,o),
(506,744,q),
(496,734,o),
(486,716,o),
(490,706,q),
(494,700,o),
(504,700,qs),
(512,700,o),
(536,704,o),
(552,712,qs),
(616,740,o),
(734,768,o),
(804,768,qs),
(846,768,o),
(934,734,o),
(1006,674,o),
(1052,596,o),
(1054,554,qs),
(1056,502,o),
(986,400,o),
(888,310,o),
(782,236,o),
(746,212,qs),
(722,196,o),
(636,146,o),
(534,100,o),
(422,68,o),
(372,68,qs),
(364,68,ls),
(244,72,o),
(132,208,o),
(134,302,qs),
(136,356,o),
(194,502,o),
(264,572,qs),
(318,624,o)
);
}
);
userData = {
assembly = "PUSHW[ ]	/* 1 value pushed */
0
CALL[ ]	/* CallFunction */
SVTCA[0]	/* SetFreedomAndProjectionVectorToAxis */
PUSHW[ ]	/* 1 value pushed */
0
RCVT[ ]	/* ReadCVT */
IF[ ]	/* If */
PUSHW[ ]	/* 1 value pushed */
8
MDAP[1]	/* MoveDirectAbsPt */
ELSE[ ]	/* Else */
PUSHW[ ]	/* 2 values pushed */
8 5
MIAP[0]	/* MoveIndirectAbsPt */
EIF[ ]	/* EndIf */
PUSHW[ ]	/* 3 values pushed */
23 56 3
CALL[ ]	/* CallFunction */
PUSHW[ ]	/* 1 value pushed */
23
SRP0[ ]	/* SetRefPoint0 */
PUSHW[ ]	/* 1 value pushed */
29
MDRP[10000]	/* MoveDirectRelPt */
PUSHW[ ]	/* 1 value pushed */
29
MDAP[1]	/* MoveDirectAbsPt */
PUSHW[ ]	/* 1 value pushed */
26
MDRP[10000]	/* MoveDirectRelPt */
PUSHW[ ]	/* 1 value pushed */
26
MDAP[1]	/* MoveDirectAbsPt */
PUSHW[ ]	/* 1 value pushed */
8
SRP0[ ]	/* SetRefPoint0 */
PUSHW[ ]	/* 1 value pushed */
40
MDRP[11100]	/* MoveDirectRelPt */
NPUSHW[ ]	/* 27 values pushed */
7 40 23 40 39 40 55 40 71 40 87 40 103 40 119 40 135 40 151 40 167 40 183 40 199 40 13
DELTAP1[ ]	/* DeltaExceptionP1 */
NPUSHW[ ]	/* 5 values pushed */
214 40 230 40 2
DELTAP1[ ]	/* DeltaExceptionP1 */
SVTCA[1]	/* SetFreedomAndProjectionVectorToAxis */
PUSHW[ ]	/* 3 values pushed */
0 51 3
CALL[ ]	/* CallFunction */
NPUSHW[ ]	/* 5 values pushed */
218 51 234 51 2
DELTAP1[ ]	/* DeltaExceptionP1 */
NPUSHW[ ]	/* 27 values pushed */
9 51 25 51 41 51 57 51 73 51 89 51 105 51 121 51 137 51 153 51 169 51 185 51 201 51 13
DELTAP1[ ]	/* DeltaExceptionP1 */
IUP[0]	/* InterpolateUntPts */
IUP[1]	/* InterpolateUntPts */";
};
width = 1180;
}
);
note = O;
unicode = 79;
},
{
glyphname = P;
lastChange = "2025-12-26 02:35:02 +0000";
layers = (
{
layerId = m01;
shapes = (
{
closed = 1;
nodes = (
(942,820,o),
(874,880,o),
(780,916,o),
(720,916,qs),
(592,916,o),
(376,792,o),
(286,706,qs),
(258,680,o),
(184,594,o),
(116,498,o),
(66,402,o),
(60,362,qs),
(58,352,o),
(80,340,o),
(90,340,qs),
(100,340,o),
(102,348,qs),
(110,378,o),
(148,458,o),
(208,548,o),
(288,642,o),
(336,684,qs),
(364,708,o),
(440,770,o),
(538,824,o),
(658,860,o),
(730,860,qs),
(798,858,o),
(912,774,o),
(934,698,q),
(972,542,o),
(808,400,qs),
(738,340,o),
(576,260,o),
(480,260,qs),
(458,260,o),
(426,270,o),
(410,276,q),
(420,306,o),
(438,368,o),
(454,422,o),
(462,460,o),
(462,466,q),
(460,472,o),
(434,488,o),
(424,488,qs),
(418,488,o),
(414,482,q),
(410,466,o),
(376,362,o),
(358,300,q),
(354,302,o),
(352,302,o),
(348,304,q),
(320,312,o),
(320,296,q),
(318,288,o),
(324,268,o),
(332,262,qs),
(334,260,o),
(340,258,o),
(344,254,q),
(330,208,o),
(308,124,o),
(304,100,qs),
(294,36,o),
(276,-60,o),
(280,-96,qs),
(284,-122,o),
(302,-122,qs),
(316,-122,o),
(318,-104,qs),
(322,-86,o),
(336,-12,o),
(354,70,o),
(372,146,o),
(378,168,q),
(382,178,o),
(390,208,o),
(396,228,q),
(418,220,o),
(474,210,o),
(508,210,qs),
(560,210,o),
(678,250,o),
(790,316,o),
(888,396,o),
(920,436,qs),
(978,506,o),
(1006,654,o),
(996,700,qs),
(988,742,o)
);
}
);
userData = {
assembly = "PUSHW[ ]	/* 1 value pushed */
0
CALL[ ]	/* CallFunction */
SVTCA[0]	/* SetFreedomAndProjectionVectorToAxis */
PUSHW[ ]	/* 3 values pushed */
87 64 3
CALL[ ]	/* CallFunction */
PUSHW[ ]	/* 3 values pushed */
56 8 3
CALL[ ]	/* CallFunction */
PUSHW[ ]	/* 1 value pushed */
8
SRP0[ ]	/* SetRefPoint0 */
PUSHW[ ]	/* 1 value pushed */
37
MDRP[11100]	/* MoveDirectRelPt */
SVTCA[1]	/* SetFreedomAndProjectionVectorToAxis */
PUSHW[ ]	/* 3 values pushed */
35 23 3
CALL[ ]	/* CallFunction */
PUSHW[ ]	/* 3 values pushed */
48 53 3
CALL[ ]	/* CallFunction */
NPUSHW[ ]	/* 27 values pushed */
6 35 22 35 38 35 54 35 70 35 86 35 102 35 118 35 134 35 150 35 166 35 182 35 198 35 13
DELTAP1[ ]	/* DeltaExceptionP1 */
NPUSHW[ ]	/* 5 values pushed */
213 35 229 35 2
DELTAP1[ ]	/* DeltaExceptionP1 */
PUSHW[ ]	/* 1 value pushed */
35
SRP0[ ]	/* SetRefPoint0 */
PUSHW[ ]	/* 1 value pushed */
19
MDRP[10000]	/* MoveDirectRelPt */
PUSHW[ ]	/* 1 value pushed */
19
MDAP[1]	/* MoveDirectAbsPt */
NPUSHW[ ]	/* 27 values pushed */
6 48 22 48 38 48 54 48 70 48 86 48 102 48 118 48 134 48 150 48 166 48 182 48 198 48 13
DELTAP1[ ]	/* DeltaExceptionP1 */
NPUSHW[ ]	/* 5 values pushed */
213 48 229 48 2
DELTAP1[ ]	/* DeltaExceptionP1 */
IUP[0]	/* InterpolateUntPts */
IUP[1]	/* InterpolateUntPts */";
};
width = 1060;
}
);
note = P;
unicode = 80;
},
{
glyphname = Q;
lastChange = "2025-12-26 02:35:02 +0000";
layers = (
{
layerId = m01;
shapes = (
{
closed = 1;
nodes = (
(635,280,o),
(631,306,qs),
(627,322,o),
(603,342,o),
(589,342,qs),
(565,342,o),
(559,318,qs),
(557,304,o),
(583,204,o),
(599,158,q),
(533,118,o),
(393,60,o),
(315,60,qs),
(279,60,o),
(219,76,o),
(197,94,qs),
(163,126,o),
(121,218,o),
(125,282,qs),
(129,372,o),
(227,548,o),
(377,690,o),
(559,782,o),
(645,784,q),
(625,764,o),
(597,728,o),
(591,720,qs),
(581,708,o),
(589,692,o),
(601,692,qs),
(617,692,o),
(631,706,qs),
(647,720,o),
(705,758,o),
(733,766,q),
(749,758,o),
(779,740,o),
(791,732,qs),
(803,724,o),
(813,742,o),
(813,756,q),
(851,744,o),
(879,704,qs),
(905,668,o),
(925,582,o),
(923,534,qs),
(921,478,o),
(871,380,o),
(793,296,o),
(701,224,o),
(659,194,q),
(649,222,o)
);
},
{
closed = 1;
nodes = (
(973,658,o),
(945,716,o),
(911,762,o),
(893,774,qs),
(859,798,o),
(771,834,o),
(735,834,qs),
(727,834,o),
(717,832,o),
(711,830,q),
(673,842,o),
(621,842,qs),
(569,842,o),
(411,782,o),
(341,732,qs),
(307,706,o),
(231,630,o),
(163,544,o),
(107,452,o),
(91,410,qs),
(75,368,o),
(57,284,o),
(61,230,qs),
(71,116,o),
(217,-4,o),
(327,-4,qs),
(391,-4,o),
(553,62,o),
(627,102,q),
(633,92,o),
(669,50,o),
(709,6,o),
(751,-26,o),
(763,-26,qs),
(777,-26,o),
(793,2,o),
(783,8,qs),
(751,26,o),
(697,100,o),
(681,134,q),
(739,170,o),
(851,258,o),
(937,366,o),
(991,492,o),
(991,566,qs),
(991,596,o)
);
}
);
userData = {
assembly = "PUSHW[ ]	/* 1 value pushed */
0
CALL[ ]	/* CallFunction */
SVTCA[0]	/* SetFreedomAndProjectionVectorToAxis */
PUSHW[ ]	/* 1 value pushed */
85
MDAP[1]	/* MoveDirectAbsPt */
PUSHW[ ]	/* 1 value pushed */
87
MDAP[1]	/* MoveDirectAbsPt */
PUSHW[ ]	/* 1 value pushed */
90
MDAP[1]	/* MoveDirectAbsPt */
PUSHW[ ]	/* 1 value pushed */
0
RCVT[ ]	/* ReadCVT */
IF[ ]	/* If */
PUSHW[ ]	/* 1 value pushed */
63
MDAP[1]	/* MoveDirectAbsPt */
ELSE[ ]	/* Else */
PUSHW[ ]	/* 2 values pushed */
63 5
MIAP[0]	/* MoveIndirectAbsPt */
EIF[ ]	/* EndIf */
PUSHW[ ]	/* 1 value pushed */
0
RCVT[ ]	/* ReadCVT */
IF[ ]	/* If */
PUSHW[ ]	/* 1 value pushed */
60
MDAP[1]	/* MoveDirectAbsPt */
ELSE[ ]	/* Else */
PUSHW[ ]	/* 2 values pushed */
60 5
MIAP[0]	/* MoveIndirectAbsPt */
EIF[ ]	/* EndIf */
PUSHW[ ]	/* 1 value pushed */
0
RCVT[ ]	/* ReadCVT */
IF[ ]	/* If */
PUSHW[ ]	/* 1 value pushed */
71
MDAP[1]	/* MoveDirectAbsPt */
ELSE[ ]	/* Else */
PUSHW[ ]	/* 2 values pushed */
71 5
MIAP[0]	/* MoveIndirectAbsPt */
EIF[ ]	/* EndIf */
PUSHW[ ]	/* 3 values pushed */
0 63 85
SRP1[ ]	/* SetRefPoint1 */
SRP2[ ]	/* SetRefPoint2 */
IP[ ]	/* InterpolatePts */
PUSHW[ ]	/* 3 values pushed */
10 63 85
SRP1[ ]	/* SetRefPoint1 */
SRP2[ ]	/* SetRefPoint2 */
IP[ ]	/* InterpolatePts */
PUSHW[ ]	/* 3 values pushed */
27 63 85
SRP1[ ]	/* SetRefPoint1 */
SRP2[ ]	/* SetRefPoint2 */
IP[ ]	/* InterpolatePts */
PUSHW[ ]	/* 1 value pushed */
38
MDRP[11100]	/* MoveDirectRelPt */
NPUSHW[ ]	/* 27 values pushed */
7 38 23 38 39 38 55 38 71 38 87 38 103 38 119 38 135 38 151 38 167 38 183 38 199 38 13
DELTAP1[ ]	/* DeltaExceptionP1 */
NPUSHW[ ]	/* 5 values pushed */
214 38 230 38 2
DELTAP1[ ]	/* DeltaExceptionP1 */
SVTCA[1]	/* SetFreedomAndProjectionVectorToAxis */
PUSHW[ ]	/* 3 values pushed */
49 44 3
CALL[ ]	/* CallFunction */
PUSHW[ ]	/* 3 values pushed */
52 5 3
CALL[ ]	/* CallFunction */
NPUSHW[ ]	/* 5 values pushed */
218 44 234 44 2
DELTAP1[ ]	/* DeltaExceptionP1 */
NPUSHW[ ]	/* 27 values pushed */
9 44 25 44 41 44 57 44 73 44 89 44 105 44 121 44 137 44 153 44 169 44 185 44 201 44 13
DELTAP1[ ]	/* DeltaExceptionP1 */
PUSHW[ ]	/* 3 values pushed */
0 44 52
SRP1[ ]	/* SetRefPoint1 */
SRP2[ ]	/* SetRefPoint2 */
IP[ ]	/* InterpolatePts */
NPUSHW[ ]	/* 5 values pushed */
218 5 234 5 2
DELTAP1[ ]	/* DeltaExceptionP1 */
NPUSHW[ ]	/* 27 values pushed */
9 5 25 5 41 5 57 5 73 5 89 5 105 5 121 5 137 5 153 5 169 5 185 5 201 5 13
DELTAP1[ ]	/* DeltaExceptionP1 */
PUSHW[ ]	/* 3 values pushed */
10 44 52
SRP1[ ]	/* SetRefPoint1 */
SRP2[ ]	/* SetRefPoint2 */
IP[ ]	/* InterpolatePts */
PUSHW[ ]	/* 3 values pushed */
27 44 52
SRP1[ ]	/* SetRefPoint1 */
SRP2[ ]	/* SetRefPoint2 */
IP[ ]	/* InterpolatePts */
IUP[0]	/* InterpolateUntPts */
IUP[1]	/* InterpolateUntPts */";
};
width = 1051;
}
);
note = Q;
unicode = 81;
},
{
glyphname = R;
lastChange = "2025-12-26 02:35:02 +0000";
layers = (
{
layerId = m01;
shapes = (
{
closed = 1;
nodes = (
(878,688,o),
(830,754,o),
(774,804,o),
(748,820,qs),
(694,852,o),
(594,880,o),
(530,880,qs),
(446,880,o),
(288,806,o),
(162,686,o),
(76,532,o),
(64,452,qs),
(60,418,o),
(60,360,o),
(68,344,qs),
(74,330,o),
(92,330,qs),
(112,330,o),
(110,346,q),
(110,374,o),
(112,438,o),
(122,472,qs),
(144,544,o),
(224,670,o),
(332,766,o),
(468,822,o),
(546,822,qs),
(630,822,o),
(758,746,o),
(798,698,qs),
(858,626,o),
(852,520,qs),
(850,468,o),
(796,378,o),
(712,310,o),
(608,272,o),
(560,272,qs),
(512,272,o),
(444,298,o),
(420,304,q),
(432,346,o),
(454,432,o),
(460,460,qs),
(470,506,o),
(484,590,o),
(480,604,qs),
(476,618,o),
(452,618,qs),
(432,618,o),
(426,604,qs),
(418,584,o),
(416,512,o),
(402,452,qs),
(396,424,o),
(376,350,o),
(356,270,o),
(336,194,o),
(332,166,qs),
(320,96,o),
(318,26,o),
(316,-10,qs),
(316,-20,o),
(334,-32,o),
(344,-32,qs),
(364,-32,o),
(366,-12,qs),
(368,0,o),
(374,52,o),
(380,114,o),
(390,178,o),
(394,202,q),
(396,208,o),
(400,228,q),
(424,208,o),
(480,148,o),
(500,130,qs),
(516,116,o),
(568,76,o),
(624,36,o),
(672,6,o),
(684,2,qs),
(696,-2,o),
(716,2,o),
(730,14,o),
(734,28,o),
(726,32,q),
(698,52,o),
(626,100,o),
(596,126,qs),
(574,146,o),
(538,182,o),
(522,198,q),
(506,218,o),
(492,234,q),
(502,232,o),
(512,232,qs),
(522,232,o),
(546,230,o),
(562,230,qs),
(602,230,o),
(684,250,o),
(762,286,o),
(828,338,o),
(852,370,qs),
(886,414,o),
(918,500,o),
(914,566,qs),
(912,610,o)
);
}
);
userData = {
assembly = "PUSHW[ ]	/* 1 value pushed */
0
CALL[ ]	/* CallFunction */
SVTCA[0]	/* SetFreedomAndProjectionVectorToAxis */
PUSHW[ ]	/* 1 value pushed */
0
RCVT[ ]	/* ReadCVT */
IF[ ]	/* If */
PUSHW[ ]	/* 1 value pushed */
43
MDAP[1]	/* MoveDirectAbsPt */
ELSE[ ]	/* Else */
PUSHW[ ]	/* 2 values pushed */
43 5
MIAP[0]	/* MoveIndirectAbsPt */
EIF[ ]	/* EndIf */
PUSHW[ ]	/* 1 value pushed */
0
RCVT[ ]	/* ReadCVT */
IF[ ]	/* If */
PUSHW[ ]	/* 1 value pushed */
26
MDAP[1]	/* MoveDirectAbsPt */
ELSE[ ]	/* Else */
PUSHW[ ]	/* 2 values pushed */
26 5
MIAP[0]	/* MoveIndirectAbsPt */
EIF[ ]	/* EndIf */
PUSHW[ ]	/* 1 value pushed */
0
RCVT[ ]	/* ReadCVT */
IF[ ]	/* If */
PUSHW[ ]	/* 1 value pushed */
41
MDAP[1]	/* MoveDirectAbsPt */
ELSE[ ]	/* Else */
PUSHW[ ]	/* 2 values pushed */
41 5
MIAP[0]	/* MoveIndirectAbsPt */
EIF[ ]	/* EndIf */
PUSHW[ ]	/* 1 value pushed */
0
RCVT[ ]	/* ReadCVT */
IF[ ]	/* If */
PUSHW[ ]	/* 1 value pushed */
46
MDAP[1]	/* MoveDirectAbsPt */
ELSE[ ]	/* Else */
PUSHW[ ]	/* 2 values pushed */
46 5
MIAP[0]	/* MoveIndirectAbsPt */
EIF[ ]	/* EndIf */
PUSHW[ ]	/* 3 values pushed */
100 80 3
CALL[ ]	/* CallFunction */
PUSHW[ ]	/* 3 values pushed */
70 8 3
CALL[ ]	/* CallFunction */
PUSHW[ ]	/* 1 value pushed */
8
SRP0[ ]	/* SetRefPoint0 */
PUSHW[ ]	/* 1 value pushed */
11
MDRP[10000]	/* MoveDirectRelPt */
PUSHW[ ]	/* 1 value pushed */
11
MDAP[1]	/* MoveDirectAbsPt */
PUSHW[ ]	/* 1 value pushed */
8
SRP0[ ]	/* SetRefPoint0 */
PUSHW[ ]	/* 1 value pushed */
13
MDRP[10000]	/* MoveDirectRelPt */
PUSHW[ ]	/* 1 value pushed */
13
MDAP[1]	/* MoveDirectAbsPt */
SVTCA[1]	/* SetFreedomAndProjectionVectorToAxis */
PUSHW[ ]	/* 3 values pushed */
41 46 3
CALL[ ]	/* CallFunction */
PUSHW[ ]	/* 3 values pushed */
0 75 3
CALL[ ]	/* CallFunction */
PUSHW[ ]	/* 3 values pushed */
61 67 3
CALL[ ]	/* CallFunction */
PUSHW[ ]	/* 3 values pushed */
13 46 0
SRP1[ ]	/* SetRefPoint1 */
SRP2[ ]	/* SetRefPoint2 */
IP[ ]	/* InterpolatePts */
PUSHW[ ]	/* 3 values pushed */
34 46 0
SRP1[ ]	/* SetRefPoint1 */
SRP2[ ]	/* SetRefPoint2 */
IP[ ]	/* InterpolatePts */
NPUSHW[ ]	/* 27 values pushed */
6 41 22 41 38 41 54 41 70 41 86 41 102 41 118 41 134 41 150 41 166 41 182 41 198 41 13
DELTAP1[ ]	/* DeltaExceptionP1 */
NPUSHW[ ]	/* 5 values pushed */
213 41 229 41 2
DELTAP1[ ]	/* DeltaExceptionP1 */
NPUSHW[ ]	/* 27 values pushed */
6 61 22 61 38 61 54 61 70 61 86 61 102 61 118 61 134 61 150 61 166 61 182 61 198 61 13
DELTAP1[ ]	/* DeltaExceptionP1 */
NPUSHW[ ]	/* 5 values pushed */
213 61 229 61 2
DELTAP1[ ]	/* DeltaExceptionP1 */
NPUSHW[ ]	/* 5 values pushed */
218 75 234 75 2
DELTAP1[ ]	/* DeltaExceptionP1 */
NPUSHW[ ]	/* 27 values pushed */
9 75 25 75 41 75 57 75 73 75 89 75 105 75 121 75 137 75 153 75 169 75 185 75 201 75 13
DELTAP1[ ]	/* DeltaExceptionP1 */
IUP[0]	/* InterpolateUntPts */
IUP[1]	/* InterpolateUntPts */";
};
width = 975;
}
);
note = R;
unicode = 82;
},
{
glyphname = S;
lastChange = "2025-12-26 02:35:02 +0000";
layers = (
{
layerId = m01;
shapes = (
{
closed = 1;
nodes = (
(626,784,o),
(682,784,qs),
(704,784,o),
(716,766,o),
(732,760,qs),
(742,756,o),
(762,766,o),
(766,770,q),
(772,784,o),
(756,834,o),
(710,842,qs),
(686,846,o),
(618,838,o),
(540,816,o),
(464,782,o),
(430,760,qs),
(396,740,o),
(318,680,o),
(252,612,o),
(210,540,o),
(212,506,qs),
(214,464,o),
(252,398,o),
(308,352,o),
(372,322,o),
(402,314,qs),
(434,306,o),
(506,284,o),
(570,256,o),
(610,226,o),
(610,208,qs),
(610,196,o),
(582,164,o),
(536,132,o),
(480,104,o),
(450,96,qs),
(398,80,o),
(318,64,o),
(260,64,qs),
(212,64,o),
(136,80,o),
(90,98,qs),
(62,108,o),
(58,76,o),
(80,58,qs),
(98,44,o),
(182,-4,o),
(276,-4,qs),
(318,-4,o),
(456,26,o),
(588,84,o),
(682,166,o),
(680,220,qs),
(680,262,o),
(586,322,o),
(484,352,qs),
(432,368,o),
(358,396,o),
(308,430,o),
(284,476,o),
(282,508,qs),
(280,536,o),
(318,596,o),
(374,652,o),
(442,702,o),
(472,718,qs),
(520,746,o)
);
}
);
userData = {
assembly = "PUSHW[ ]	/* 1 value pushed */
0
CALL[ ]	/* CallFunction */
SVTCA[0]	/* SetFreedomAndProjectionVectorToAxis */
PUSHW[ ]	/* 1 value pushed */
58
MDAP[1]	/* MoveDirectAbsPt */
PUSHW[ ]	/* 1 value pushed */
64
MDAP[1]	/* MoveDirectAbsPt */
PUSHW[ ]	/* 1 value pushed */
0
RCVT[ ]	/* ReadCVT */
IF[ ]	/* If */
PUSHW[ ]	/* 1 value pushed */
18
MDAP[1]	/* MoveDirectAbsPt */
ELSE[ ]	/* Else */
PUSHW[ ]	/* 2 values pushed */
18 5
MIAP[0]	/* MoveIndirectAbsPt */
EIF[ ]	/* EndIf */
PUSHW[ ]	/* 1 value pushed */
27
MDRP[11100]	/* MoveDirectRelPt */
NPUSHW[ ]	/* 27 values pushed */
7 27 23 27 39 27 55 27 71 27 87 27 103 27 119 27 135 27 151 27 167 27 183 27 199 27 13
DELTAP1[ ]	/* DeltaExceptionP1 */
NPUSHW[ ]	/* 5 values pushed */
214 27 230 27 2
DELTAP1[ ]	/* DeltaExceptionP1 */
PUSHW[ ]	/* 1 value pushed */
64
SRP0[ ]	/* SetRefPoint0 */
PUSHW[ ]	/* 1 value pushed */
55
MDRP[11100]	/* MoveDirectRelPt */
SVTCA[1]	/* SetFreedomAndProjectionVectorToAxis */
PUSHW[ ]	/* 1 value pushed */
67
MDAP[1]	/* MoveDirectAbsPt */
PUSHW[ ]	/* 1 value pushed */
35
MDAP[1]	/* MoveDirectAbsPt */
PUSHW[ ]	/* 1 value pushed */
67
SRP0[ ]	/* SetRefPoint0 */
PUSHW[ ]	/* 1 value pushed */
45
MDRP[10000]	/* MoveDirectRelPt */
PUSHW[ ]	/* 1 value pushed */
45
MDAP[1]	/* MoveDirectAbsPt */
PUSHW[ ]	/* 1 value pushed */
5
MDRP[11100]	/* MoveDirectRelPt */
NPUSHW[ ]	/* 27 values pushed */
6 5 22 5 38 5 54 5 70 5 86 5 102 5 118 5 134 5 150 5 166 5 182 5 198 5 13
DELTAP1[ ]	/* DeltaExceptionP1 */
NPUSHW[ ]	/* 5 values pushed */
213 5 229 5 2
DELTAP1[ ]	/* DeltaExceptionP1 */
NPUSHW[ ]	/* 5 values pushed */
218 35 234 35 2
DELTAP1[ ]	/* DeltaExceptionP1 */
NPUSHW[ ]	/* 27 values pushed */
9 35 25 35 41 35 57 35 73 35 89 35 105 35 121 35 137 35 153 35 169 35 185 35 201 35 13
DELTAP1[ ]	/* DeltaExceptionP1 */
PUSHW[ ]	/* 1 value pushed */
35
SRP0[ ]	/* SetRefPoint0 */
PUSHW[ ]	/* 1 value pushed */
13
MDRP[11100]	/* MoveDirectRelPt */
PUSHW[ ]	/* 1 value pushed */
5
SRP0[ ]	/* SetRefPoint0 */
PUSHW[ ]	/* 1 value pushed */
18
MDRP[10000]	/* MoveDirectRelPt */
PUSHW[ ]	/* 1 value pushed */
18
MDAP[1]	/* MoveDirectAbsPt */
PUSHW[ ]	/* 1 value pushed */
13
SRP0[ ]	/* SetRefPoint0 */
PUSHW[ ]	/* 1 value pushed */
64
MDRP[10000]	/* MoveDirectRelPt */
PUSHW[ ]	/* 1 value pushed */
64
MDAP[1]	/* MoveDirectAbsPt */
IUP[0]	/* InterpolateUntPts */
IUP[1]	/* InterpolateUntPts */";
};
width = 829;
}
);
note = S;
unicode = 83;
},
{
glyphname = T;
lastChange = "2025-12-26 02:59:12 +0000";
layers = (
{
layerId = m01;
shapes = (
{
closed = 1;
nodes = (
(673,716,o),
(509,636,q),
(503,644,o),
(481,658,o),
(471,658,qs),
(457,658,o),
(455,644,qs),
(455,640,o),
(453,622,o),
(451,610,q),
(413,590,o),
(349,558,o),
(329,546,qs),
(279,518,o),
(161,456,o),
(123,424,q),
(101,402,o),
(71,376,o),
(61,354,qs),
(57,342,o),
(93,300,o),
(105,300,q),
(121,304,o),
(129,332,o),
(143,348,qs),
(169,376,o),
(245,430,o),
(327,478,o),
(411,520,o),
(445,536,q),
(441,484,o),
(431,366,o),
(421,314,qs),
(417,290,o),
(411,188,o),
(407,80,o),
(407,-4,o),
(409,-8,q),
(415,-16,o),
(437,-16,qs),
(447,-16,o),
(461,-12,o),
(461,-6,qs),
(461,4,o),
(463,60,o),
(463,126,o),
(465,192,o),
(467,214,qs),
(469,244,o),
(481,324,o),
(493,410,o),
(503,494,o),
(505,528,q),
(507,538,o),
(507,556,o),
(509,566,q),
(537,580,o),
(583,602,o),
(599,612,qs),
(649,640,o),
(773,696,o),
(847,726,qs),
(879,738,o),
(971,776,o),
(1059,812,o),
(1131,840,o),
(1145,846,qs),
(1157,850,o),
(1193,862,o),
(1229,876,o),
(1259,892,o),
(1263,900,qs),
(1269,914,o),
(1241,914,qs),
(1215,914,o),
(1185,902,q),
(1011,846,o)
);
}
);
userData = {
assembly = "PUSHW[ ]	/* 1 value pushed */
0
CALL[ ]	/* CallFunction */
SVTCA[0]	/* SetFreedomAndProjectionVectorToAxis */
PUSHW[ ]	/* 1 value pushed */
0
RCVT[ ]	/* ReadCVT */
IF[ ]	/* If */
PUSHW[ ]	/* 1 value pushed */
33
MDAP[1]	/* MoveDirectAbsPt */
ELSE[ ]	/* Else */
PUSHW[ ]	/* 2 values pushed */
33 5
MIAP[0]	/* MoveIndirectAbsPt */
EIF[ ]	/* EndIf */
PUSHW[ ]	/* 1 value pushed */
0
RCVT[ ]	/* ReadCVT */
IF[ ]	/* If */
PUSHW[ ]	/* 1 value pushed */
36
MDAP[1]	/* MoveDirectAbsPt */
ELSE[ ]	/* Else */
PUSHW[ ]	/* 2 values pushed */
36 5
MIAP[0]	/* MoveIndirectAbsPt */
EIF[ ]	/* EndIf */
PUSHW[ ]	/* 1 value pushed */
0
RCVT[ ]	/* ReadCVT */
IF[ ]	/* If */
PUSHW[ ]	/* 1 value pushed */
38
MDAP[1]	/* MoveDirectAbsPt */
ELSE[ ]	/* Else */
PUSHW[ ]	/* 2 values pushed */
38 5
MIAP[0]	/* MoveIndirectAbsPt */
EIF[ ]	/* EndIf */
SVTCA[1]	/* SetFreedomAndProjectionVectorToAxis */
PUSHW[ ]	/* 3 values pushed */
33 38 3
CALL[ ]	/* CallFunction */
NPUSHW[ ]	/* 27 values pushed */
6 33 22 33 38 33 54 33 70 33 86 33 102 33 118 33 134 33 150 33 166 33 182 33 198 33 13
DELTAP1[ ]	/* DeltaExceptionP1 */
NPUSHW[ ]	/* 5 values pushed */
213 33 229 33 2
DELTAP1[ ]	/* DeltaExceptionP1 */
PUSHW[ ]	/* 1 value pushed */
33
SRP0[ ]	/* SetRefPoint0 */
PUSHW[ ]	/* 1 value pushed */
28
MDRP[10000]	/* MoveDirectRelPt */
PUSHW[ ]	/* 1 value pushed */
28
MDAP[1]	/* MoveDirectAbsPt */
PUSHW[ ]	/* 3 values pushed */
46 38 33
SRP1[ ]	/* SetRefPoint1 */
SRP2[ ]	/* SetRefPoint2 */
IP[ ]	/* InterpolatePts */
PUSHW[ ]	/* 1 value pushed */
33
SRP0[ ]	/* SetRefPoint0 */
PUSHW[ ]	/* 1 value pushed */
69
MDRP[10000]	/* MoveDirectRelPt */
PUSHW[ ]	/* 1 value pushed */
69
MDAP[1]	/* MoveDirectAbsPt */
IUP[0]	/* InterpolateUntPts */
IUP[1]	/* InterpolateUntPts */";
};
width = 1324;
}
);
note = T;
unicode = 84;
},
{
glyphname = U;
lastChange = "2025-12-26 02:35:02 +0000";
layers = (
{
layerId = m01;
shapes = (
{
closed = 1;
nodes = (
(354,808,o),
(342,818,qs),
(332,828,o),
(308,842,o),
(288,838,q),
(274,838,o),
(236,800,o),
(196,746,o),
(160,688,o),
(148,666,qs),
(116,610,o),
(64,430,o),
(60,338,qs),
(58,282,o),
(88,174,o),
(126,124,qs),
(170,72,o),
(298,0,o),
(368,0,qs),
(438,0,o),
(608,76,o),
(780,200,o),
(942,360,o),
(1066,526,o),
(1142,686,o),
(1142,750,qs),
(1142,778,o),
(1116,814,o),
(1102,818,qs),
(1088,822,o),
(1062,812,o),
(1072,798,q),
(1078,786,o),
(1088,754,o),
(1086,732,qs),
(1084,700,o),
(1044,620,o),
(992,542,o),
(938,470,o),
(920,448,qs),
(882,400,o),
(748,268,o),
(592,148,o),
(430,66,o),
(366,66,qs),
(302,66,o),
(188,148,o),
(156,202,qs),
(124,260,o),
(124,412,o),
(138,480,qs),
(152,556,o),
(226,702,o),
(260,742,qs),
(274,760,o),
(298,786,o),
(306,788,q),
(314,792,o),
(322,786,o),
(332,786,qs),
(342,786,o)
);
}
);
userData = {
assembly = "PUSHW[ ]	/* 1 value pushed */
0
CALL[ ]	/* CallFunction */
SVTCA[0]	/* SetFreedomAndProjectionVectorToAxis */
PUSHW[ ]	/* 1 value pushed */
55
MDAP[1]	/* MoveDirectAbsPt */
PUSHW[ ]	/* 1 value pushed */
0
RCVT[ ]	/* ReadCVT */
IF[ ]	/* If */
PUSHW[ ]	/* 1 value pushed */
41
MDAP[1]	/* MoveDirectAbsPt */
ELSE[ ]	/* Else */
PUSHW[ ]	/* 2 values pushed */
41 5
MIAP[0]	/* MoveIndirectAbsPt */
EIF[ ]	/* EndIf */
PUSHW[ ]	/* 1 value pushed */
55
SRP0[ ]	/* SetRefPoint0 */
PUSHW[ ]	/* 1 value pushed */
0
MDRP[11100]	/* MoveDirectRelPt */
PUSHW[ ]	/* 1 value pushed */
41
SRP0[ ]	/* SetRefPoint0 */
PUSHW[ ]	/* 1 value pushed */
15
MDRP[11100]	/* MoveDirectRelPt */
NPUSHW[ ]	/* 27 values pushed */
7 15 23 15 39 15 55 15 71 15 87 15 103 15 119 15 135 15 151 15 167 15 183 15 199 15 13
DELTAP1[ ]	/* DeltaExceptionP1 */
NPUSHW[ ]	/* 5 values pushed */
214 15 230 15 2
DELTAP1[ ]	/* DeltaExceptionP1 */
IUP[0]	/* InterpolateUntPts */
IUP[1]	/* InterpolateUntPts */";
};
width = 1202;
}
);
note = U;
unicode = 85;
},
{
glyphname = V;
lastChange = "2025-12-26 02:35:02 +0000";
layers = (
{
layerId = m01;
shapes = (
{
closed = 1;
nodes = (
(175,26,o),
(215,-22,q),
(225,-32,o),
(243,-32,qs),
(269,-32,o),
(271,-18,q),
(287,22,o),
(377,148,o),
(485,278,o),
(591,396,o),
(621,428,qs),
(637,444,o),
(697,506,o),
(777,580,o),
(867,662,o),
(911,698,qs),
(959,740,o),
(1053,810,o),
(1127,864,o),
(1179,896,o),
(1187,898,q),
(1205,908,o),
(1195,932,o),
(1173,932,qs),
(1147,932,o),
(1057,884,o),
(961,818,o),
(875,754,o),
(853,736,qs),
(835,722,o),
(751,646,o),
(647,548,o),
(539,438,o),
(495,390,qs),
(465,358,o),
(371,248,o),
(331,196,qs),
(291,144,o),
(243,78,o),
(237,78,qs),
(233,78,o),
(213,128,o),
(191,206,o),
(169,300,o),
(163,344,qs),
(157,382,o),
(147,478,o),
(139,566,o),
(129,634,o),
(123,642,qs),
(119,648,o),
(99,656,o),
(87,656,qs),
(77,656,o),
(57,646,o),
(61,632,qs),
(65,618,o),
(73,542,o),
(83,446,o),
(99,342,o),
(107,300,qs),
(127,202,o)
);
}
);
userData = {
assembly = "PUSHW[ ]	/* 1 value pushed */
0
CALL[ ]	/* CallFunction */
SVTCA[0]	/* SetFreedomAndProjectionVectorToAxis */
PUSHW[ ]	/* 1 value pushed */
37
MDAP[1]	/* MoveDirectAbsPt */
PUSHW[ ]	/* 1 value pushed */
0
RCVT[ ]	/* ReadCVT */
IF[ ]	/* If */
PUSHW[ ]	/* 1 value pushed */
55
MDAP[1]	/* MoveDirectAbsPt */
ELSE[ ]	/* Else */
PUSHW[ ]	/* 2 values pushed */
55 5
MIAP[0]	/* MoveIndirectAbsPt */
EIF[ ]	/* EndIf */
PUSHW[ ]	/* 1 value pushed */
0
RCVT[ ]	/* ReadCVT */
IF[ ]	/* If */
PUSHW[ ]	/* 1 value pushed */
57
MDAP[1]	/* MoveDirectAbsPt */
ELSE[ ]	/* Else */
PUSHW[ ]	/* 2 values pushed */
57 5
MIAP[0]	/* MoveIndirectAbsPt */
EIF[ ]	/* EndIf */
PUSHW[ ]	/* 1 value pushed */
0
RCVT[ ]	/* ReadCVT */
IF[ ]	/* If */
PUSHW[ ]	/* 1 value pushed */
59
MDAP[1]	/* MoveDirectAbsPt */
ELSE[ ]	/* Else */
PUSHW[ ]	/* 2 values pushed */
59 5
MIAP[0]	/* MoveIndirectAbsPt */
EIF[ ]	/* EndIf */
PUSHW[ ]	/* 1 value pushed */
57
SRP0[ ]	/* SetRefPoint0 */
PUSHW[ ]	/* 1 value pushed */
21
MDRP[11100]	/* MoveDirectRelPt */
NPUSHW[ ]	/* 27 values pushed */
7 21 23 21 39 21 55 21 71 21 87 21 103 21 119 21 135 21 151 21 167 21 183 21 199 21 13
DELTAP1[ ]	/* DeltaExceptionP1 */
NPUSHW[ ]	/* 5 values pushed */
214 21 230 21 2
DELTAP1[ ]	/* DeltaExceptionP1 */
IUP[0]	/* InterpolateUntPts */
IUP[1]	/* InterpolateUntPts */";
};
width = 1261;
}
);
note = V;
unicode = 86;
},
{
glyphname = W;
lastChange = "2025-12-26 02:35:02 +0000";
layers = (
{
layerId = m01;
shapes = (
{
closed = 1;
nodes = (
(662,738,o),
(670,738,q),
(682,740,o),
(686,764,o),
(682,774,qs),
(676,788,o),
(644,812,o),
(620,812,qs),
(598,812,o),
(534,780,o),
(468,738,o),
(408,694,o),
(392,682,qs),
(338,640,o),
(222,532,o),
(124,410,o),
(60,274,o),
(60,202,qs),
(60,166,o),
(88,104,o),
(136,56,o),
(200,28,o),
(236,28,qs),
(264,28,o),
(336,44,o),
(414,66,o),
(486,92,o),
(512,102,qs),
(560,120,o),
(642,146,o),
(676,138,qs),
(698,134,o),
(726,76,o),
(738,60,qs),
(744,52,o),
(758,24,o),
(786,-4,o),
(828,-24,o),
(862,-24,qs),
(896,-24,o),
(970,8,o),
(1052,58,o),
(1140,124,o),
(1184,160,qs),
(1210,180,o),
(1278,240,o),
(1350,312,o),
(1420,394,o),
(1450,436,qs),
(1494,500,o),
(1538,624,o),
(1528,682,qs),
(1518,740,o),
(1464,804,o),
(1402,836,o),
(1346,842,o),
(1332,842,qs),
(1282,842,o),
(1232,814,qs),
(1216,804,o),
(1216,782,o),
(1230,776,qs),
(1238,772,o),
(1270,780,o),
(1280,782,qs),
(1290,784,o),
(1316,788,o),
(1332,788,qs),
(1354,788,o),
(1404,774,o),
(1426,756,qs),
(1448,738,o),
(1466,668,o),
(1456,582,o),
(1416,486,o),
(1380,444,qs),
(1356,418,o),
(1296,350,o),
(1226,282,o),
(1154,216,o),
(1118,192,qs),
(1098,178,o),
(1034,130,o),
(962,84,o),
(894,50,o),
(866,50,qs),
(836,50,o),
(800,96,o),
(764,152,o),
(716,202,o),
(676,206,qs),
(646,210,o),
(534,178,o),
(412,136,o),
(298,100,o),
(264,100,qs),
(248,100,o),
(202,108,o),
(162,128,o),
(132,168,o),
(132,200,qs),
(130,270,o),
(184,392,o),
(260,492,o),
(342,568,o),
(370,594,qs),
(388,612,o),
(454,666,o),
(528,718,o),
(600,756,o),
(624,756,q),
(640,754,o)
);
}
);
userData = {
assembly = "PUSHW[ ]	/* 1 value pushed */
0
CALL[ ]	/* CallFunction */
SVTCA[0]	/* SetFreedomAndProjectionVectorToAxis */
PUSHW[ ]	/* 1 value pushed */
10
MDAP[1]	/* MoveDirectAbsPt */
PUSHW[ ]	/* 1 value pushed */
20
MDAP[1]	/* MoveDirectAbsPt */
PUSHW[ ]	/* 1 value pushed */
30
MDAP[1]	/* MoveDirectAbsPt */
PUSHW[ ]	/* 1 value pushed */
93
MDAP[1]	/* MoveDirectAbsPt */
PUSHW[ ]	/* 1 value pushed */
0
RCVT[ ]	/* ReadCVT */
IF[ ]	/* If */
PUSHW[ ]	/* 1 value pushed */
72
MDAP[1]	/* MoveDirectAbsPt */
ELSE[ ]	/* Else */
PUSHW[ ]	/* 2 values pushed */
72 5
MIAP[0]	/* MoveIndirectAbsPt */
EIF[ ]	/* EndIf */
PUSHW[ ]	/* 3 values pushed */
15 88 3
CALL[ ]	/* CallFunction */
PUSHW[ ]	/* 3 values pushed */
54 43 3
CALL[ ]	/* CallFunction */
PUSHW[ ]	/* 3 values pushed */
103 0 3
CALL[ ]	/* CallFunction */
PUSHW[ ]	/* 1 value pushed */
72
SRP0[ ]	/* SetRefPoint0 */
PUSHW[ ]	/* 1 value pushed */
25
MDRP[11100]	/* MoveDirectRelPt */
NPUSHW[ ]	/* 27 values pushed */
7 25 23 25 39 25 55 25 71 25 87 25 103 25 119 25 135 25 151 25 167 25 183 25 199 25 13
DELTAP1[ ]	/* DeltaExceptionP1 */
NPUSHW[ ]	/* 5 values pushed */
214 25 230 25 2
DELTAP1[ ]	/* DeltaExceptionP1 */
PUSHW[ ]	/* 1 value pushed */
43
SRP0[ ]	/* SetRefPoint0 */
PUSHW[ ]	/* 1 value pushed */
46
MDRP[10000]	/* MoveDirectRelPt */
PUSHW[ ]	/* 1 value pushed */
46
MDAP[1]	/* MoveDirectAbsPt */
SVTCA[1]	/* SetFreedomAndProjectionVectorToAxis */
PUSHW[ ]	/* 3 values pushed */
10 93 3
CALL[ ]	/* CallFunction */
NPUSHW[ ]	/* 27 values pushed */
6 10 22 10 38 10 54 10 70 10 86 10 102 10 118 10 134 10 150 10 166 10 182 10 198 10 13
DELTAP1[ ]	/* DeltaExceptionP1 */
NPUSHW[ ]	/* 5 values pushed */
213 10 229 10 2
DELTAP1[ ]	/* DeltaExceptionP1 */
IUP[0]	/* InterpolateUntPts */
IUP[1]	/* InterpolateUntPts */";
};
width = 1591;
}
);
note = W;
unicode = 87;
},
{
glyphname = X;
lastChange = "2025-12-26 02:35:02 +0000";
layers = (
{
layerId = m01;
shapes = (
{
closed = 1;
nodes = (
(1238,822,o),
(1166,792,o),
(1102,762,o),
(1086,754,qs),
(904,658,o),
(574,442,o),
(410,322,q),
(388,362,o),
(358,432,o),
(348,456,qs),
(326,508,o),
(308,596,o),
(298,618,qs),
(294,628,o),
(282,628,qs),
(272,628,o),
(250,614,o),
(248,600,q),
(248,588,o),
(254,546,o),
(266,498,o),
(282,446,o),
(290,426,qs),
(300,400,o),
(338,322,o),
(358,284,q),
(346,274,o),
(326,260,o),
(320,254,qs),
(298,236,o),
(216,178,o),
(136,112,o),
(70,50,o),
(62,28,qs),
(56,8,o),
(78,-18,o),
(92,-18,qs),
(100,-18,o),
(106,-10,qs),
(122,12,o),
(192,78,o),
(278,146,o),
(362,208,o),
(390,228,q),
(394,222,o),
(400,210,o),
(404,206,q),
(416,190,o),
(476,116,o),
(548,40,o),
(618,-18,o),
(638,-18,qs),
(654,-18,o),
(666,2,o),
(660,14,qs),
(648,34,o),
(574,92,o),
(528,148,qs),
(504,176,o),
(470,222,o),
(442,266,q),
(514,318,o),
(662,422,o),
(702,450,qs),
(850,558,o),
(1164,738,o),
(1328,820,qs),
(1342,828,o),
(1338,844,o),
(1322,844,qs),
(1304,844,o)
);
}
);
userData = {
assembly = "PUSHW[ ]	/* 1 value pushed */
0
CALL[ ]	/* CallFunction */
SVTCA[0]	/* SetFreedomAndProjectionVectorToAxis */
PUSHW[ ]	/* 1 value pushed */
0
MDAP[1]	/* MoveDirectAbsPt */
PUSHW[ ]	/* 1 value pushed */
0
RCVT[ ]	/* ReadCVT */
IF[ ]	/* If */
PUSHW[ ]	/* 1 value pushed */
18
MDAP[1]	/* MoveDirectAbsPt */
ELSE[ ]	/* Else */
PUSHW[ ]	/* 2 values pushed */
18 5
MIAP[0]	/* MoveIndirectAbsPt */
EIF[ ]	/* EndIf */
PUSHW[ ]	/* 1 value pushed */
0
RCVT[ ]	/* ReadCVT */
IF[ ]	/* If */
PUSHW[ ]	/* 1 value pushed */
31
MDAP[1]	/* MoveDirectAbsPt */
ELSE[ ]	/* Else */
PUSHW[ ]	/* 2 values pushed */
31 5
MIAP[0]	/* MoveIndirectAbsPt */
EIF[ ]	/* EndIf */
PUSHW[ ]	/* 1 value pushed */
0
RCVT[ ]	/* ReadCVT */
IF[ ]	/* If */
PUSHW[ ]	/* 1 value pushed */
33
MDAP[1]	/* MoveDirectAbsPt */
ELSE[ ]	/* Else */
PUSHW[ ]	/* 2 values pushed */
33 5
MIAP[0]	/* MoveIndirectAbsPt */
EIF[ ]	/* EndIf */
IUP[0]	/* InterpolateUntPts */
IUP[1]	/* InterpolateUntPts */";
};
width = 1400;
}
);
note = X;
unicode = 88;
},
{
glyphname = Y;
lastChange = "2025-12-26 02:35:02 +0000";
layers = (
{
layerId = m01;
shapes = (
{
closed = 1;
nodes = (
(1225,802,o),
(1167,768,o),
(1101,728,o),
(1071,708,qs),
(1037,684,o),
(931,616,o),
(815,544,o),
(701,474,o),
(657,450,qs),
(619,428,o),
(523,382,o),
(421,346,o),
(325,324,o),
(289,324,qs),
(205,326,o),
(129,418,o),
(133,492,qs),
(133,516,o),
(145,570,o),
(161,620,o),
(179,662,o),
(185,670,qs),
(195,682,o),
(207,690,o),
(207,700,q),
(205,710,o),
(175,726,o),
(161,726,qs),
(147,726,o),
(141,716,qs),
(135,704,o),
(111,654,o),
(85,590,o),
(63,524,o),
(61,498,qs),
(57,446,o),
(83,352,o),
(123,314,qs),
(155,286,o),
(235,254,o),
(297,256,q),
(297,244,o),
(295,178,o),
(293,100,o),
(293,30,o),
(297,18,qs),
(305,0,o),
(325,0,qs),
(349,0,o),
(351,26,qs),
(351,38,o),
(361,90,o),
(373,158,o),
(381,232,o),
(381,266,q),
(429,276,o),
(551,322,o),
(681,386,o),
(809,458,o),
(865,494,qs),
(925,534,o),
(1063,626,o),
(1185,708,o),
(1275,768,o),
(1287,776,qs),
(1307,788,o),
(1333,794,o),
(1333,804,q),
(1331,814,o),
(1295,832,o),
(1279,828,qs),
(1271,826,o)
);
}
);
userData = {
assembly = "PUSHW[ ]	/* 1 value pushed */
0
CALL[ ]	/* CallFunction */
SVTCA[0]	/* SetFreedomAndProjectionVectorToAxis */
PUSHW[ ]	/* 1 value pushed */
41
MDAP[1]	/* MoveDirectAbsPt */
PUSHW[ ]	/* 1 value pushed */
43
MDAP[1]	/* MoveDirectAbsPt */
PUSHW[ ]	/* 1 value pushed */
0
RCVT[ ]	/* ReadCVT */
IF[ ]	/* If */
PUSHW[ ]	/* 1 value pushed */
23
MDAP[1]	/* MoveDirectAbsPt */
ELSE[ ]	/* Else */
PUSHW[ ]	/* 2 values pushed */
23 5
MIAP[0]	/* MoveIndirectAbsPt */
EIF[ ]	/* EndIf */
PUSHW[ ]	/* 3 values pushed */
57 30 3
CALL[ ]	/* CallFunction */
PUSHW[ ]	/* 1 value pushed */
30
SRP0[ ]	/* SetRefPoint0 */
PUSHW[ ]	/* 1 value pushed */
16
MDRP[10000]	/* MoveDirectRelPt */
PUSHW[ ]	/* 1 value pushed */
16
MDAP[1]	/* MoveDirectAbsPt */
SVTCA[1]	/* SetFreedomAndProjectionVectorToAxis */
PUSHW[ ]	/* 3 values pushed */
54 36 3
CALL[ ]	/* CallFunction */
PUSHW[ ]	/* 3 values pushed */
16 30 3
CALL[ ]	/* CallFunction */
NPUSHW[ ]	/* 27 values pushed */
6 16 22 16 38 16 54 16 70 16 86 16 102 16 118 16 134 16 150 16 166 16 182 16 198 16 13
DELTAP1[ ]	/* DeltaExceptionP1 */
NPUSHW[ ]	/* 5 values pushed */
213 16 229 16 2
DELTAP1[ ]	/* DeltaExceptionP1 */
NPUSHW[ ]	/* 27 values pushed */
6 54 22 54 38 54 54 54 70 54 86 54 102 54 118 54 134 54 150 54 166 54 182 54 198 54 13
DELTAP1[ ]	/* DeltaExceptionP1 */
NPUSHW[ ]	/* 5 values pushed */
213 54 229 54 2
DELTAP1[ ]	/* DeltaExceptionP1 */
PUSHW[ ]	/* 1 value pushed */
54
SRP0[ ]	/* SetRefPoint0 */
PUSHW[ ]	/* 1 value pushed */
46
MDRP[11100]	/* MoveDirectRelPt */
IUP[0]	/* InterpolateUntPts */
IUP[1]	/* InterpolateUntPts */";
};
width = 1393;
}
);
note = Y;
unicode = 89;
},
{
glyphname = Z;
lastChange = "2025-12-26 04:40:34 +0000";
layers = (
{
layerId = m01;
shapes = (
{
closed = 1;
nodes = (
(860,800,o),
(806,816,o),
(740,822,o),
(706,822,qs),
(598,822,o),
(376,786,o),
(274,752,qs),
(236,740,o),
(160,714,o),
(102,688,o),
(64,662,o),
(60,650,qs),
(58,640,o),
(72,620,o),
(94,606,o),
(116,596,o),
(122,596,qs),
(132,596,o),
(138,604,o),
(142,616,o),
(146,628,o),
(154,634,qs),
(200,664,o),
(338,710,o),
(494,742,o),
(646,760,o),
(702,760,qs),
(744,760,o),
(810,750,o),
(824,740,qs),
(836,730,o),
(800,676,o),
(736,610,o),
(656,544,o),
(626,520,qs),
(594,494,o),
(470,402,o),
(406,354,q),
(366,358,o),
(298,376,o),
(278,382,qs),
(260,388,o),
(242,362,o),
(254,348,qs),
(262,338,o),
(300,310,o),
(334,300,q),
(300,276,o),
(244,234,o),
(226,218,qs),
(162,168,o),
(106,120,o),
(108,86,qs),
(112,44,o),
(202,0,o),
(262,0,qs),
(292,0,o),
(366,12,o),
(438,28,o),
(502,46,o),
(522,54,qs),
(542,62,o),
(606,86,o),
(672,114,o),
(730,142,o),
(742,152,qs),
(758,166,o),
(736,194,o),
(714,184,q),
(700,180,o),
(640,158,o),
(566,132,o),
(482,104,o),
(442,92,qs),
(378,76,o),
(266,66,o),
(248,66,qs),
(228,66,o),
(186,80,o),
(190,96,qs),
(192,106,o),
(232,144,o),
(290,192,o),
(360,246,o),
(392,270,q),
(398,276,o),
(414,288,q),
(428,288,ls),
(466,288,o),
(560,304,o),
(644,326,o),
(710,346,o),
(722,350,q),
(728,354,o),
(734,366,o),
(730,376,o),
(712,382,o),
(696,378,qs),
(668,372,o),
(556,358,o),
(504,354,q),
(560,394,o),
(668,472,o),
(700,498,qs),
(722,516,o),
(790,576,o),
(854,646,o),
(900,716,o),
(898,744,qs),
(896,770,o)
);
}
);
userData = {
assembly = "PUSHW[ ]	/* 1 value pushed */
0
CALL[ ]	/* CallFunction */
SVTCA[0]	/* SetFreedomAndProjectionVectorToAxis */
PUSHW[ ]	/* 1 value pushed */
92
MDAP[1]	/* MoveDirectAbsPt */
PUSHW[ ]	/* 1 value pushed */
0
RCVT[ ]	/* ReadCVT */
IF[ ]	/* If */
PUSHW[ ]	/* 1 value pushed */
8
MDAP[1]	/* MoveDirectAbsPt */
ELSE[ ]	/* Else */
PUSHW[ ]	/* 2 values pushed */
8 9
MIAP[0]	/* MoveIndirectAbsPt */
EIF[ ]	/* EndIf */
PUSHW[ ]	/* 1 value pushed */
0
RCVT[ ]	/* ReadCVT */
IF[ ]	/* If */
PUSHW[ ]	/* 1 value pushed */
16
MDAP[1]	/* MoveDirectAbsPt */
ELSE[ ]	/* Else */
PUSHW[ ]	/* 2 values pushed */
16 9
MIAP[0]	/* MoveIndirectAbsPt */
EIF[ ]	/* EndIf */
PUSHW[ ]	/* 1 value pushed */
0
RCVT[ ]	/* ReadCVT */
IF[ ]	/* If */
PUSHW[ ]	/* 1 value pushed */
65
MDAP[1]	/* MoveDirectAbsPt */
ELSE[ ]	/* Else */
PUSHW[ ]	/* 2 values pushed */
65 9
MIAP[0]	/* MoveIndirectAbsPt */
EIF[ ]	/* EndIf */
PUSHW[ ]	/* 1 value pushed */
0
RCVT[ ]	/* ReadCVT */
IF[ ]	/* If */
PUSHW[ ]	/* 1 value pushed */
71
MDAP[1]	/* MoveDirectAbsPt */
ELSE[ ]	/* Else */
PUSHW[ ]	/* 2 values pushed */
71 9
MIAP[0]	/* MoveIndirectAbsPt */
EIF[ ]	/* EndIf */
PUSHW[ ]	/* 1 value pushed */
0
RCVT[ ]	/* ReadCVT */
IF[ ]	/* If */
PUSHW[ ]	/* 1 value pushed */
53
MDAP[1]	/* MoveDirectAbsPt */
ELSE[ ]	/* Else */
PUSHW[ ]	/* 2 values pushed */
53 5
MIAP[0]	/* MoveIndirectAbsPt */
EIF[ ]	/* EndIf */
PUSHW[ ]	/* 3 values pushed */
105 82 3
CALL[ ]	/* CallFunction */
PUSHW[ ]	/* 1 value pushed */
71
SRP0[ ]	/* SetRefPoint0 */
PUSHW[ ]	/* 1 value pushed */
21
MDRP[11100]	/* MoveDirectRelPt */
PUSHW[ ]	/* 1 value pushed */
53
SRP0[ ]	/* SetRefPoint0 */
PUSHW[ ]	/* 1 value pushed */
32
MDRP[11100]	/* MoveDirectRelPt */
NPUSHW[ ]	/* 27 values pushed */
7 32 23 32 39 32 55 32 71 32 87 32 103 32 119 32 135 32 151 32 167 32 183 32 199 32 13
DELTAP1[ ]	/* DeltaExceptionP1 */
NPUSHW[ ]	/* 5 values pushed */
214 32 230 32 2
DELTAP1[ ]	/* DeltaExceptionP1 */
PUSHW[ ]	/* 3 values pushed */
62 71 21
SRP1[ ]	/* SetRefPoint1 */
SRP2[ ]	/* SetRefPoint2 */
IP[ ]	/* InterpolatePts */
SVTCA[1]	/* SetFreedomAndProjectionVectorToAxis */
PUSHW[ ]	/* 3 values pushed */
29 56 3
CALL[ ]	/* CallFunction */
NPUSHW[ ]	/* 27 values pushed */
6 29 22 29 38 29 54 29 70 29 86 29 102 29 118 29 134 29 150 29 166 29 182 29 198 29 13
DELTAP1[ ]	/* DeltaExceptionP1 */
NPUSHW[ ]	/* 5 values pushed */
213 29 229 29 2
DELTAP1[ ]	/* DeltaExceptionP1 */
IUP[0]	/* InterpolateUntPts */
IUP[1]	/* InterpolateUntPts */";
};
width = 958;
}
);
note = Z;
unicode = 90;
},
{
glyphname = bracketleft;
lastChange = "2025-12-26 02:35:02 +0000";
layers = (
{
layerId = m01;
shapes = (
{
closed = 1;
nodes = (
(590,748,o),
(604,770,o),
(600,796,o),
(580,818,o),
(560,818,qs),
(510,816,o),
(390,812,o),
(284,802,o),
(208,784,o),
(200,766,qs),
(194,752,o),
(204,730,o),
(222,704,o),
(236,670,o),
(232,644,qs),
(224,586,o),
(168,432,o),
(108,280,o),
(60,152,o),
(60,120,qs),
(60,70,o),
(146,-20,o),
(222,-20,qs),
(262,-20,o),
(318,-4,o),
(366,18,o),
(406,44,o),
(426,56,qs),
(442,66,o),
(438,94,o),
(414,88,qs),
(378,78,o),
(288,50,o),
(238,50,qs),
(226,50,ls),
(182,54,o),
(126,102,o),
(134,152,qs),
(140,192,o),
(182,308,o),
(234,440,o),
(284,570,o),
(298,620,qs),
(306,652,o),
(306,692,o),
(300,716,o),
(298,730,o),
(304,732,qs),
(316,738,o),
(390,746,o),
(474,750,o),
(556,750,o),
(576,748,qs),
(578,748,ls)
);
}
);
userData = {
assembly = "PUSHW[ ]	/* 1 value pushed */
0
CALL[ ]	/* CallFunction */
SVTCA[0]	/* SetFreedomAndProjectionVectorToAxis */
PUSHW[ ]	/* 1 value pushed */
0
MDAP[1]	/* MoveDirectAbsPt */
PUSHW[ ]	/* 1 value pushed */
0
RCVT[ ]	/* ReadCVT */
IF[ ]	/* If */
PUSHW[ ]	/* 1 value pushed */
30
MDAP[1]	/* MoveDirectAbsPt */
ELSE[ ]	/* Else */
PUSHW[ ]	/* 2 values pushed */
30 5
MIAP[0]	/* MoveIndirectAbsPt */
EIF[ ]	/* EndIf */
PUSHW[ ]	/* 1 value pushed */
18
MDRP[11100]	/* MoveDirectRelPt */
IUP[0]	/* InterpolateUntPts */
IUP[1]	/* InterpolateUntPts */";
};
width = 662;
}
);
note = bracketleft;
unicode = 91;
},
{
glyphname = backslash;
lastChange = "2025-12-26 02:35:02 +0000";
layers = (
{
layerId = m01;
shapes = (
{
closed = 1;
nodes = (
(331,278,o),
(395,184,o),
(443,112,o),
(455,92,qs),
(463,76,o),
(479,76,qs),
(491,76,o),
(509,96,o),
(505,112,qs),
(501,132,o),
(465,198,o),
(417,274,o),
(369,348,o),
(351,374,qs),
(315,428,o),
(243,544,o),
(181,646,o),
(137,724,o),
(127,742,qs),
(119,760,o),
(99,760,qs),
(81,760,o),
(55,734,o),
(63,716,qs),
(73,698,o),
(109,630,o),
(155,552,o),
(203,472,o),
(221,444,qs),
(259,388,o)
);
}
);
userData = {
assembly = "PUSHW[ ]	/* 1 value pushed */
0
CALL[ ]	/* CallFunction */
SVTCA[0]	/* SetFreedomAndProjectionVectorToAxis */
PUSHW[ ]	/* 3 values pushed */
8 10 3
CALL[ ]	/* CallFunction */
IUP[0]	/* InterpolateUntPts */
IUP[1]	/* InterpolateUntPts */";
};
width = 566;
}
);
note = backslash;
unicode = 92;
},
{
glyphname = bracketright;
lastChange = "2025-12-26 02:35:02 +0000";
layers = (
{
layerId = m01;
shapes = (
{
closed = 1;
nodes = (
(248,714,o),
(306,714,qs),
(352,714,o),
(432,726,o),
(448,726,qs),
(460,726,o),
(456,720,qs),
(454,718,o),
(432,688,o),
(408,630,o),
(388,542,o),
(388,480,qs),
(388,424,o),
(410,290,o),
(432,170,o),
(446,80,o),
(440,68,qs),
(434,58,o),
(412,58,qs),
(378,58,o),
(268,86,o),
(230,88,qs),
(206,88,o),
(164,84,o),
(134,72,o),
(124,56,o),
(134,44,qs),
(144,32,o),
(214,22,o),
(252,14,qs),
(302,4,o),
(384,-16,o),
(412,-18,qs),
(462,-20,o),
(514,16,o),
(518,50,qs),
(522,78,o),
(506,172,o),
(484,280,o),
(464,392,o),
(462,440,qs),
(458,514,o),
(474,602,o),
(500,662,o),
(532,704,o),
(544,730,qs),
(554,750,o),
(558,788,o),
(550,800,qs),
(542,812,o),
(518,812,qs),
(494,812,o),
(448,800,qs),
(382,782,o),
(314,782,qs),
(218,782,o),
(160,818,q),
(132,838,o),
(102,838,qs),
(74,838,o),
(52,806,o),
(80,780,qs),
(126,740,o)
);
}
);
userData = {
assembly = "PUSHW[ ]	/* 1 value pushed */
0
CALL[ ]	/* CallFunction */
SVTCA[0]	/* SetFreedomAndProjectionVectorToAxis */
PUSHW[ ]	/* 1 value pushed */
40
MDAP[1]	/* MoveDirectAbsPt */
PUSHW[ ]	/* 1 value pushed */
0
RCVT[ ]	/* ReadCVT */
IF[ ]	/* If */
PUSHW[ ]	/* 1 value pushed */
29
MDAP[1]	/* MoveDirectAbsPt */
ELSE[ ]	/* Else */
PUSHW[ ]	/* 2 values pushed */
29 5
MIAP[0]	/* MoveIndirectAbsPt */
EIF[ ]	/* EndIf */
PUSHW[ ]	/* 3 values pushed */
3 11 3
CALL[ ]	/* CallFunction */
PUSHW[ ]	/* 1 value pushed */
11
SRP0[ ]	/* SetRefPoint0 */
PUSHW[ ]	/* 1 value pushed */
7
MDRP[11100]	/* MoveDirectRelPt */
PUSHW[ ]	/* 1 value pushed */
29
SRP0[ ]	/* SetRefPoint0 */
PUSHW[ ]	/* 1 value pushed */
43
MDRP[11100]	/* MoveDirectRelPt */
NPUSHW[ ]	/* 27 values pushed */
7 43 23 43 39 43 55 43 71 43 87 43 103 43 119 43 135 43 151 43 167 43 183 43 199 43 13
DELTAP1[ ]	/* DeltaExceptionP1 */
NPUSHW[ ]	/* 5 values pushed */
214 43 230 43 2
DELTAP1[ ]	/* DeltaExceptionP1 */
PUSHW[ ]	/* 1 value pushed */
7
SRP0[ ]	/* SetRefPoint0 */
PUSHW[ ]	/* 1 value pushed */
60
MDRP[11100]	/* MoveDirectRelPt */
PUSHW[ ]	/* 1 value pushed */
57
MDRP[10000]	/* MoveDirectRelPt */
PUSHW[ ]	/* 1 value pushed */
57
MDAP[1]	/* MoveDirectAbsPt */
SVTCA[1]	/* SetFreedomAndProjectionVectorToAxis */
PUSHW[ ]	/* 3 values pushed */
55 50 3
CALL[ ]	/* CallFunction */
PUSHW[ ]	/* 1 value pushed */
55
SRP0[ ]	/* SetRefPoint0 */
PUSHW[ ]	/* 1 value pushed */
21
MDRP[10000]	/* MoveDirectRelPt */
PUSHW[ ]	/* 1 value pushed */
21
MDAP[1]	/* MoveDirectAbsPt */
NPUSHW[ ]	/* 5 values pushed */
218 50 234 50 2
DELTAP1[ ]	/* DeltaExceptionP1 */
NPUSHW[ ]	/* 27 values pushed */
9 50 25 50 41 50 57 50 73 50 89 50 105 50 121 50 137 50 153 50 169 50 185 50 201 50 13
DELTAP1[ ]	/* DeltaExceptionP1 */
PUSHW[ ]	/* 3 values pushed */
57 50 55
SRP1[ ]	/* SetRefPoint1 */
SRP2[ ]	/* SetRefPoint2 */
IP[ ]	/* InterpolatePts */
IUP[0]	/* InterpolateUntPts */
IUP[1]	/* InterpolateUntPts */";
};
width = 616;
}
);
note = bracketright;
unicode = 93;
},
{
glyphname = asciicircum;
lastChange = "2025-12-26 02:35:02 +0000";
layers = (
{
layerId = m01;
shapes = (
{
closed = 1;
nodes = (
(85,520,o),
(99,520,qs),
(111,520,o),
(119,528,qs),
(141,548,o),
(199,612,o),
(253,674,o),
(297,718,o),
(305,718,q),
(317,696,o),
(349,638,o),
(391,588,o),
(439,552,o),
(467,552,qs),
(471,552,o),
(479,554,o),
(483,554,q),
(505,558,o),
(497,590,o),
(477,600,qs),
(457,610,o),
(421,652,o),
(391,702,o),
(363,756,o),
(349,776,qs),
(335,796,o),
(309,796,qs),
(289,796,o),
(271,778,qs),
(219,722,o),
(139,628,o),
(85,582,q),
(75,572,o),
(57,558,o),
(61,548,qs),
(65,538,o)
);
}
);
userData = {
assembly = "PUSHW[ ]	/* 1 value pushed */
0
CALL[ ]	/* CallFunction */
SVTCA[0]	/* SetFreedomAndProjectionVectorToAxis */
PUSHW[ ]	/* 3 values pushed */
8 26 3
CALL[ ]	/* CallFunction */
IUP[0]	/* InterpolateUntPts */
IUP[1]	/* InterpolateUntPts */";
};
width = 562;
}
);
note = asciicircum;
unicode = 94;
},
{
glyphname = underscore;
lastChange = "2025-12-26 02:35:02 +0000";
layers = (
{
layerId = m01;
shapes = (
{
closed = 1;
nodes = (
(508,70,o),
(468,68,qs),
(444,68,o),
(374,62,o),
(302,58,o),
(240,56,o),
(222,58,qs),
(184,62,o),
(120,76,o),
(90,80,q),
(66,80,o),
(56,40,o),
(78,24,qs),
(100,8,o),
(194,-6,o),
(234,-8,qs),
(250,-8,o),
(308,-4,o),
(376,2,o),
(442,10,o),
(468,16,qs),
(514,26,o)
);
}
);
userData = {
assembly = "PUSHW[ ]	/* 1 value pushed */
0
CALL[ ]	/* CallFunction */
SVTCA[0]	/* SetFreedomAndProjectionVectorToAxis */
PUSHW[ ]	/* 1 value pushed */
11
MDAP[1]	/* MoveDirectAbsPt */
PUSHW[ ]	/* 1 value pushed */
19
MDAP[1]	/* MoveDirectAbsPt */
PUSHW[ ]	/* 1 value pushed */
14
MDAP[1]	/* MoveDirectAbsPt */
PUSHW[ ]	/* 1 value pushed */
0
RCVT[ ]	/* ReadCVT */
IF[ ]	/* If */
PUSHW[ ]	/* 1 value pushed */
5
MDAP[1]	/* MoveDirectAbsPt */
ELSE[ ]	/* Else */
PUSHW[ ]	/* 2 values pushed */
5 5
MIAP[0]	/* MoveIndirectAbsPt */
EIF[ ]	/* EndIf */
IUP[0]	/* InterpolateUntPts */
IUP[1]	/* InterpolateUntPts */";
};
width = 571;
}
);
note = underscore;
unicode = 95;
},
{
glyphname = grave;
lastChange = "2025-12-26 06:11:05 +0000";
layers = (
{
layerId = m01;
shapes = (
{
closed = 1;
nodes = (
(177,436,qs),
(193,440,o),
(189,465,o),
(166,476,qs),
(147,485,o),
(122,524,o),
(110,546,qs),
(102,560,o),
(83,560,qs),
(73,560,o),
(57,548,o),
(61,536,qs),
(67,518,o),
(85,484,o),
(97,472,qs),
(137,428,o)
);
}
);
userData = {
assembly = "PUSHW[ ]	/* 1 value pushed */
0
CALL[ ]	/* CallFunction */
SVTCA[0]	/* SetFreedomAndProjectionVectorToAxis */
PUSHW[ ]	/* 1 value pushed */
6
MDAP[1]	/* MoveDirectAbsPt */
PUSHW[ ]	/* 1 value pushed */
8
MDAP[1]	/* MoveDirectAbsPt */
IUP[0]	/* InterpolateUntPts */
IUP[1]	/* InterpolateUntPts */";
};
width = 251;
}
);
note = grave;
unicode = 96;
},
{
glyphname = a;
lastChange = "2025-12-26 05:25:50 +0000";
layers = (
{
layerId = m01;
shapes = (
{
closed = 1;
nodes = (
(271,112,o),
(233,88,o),
(187,70,o),
(167,70,qs),
(141,72,o),
(125,102,o),
(129,124,qs),
(133,148,o),
(175,200,o),
(229,246,o),
(289,274,o),
(313,274,qs),
(335,274,o),
(365,264,o),
(375,258,q),
(367,248,o),
(351,224,o),
(345,210,qs),
(335,188,o),
(311,144,o),
(307,140,qs),
(301,134,o)
);
},
{
closed = 1;
nodes = (
(437,54,o),
(401,54,qs),
(383,54,o),
(383,94,o),
(387,110,qs),
(389,118,o),
(413,142,o),
(427,158,qs),
(463,194,o),
(477,220,qs),
(487,238,o),
(497,278,o),
(491,292,qs),
(481,316,o),
(453,316,qs),
(441,316,o),
(431,310,qs),
(423,306,o),
(409,292,q),
(391,308,o),
(339,330,o),
(305,330,qs),
(253,330,o),
(151,270,o),
(117,232,qs),
(101,214,o),
(57,142,o),
(61,96,qs),
(65,62,o),
(121,0,o),
(161,0,q),
(185,2,o),
(236,19,o),
(257,30,qs),
(282,43,o),
(305,60,q),
(317,42,o),
(333,28,qs),
(345,16,o),
(379,-4,o),
(397,-4,qs),
(419,-4,o),
(463,18,o),
(501,44,o),
(527,70,o),
(533,76,qs),
(543,86,o),
(537,108,o),
(521,108,qs),
(517,108,o),
(505,104,qs),
(485,96,o)
);
}
);
userData = {
assembly = "PUSHW[ ]	/* 1 value pushed */
0
CALL[ ]	/* CallFunction */
SVTCA[0]	/* SetFreedomAndProjectionVectorToAxis */
PUSHW[ ]	/* 1 value pushed */
22
MDAP[1]	/* MoveDirectAbsPt */
PUSHW[ ]	/* 1 value pushed */
24
MDAP[1]	/* MoveDirectAbsPt */
PUSHW[ ]	/* 1 value pushed */
45
MDAP[1]	/* MoveDirectAbsPt */
PUSHW[ ]	/* 1 value pushed */
68
MDAP[1]	/* MoveDirectAbsPt */
PUSHW[ ]	/* 1 value pushed */
0
RCVT[ ]	/* ReadCVT */
IF[ ]	/* If */
PUSHW[ ]	/* 1 value pushed */
32
MDAP[1]	/* MoveDirectAbsPt */
ELSE[ ]	/* Else */
PUSHW[ ]	/* 2 values pushed */
32 5
MIAP[0]	/* MoveIndirectAbsPt */
EIF[ ]	/* EndIf */
PUSHW[ ]	/* 1 value pushed */
0
RCVT[ ]	/* ReadCVT */
IF[ ]	/* If */
PUSHW[ ]	/* 1 value pushed */
42
MDAP[1]	/* MoveDirectAbsPt */
ELSE[ ]	/* Else */
PUSHW[ ]	/* 2 values pushed */
42 5
MIAP[0]	/* MoveIndirectAbsPt */
EIF[ ]	/* EndIf */
PUSHW[ ]	/* 3 values pushed */
51 9 3
CALL[ ]	/* CallFunction */
PUSHW[ ]	/* 1 value pushed */
42
SRP0[ ]	/* SetRefPoint0 */
PUSHW[ ]	/* 1 value pushed */
17
MDRP[11100]	/* MoveDirectRelPt */
NPUSHW[ ]	/* 27 values pushed */
7 17 23 17 39 17 55 17 71 17 87 17 103 17 119 17 135 17 151 17 167 17 183 17 199 17 13
DELTAP1[ ]	/* DeltaExceptionP1 */
NPUSHW[ ]	/* 5 values pushed */
214 17 230 17 2
DELTAP1[ ]	/* DeltaExceptionP1 */
PUSHW[ ]	/* 1 value pushed */
51
SRP0[ ]	/* SetRefPoint0 */
PUSHW[ ]	/* 1 value pushed */
58
MDRP[10000]	/* MoveDirectRelPt */
PUSHW[ ]	/* 1 value pushed */
58
MDAP[1]	/* MoveDirectAbsPt */
PUSHW[ ]	/* 1 value pushed */
32
SRP0[ ]	/* SetRefPoint0 */
PUSHW[ ]	/* 1 value pushed */
71
MDRP[11100]	/* MoveDirectRelPt */
NPUSHW[ ]	/* 27 values pushed */
7 71 23 71 39 71 55 71 71 71 87 71 103 71 119 71 135 71 151 71 167 71 183 71 199 71 13
DELTAP1[ ]	/* DeltaExceptionP1 */
NPUSHW[ ]	/* 5 values pushed */
214 71 230 71 2
DELTAP1[ ]	/* DeltaExceptionP1 */
IUP[0]	/* InterpolateUntPts */
IUP[1]	/* InterpolateUntPts */";
};
width = 601;
}
);
note = a;
unicode = 97;
},
{
glyphname = b;
lastChange = "2025-12-26 02:35:02 +0000";
layers = (
{
layerId = m01;
shapes = (
{
closed = 1;
nodes = (
(242,42,o),
(208,42,qs),
(176,42,o),
(130,74,o),
(124,96,q),
(122,112,o),
(168,138,o),
(186,164,qs),
(196,180,o),
(242,216,o),
(296,250,o),
(348,272,o),
(366,272,qs),
(404,270,o),
(422,226,o),
(418,200,qs),
(414,172,o),
(370,96,o),
(336,76,qs),
(306,60,o)
);
},
{
closed = 1;
nodes = (
(268,304,o),
(224,276,o),
(196,256,o),
(192,256,qs),
(182,256,o),
(206,296,o),
(218,324,qs),
(224,336,o),
(252,390,o),
(286,450,o),
(322,508,o),
(336,528,qs),
(362,566,o),
(406,618,o),
(412,640,qs),
(416,652,o),
(396,676,o),
(382,676,qs),
(372,676,o),
(362,666,qs),
(346,650,o),
(306,584,o),
(292,562,qs),
(278,538,o),
(224,442,o),
(198,396,qs),
(182,368,o),
(132,278,o),
(106,228,qs),
(90,196,o),
(62,140,o),
(60,110,qs),
(58,88,o),
(88,44,o),
(138,10,o),
(198,-14,o),
(226,-14,qs),
(232,-14,ls),
(284,-14,o),
(376,24,o),
(442,92,o),
(482,184,o),
(484,236,qs),
(484,264,o),
(458,302,o),
(418,324,o),
(370,332,o),
(346,330,qs),
(320,328,o)
);
}
);
userData = {
assembly = "PUSHW[ ]	/* 1 value pushed */
0
CALL[ ]	/* CallFunction */
SVTCA[0]	/* SetFreedomAndProjectionVectorToAxis */
PUSHW[ ]	/* 1 value pushed */
48
MDAP[1]	/* MoveDirectAbsPt */
PUSHW[ ]	/* 1 value pushed */
50
MDAP[1]	/* MoveDirectAbsPt */
PUSHW[ ]	/* 1 value pushed */
0
RCVT[ ]	/* ReadCVT */
IF[ ]	/* If */
PUSHW[ ]	/* 1 value pushed */
30
MDAP[1]	/* MoveDirectAbsPt */
ELSE[ ]	/* Else */
PUSHW[ ]	/* 2 values pushed */
30 5
MIAP[0]	/* MoveIndirectAbsPt */
EIF[ ]	/* EndIf */
PUSHW[ ]	/* 3 values pushed */
20 6 3
CALL[ ]	/* CallFunction */
PUSHW[ ]	/* 1 value pushed */
30
SRP0[ ]	/* SetRefPoint0 */
PUSHW[ ]	/* 1 value pushed */
17
MDRP[11100]	/* MoveDirectRelPt */
NPUSHW[ ]	/* 27 values pushed */
7 17 23 17 39 17 55 17 71 17 87 17 103 17 119 17 135 17 151 17 167 17 183 17 199 17 13
DELTAP1[ ]	/* DeltaExceptionP1 */
NPUSHW[ ]	/* 5 values pushed */
214 17 230 17 2
DELTAP1[ ]	/* DeltaExceptionP1 */
SVTCA[1]	/* SetFreedomAndProjectionVectorToAxis */
PUSHW[ ]	/* 3 values pushed */
25 3 3
CALL[ ]	/* CallFunction */
NPUSHW[ ]	/* 5 values pushed */
218 3 234 3 2
DELTAP1[ ]	/* DeltaExceptionP1 */
NPUSHW[ ]	/* 27 values pushed */
9 3 25 3 41 3 57 3 73 3 89 3 105 3 121 3 137 3 153 3 169 3 185 3 201 3 13
DELTAP1[ ]	/* DeltaExceptionP1 */
IUP[0]	/* InterpolateUntPts */
IUP[1]	/* InterpolateUntPts */";
};
width = 544;
}
);
note = b;
unicode = 98;
},
{
glyphname = c;
lastChange = "2025-12-26 02:35:02 +0000";
layers = (
{
layerId = m01;
shapes = (
{
closed = 1;
nodes = (
(356,248,qs),
(368,248,o),
(382,264,o),
(374,280,qs),
(356,318,o),
(286,318,q),
(268,320,o),
(182,292,o),
(142,258,qs),
(64,192,o),
(60,128,qs),
(60,110,o),
(72,66,o),
(104,26,o),
(158,-2,o),
(200,-2,qs),
(240,-2,o),
(324,26,o),
(398,64,o),
(454,98,o),
(464,104,qs),
(472,108,o),
(486,122,o),
(486,132,o),
(472,136,o),
(452,132,qs),
(430,126,o),
(368,102,o),
(300,80,o),
(232,62,o),
(204,62,qs),
(190,62,l),
(160,66,o),
(128,116,o),
(132,144,qs),
(134,158,o),
(156,188,o),
(186,218,o),
(216,240,o),
(226,246,qs),
(242,254,o),
(286,264,o),
(304,264,qs),
(322,264,o),
(330,258,qs),
(344,248,o)
);
}
);
userData = {
assembly = "PUSHW[ ]	/* 1 value pushed */
0
CALL[ ]	/* CallFunction */
SVTCA[0]	/* SetFreedomAndProjectionVectorToAxis */
PUSHW[ ]	/* 1 value pushed */
0
RCVT[ ]	/* ReadCVT */
IF[ ]	/* If */
PUSHW[ ]	/* 1 value pushed */
29
MDAP[1]	/* MoveDirectAbsPt */
ELSE[ ]	/* Else */
PUSHW[ ]	/* 2 values pushed */
29 5
MIAP[0]	/* MoveIndirectAbsPt */
EIF[ ]	/* EndIf */
PUSHW[ ]	/* 3 values pushed */
39 2 3
CALL[ ]	/* CallFunction */
PUSHW[ ]	/* 1 value pushed */
29
SRP0[ ]	/* SetRefPoint0 */
PUSHW[ ]	/* 1 value pushed */
13
MDRP[11100]	/* MoveDirectRelPt */
SVTCA[1]	/* SetFreedomAndProjectionVectorToAxis */
PUSHW[ ]	/* 3 values pushed */
10 34 3
CALL[ ]	/* CallFunction */
NPUSHW[ ]	/* 27 values pushed */
6 10 22 10 38 10 54 10 70 10 86 10 102 10 118 10 134 10 150 10 166 10 182 10 198 10 13
DELTAP1[ ]	/* DeltaExceptionP1 */
NPUSHW[ ]	/* 5 values pushed */
213 10 229 10 2
DELTAP1[ ]	/* DeltaExceptionP1 */
IUP[0]	/* InterpolateUntPts */
IUP[1]	/* InterpolateUntPts */";
};
width = 546;
}
);
note = c;
unicode = 99;
},
{
glyphname = d;
lastChange = "2025-12-26 02:35:02 +0000";
layers = (
{
layerId = m01;
shapes = (
{
closed = 1;
nodes = (
(177,40,o),
(147,44,q),
(129,44,o),
(127,98,o),
(137,126,qs),
(147,156,o),
(189,208,o),
(247,246,o),
(311,268,o),
(343,268,qs),
(361,268,o),
(393,262,o),
(405,258,q),
(377,226,o),
(309,144,o),
(275,116,qs),
(243,88,o)
);
},
{
closed = 1;
nodes = (
(657,704,o),
(627,650,o),
(597,590,o),
(583,564,qs),
(571,544,o),
(533,472,o),
(491,392,o),
(449,318,o),
(433,296,q),
(421,306,o),
(381,322,o),
(345,322,qs),
(297,322,o),
(201,290,o),
(121,234,o),
(67,152,o),
(61,102,qs),
(59,88,o),
(63,50,o),
(79,14,o),
(113,-12,o),
(139,-12,qs),
(149,-12,l),
(183,-8,o),
(257,36,o),
(321,90,o),
(365,134,o),
(367,138,q),
(365,126,o),
(365,92,o),
(369,56,o),
(379,26,o),
(389,20,qs),
(409,10,o),
(435,10,qs),
(455,10,o),
(463,14,qs),
(473,18,o),
(481,36,o),
(467,40,qs),
(443,48,o),
(435,74,o),
(435,98,qs),
(437,154,o),
(479,246,o),
(513,304,qs),
(529,328,o),
(603,452,o),
(681,592,o),
(745,716,o),
(749,738,qs),
(753,754,o),
(735,770,o),
(721,770,qs),
(709,770,o),
(693,758,q),
(683,748,o)
);
}
);
userData = {
assembly = "PUSHW[ ]	/* 1 value pushed */
0
CALL[ ]	/* CallFunction */
SVTCA[0]	/* SetFreedomAndProjectionVectorToAxis */
PUSHW[ ]	/* 1 value pushed */
36
MDAP[1]	/* MoveDirectAbsPt */
PUSHW[ ]	/* 1 value pushed */
38
MDAP[1]	/* MoveDirectAbsPt */
PUSHW[ ]	/* 1 value pushed */
40
MDAP[1]	/* MoveDirectAbsPt */
PUSHW[ ]	/* 1 value pushed */
0
RCVT[ ]	/* ReadCVT */
IF[ ]	/* If */
PUSHW[ ]	/* 1 value pushed */
50
MDAP[1]	/* MoveDirectAbsPt */
ELSE[ ]	/* Else */
PUSHW[ ]	/* 2 values pushed */
50 5
MIAP[0]	/* MoveIndirectAbsPt */
EIF[ ]	/* EndIf */
PUSHW[ ]	/* 3 values pushed */
61 6 3
CALL[ ]	/* CallFunction */
PUSHW[ ]	/* 1 value pushed */
50
SRP0[ ]	/* SetRefPoint0 */
PUSHW[ ]	/* 1 value pushed */
14
MDRP[11100]	/* MoveDirectRelPt */
NPUSHW[ ]	/* 27 values pushed */
7 14 23 14 39 14 55 14 71 14 87 14 103 14 119 14 135 14 151 14 167 14 183 14 199 14 13
DELTAP1[ ]	/* DeltaExceptionP1 */
NPUSHW[ ]	/* 5 values pushed */
214 14 230 14 2
DELTAP1[ ]	/* DeltaExceptionP1 */
IUP[0]	/* InterpolateUntPts */
IUP[1]	/* InterpolateUntPts */";
};
width = 810;
}
);
note = d;
unicode = 100;
},
{
glyphname = e;
lastChange = "2025-12-26 02:35:02 +0000";
layers = (
{
layerId = m01;
shapes = (
{
closed = 1;
nodes = (
(322,228,o),
(282,208,qs),
(248,192,o),
(186,184,o),
(158,184,q),
(174,218,o),
(192,232,qs),
(198,236,o),
(224,254,o),
(256,270,o),
(292,280,o),
(308,274,qs),
(348,260,o)
);
},
{
closed = 1;
nodes = (
(278,60,o),
(232,54,qs),
(188,50,o),
(148,76,o),
(140,94,qs),
(136,106,o),
(140,126,q),
(150,122,o),
(166,122,o),
(176,122,qs),
(210,122,o),
(276,142,o),
(294,152,qs),
(306,158,o),
(346,182,o),
(382,210,o),
(408,242,o),
(408,256,q),
(404,284,o),
(332,338,o),
(286,338,qs),
(248,338,o),
(174,298,o),
(148,272,qs),
(118,244,o),
(62,164,o),
(60,120,qs),
(58,62,o),
(126,-10,o),
(190,-10,qs),
(230,-10,o),
(342,26,o),
(376,46,qs),
(404,62,o),
(404,100,o),
(382,96,qs),
(360,92,o)
);
}
);
userData = {
assembly = "PUSHW[ ]	/* 1 value pushed */
0
CALL[ ]	/* CallFunction */
SVTCA[0]	/* SetFreedomAndProjectionVectorToAxis */
PUSHW[ ]	/* 1 value pushed */
28
MDAP[1]	/* MoveDirectAbsPt */
PUSHW[ ]	/* 1 value pushed */
13
MDAP[1]	/* MoveDirectAbsPt */
PUSHW[ ]	/* 1 value pushed */
44
MDAP[1]	/* MoveDirectAbsPt */
PUSHW[ ]	/* 1 value pushed */
0
RCVT[ ]	/* ReadCVT */
IF[ ]	/* If */
PUSHW[ ]	/* 1 value pushed */
19
MDAP[1]	/* MoveDirectAbsPt */
ELSE[ ]	/* Else */
PUSHW[ ]	/* 2 values pushed */
19 5
MIAP[0]	/* MoveIndirectAbsPt */
EIF[ ]	/* EndIf */
PUSHW[ ]	/* 3 values pushed */
7 39 3
CALL[ ]	/* CallFunction */
IUP[0]	/* InterpolateUntPts */
IUP[1]	/* InterpolateUntPts */";
};
width = 468;
}
);
note = e;
unicode = 101;
},
{
glyphname = f;
lastChange = "2025-12-26 02:35:02 +0000";
layers = (
{
layerId = m01;
shapes = (
{
closed = 1;
nodes = (
(419,740,o),
(365,658,o),
(325,568,o),
(313,536,qs),
(269,428,o),
(221,202,o),
(209,88,q),
(171,86,o),
(89,84,o),
(73,74,qs),
(57,62,o),
(63,26,o),
(93,20,qs),
(115,16,o),
(161,20,o),
(205,22,q),
(203,-12,o),
(201,-86,o),
(199,-150,o),
(195,-198,o),
(191,-210,qs),
(187,-224,o),
(197,-238,o),
(205,-238,qs),
(223,-238,o),
(235,-222,qs),
(247,-206,o),
(267,-120,o),
(267,-86,qs),
(267,-70,o),
(269,-14,o),
(271,22,q),
(297,24,o),
(391,44,o),
(489,70,o),
(573,104,o),
(589,122,qs),
(601,134,o),
(575,134,qs),
(563,134,o),
(527,130,o),
(491,124,o),
(459,116,o),
(451,114,qs),
(409,104,o),
(321,94,o),
(277,90,q),
(283,152,o),
(307,292,o),
(341,430,o),
(387,560,o),
(417,614,q),
(423,630,o),
(449,674,o),
(483,712,o),
(523,738,o),
(543,738,qs),
(571,738,o),
(595,696,o),
(597,676,qs),
(597,664,o),
(591,634,o),
(587,610,o),
(587,592,o),
(595,588,q),
(613,582,o),
(637,602,o),
(651,634,o),
(655,672,o),
(655,680,qs),
(655,704,o),
(633,746,o),
(597,778,o),
(553,798,o),
(531,798,qs),
(487,798,o)
);
}
);
userData = {
assembly = "PUSHW[ ]	/* 1 value pushed */
0
CALL[ ]	/* CallFunction */
SVTCA[0]	/* SetFreedomAndProjectionVectorToAxis */
PUSHW[ ]	/* 1 value pushed */
43
MDAP[1]	/* MoveDirectAbsPt */
PUSHW[ ]	/* 1 value pushed */
59
MDAP[1]	/* MoveDirectAbsPt */
PUSHW[ ]	/* 1 value pushed */
62
MDAP[1]	/* MoveDirectAbsPt */
PUSHW[ ]	/* 3 values pushed */
0 18 3
CALL[ ]	/* CallFunction */
PUSHW[ ]	/* 1 value pushed */
43
SRP0[ ]	/* SetRefPoint0 */
PUSHW[ ]	/* 1 value pushed */
28
MDRP[11100]	/* MoveDirectRelPt */
PUSHW[ ]	/* 1 value pushed */
68
MDRP[10000]	/* MoveDirectRelPt */
PUSHW[ ]	/* 1 value pushed */
68
MDAP[1]	/* MoveDirectAbsPt */
SVTCA[1]	/* SetFreedomAndProjectionVectorToAxis */
PUSHW[ ]	/* 3 values pushed */
5 15 3
CALL[ ]	/* CallFunction */
NPUSHW[ ]	/* 5 values pushed */
218 15 234 15 2
DELTAP1[ ]	/* DeltaExceptionP1 */
NPUSHW[ ]	/* 27 values pushed */
9 15 25 15 41 15 57 15 73 15 89 15 105 15 121 15 137 15 153 15 169 15 185 15 201 15 13
DELTAP1[ ]	/* DeltaExceptionP1 */
IUP[0]	/* InterpolateUntPts */
IUP[1]	/* InterpolateUntPts */";
};
width = 715;
}
);
note = f;
unicode = 102;
},
{
glyphname = g;
lastChange = "2025-12-26 02:35:02 +0000";
layers = (
{
layerId = m01;
shapes = (
{
closed = 1;
nodes = (
(216,82,o),
(212,106,qs),
(210,124,o),
(224,156,o),
(250,184,o),
(282,208,o),
(296,216,q),
(318,232,o),
(376,258,o),
(416,256,qs),
(448,256,o),
(458,244,q),
(452,220,o),
(446,202,q),
(444,182,o),
(440,144,q),
(426,132,o),
(378,106,o),
(330,82,o),
(284,66,o),
(268,66,qs),
(244,66,o)
);
},
{
closed = 1;
nodes = (
(530,202,q),
(526,198,o),
(514,190,o),
(506,186,q),
(506,192,o),
(510,200,q),
(516,218,o),
(552,266,o),
(562,270,q),
(584,282,o),
(578,252,qs),
(574,236,o)
);
},
{
closed = 1;
nodes = (
(510,306,o),
(496,292,q),
(494,292,l),
(480,304,o),
(440,314,o),
(416,314,qs),
(378,314,o),
(286,282,o),
(202,226,o),
(144,154,o),
(142,114,qs),
(138,70,o),
(206,10,o),
(252,8,qs),
(260,8,ls),
(282,8,o),
(326,22,o),
(366,40,o),
(396,58,o),
(404,62,qs),
(410,66,o),
(428,78,o),
(440,86,q),
(440,36,o),
(464,-60,o),
(482,-106,qs),
(494,-136,o),
(508,-186,o),
(506,-206,qs),
(504,-222,o),
(472,-242,o),
(424,-258,o),
(364,-264,o),
(336,-264,qs),
(256,-264,o),
(182,-236,qs),
(148,-224,o),
(104,-194,o),
(84,-188,q),
(66,-180,o),
(56,-202,o),
(74,-220,qs),
(84,-230,o),
(162,-282,o),
(198,-298,qs),
(230,-310,o),
(314,-328,o),
(372,-328,qs),
(382,-328,o),
(404,-326,o),
(414,-326,qs),
(464,-324,o),
(528,-296,o),
(564,-258,o),
(578,-212,o),
(576,-194,qs),
(574,-180,o),
(554,-122,o),
(528,-54,o),
(506,18,o),
(502,46,qs),
(500,58,o),
(500,104,o),
(502,130,q),
(516,140,o),
(556,170,o),
(592,204,o),
(622,242,o),
(624,256,qs),
(628,280,o),
(606,330,o),
(562,326,q),
(542,326,o)
);
}
);
userData = {
assembly = "PUSHW[ ]	/* 1 value pushed */
0
CALL[ ]	/* CallFunction */
SVTCA[0]	/* SetFreedomAndProjectionVectorToAxis */
PUSHW[ ]	/* 3 values pushed */
72 55 3
CALL[ ]	/* CallFunction */
PUSHW[ ]	/* 3 values pushed */
100 11 3
CALL[ ]	/* CallFunction */
PUSHW[ ]	/* 3 values pushed */
0 91 3
CALL[ ]	/* CallFunction */
PUSHW[ ]	/* 1 value pushed */
100
SRP0[ ]	/* SetRefPoint0 */
PUSHW[ ]	/* 1 value pushed */
34
MDRP[10000]	/* MoveDirectRelPt */
PUSHW[ ]	/* 1 value pushed */
34
MDAP[1]	/* MoveDirectAbsPt */
PUSHW[ ]	/* 1 value pushed */
55
SRP0[ ]	/* SetRefPoint0 */
PUSHW[ ]	/* 1 value pushed */
58
MDRP[10000]	/* MoveDirectRelPt */
PUSHW[ ]	/* 1 value pushed */
58
MDAP[1]	/* MoveDirectAbsPt */
SVTCA[1]	/* SetFreedomAndProjectionVectorToAxis */
PUSHW[ ]	/* 3 values pushed */
42 5 3
CALL[ ]	/* CallFunction */
NPUSHW[ ]	/* 5 values pushed */
218 5 234 5 2
DELTAP1[ ]	/* DeltaExceptionP1 */
NPUSHW[ ]	/* 27 values pushed */
9 5 25 5 41 5 57 5 73 5 89 5 105 5 121 5 137 5 153 5 169 5 185 5 201 5 13
DELTAP1[ ]	/* DeltaExceptionP1 */
PUSHW[ ]	/* 1 value pushed */
5
SRP0[ ]	/* SetRefPoint0 */
PUSHW[ ]	/* 1 value pushed */
7
MDRP[10000]	/* MoveDirectRelPt */
PUSHW[ ]	/* 1 value pushed */
7
MDAP[1]	/* MoveDirectAbsPt */
PUSHW[ ]	/* 1 value pushed */
42
SRP0[ ]	/* SetRefPoint0 */
PUSHW[ ]	/* 1 value pushed */
29
MDRP[10000]	/* MoveDirectRelPt */
PUSHW[ ]	/* 1 value pushed */
29
MDAP[1]	/* MoveDirectAbsPt */
PUSHW[ ]	/* 1 value pushed */
42
SRP0[ ]	/* SetRefPoint0 */
PUSHW[ ]	/* 1 value pushed */
45
MDRP[10000]	/* MoveDirectRelPt */
PUSHW[ ]	/* 1 value pushed */
42
SRP0[ ]	/* SetRefPoint0 */
PUSHW[ ]	/* 1 value pushed */
50
MDRP[11100]	/* MoveDirectRelPt */
PUSHW[ ]	/* 1 value pushed */
42
SRP0[ ]	/* SetRefPoint0 */
PUSHW[ ]	/* 1 value pushed */
77
MDRP[10000]	/* MoveDirectRelPt */
PUSHW[ ]	/* 1 value pushed */
77
MDAP[1]	/* MoveDirectAbsPt */
PUSHW[ ]	/* 1 value pushed */
5
SRP0[ ]	/* SetRefPoint0 */
PUSHW[ ]	/* 1 value pushed */
83
MDRP[10000]	/* MoveDirectRelPt */
IUP[0]	/* InterpolateUntPts */
IUP[1]	/* InterpolateUntPts */";
};
width = 685;
}
);
note = g;
unicode = 103;
},
{
glyphname = h;
lastChange = "2025-12-26 02:35:02 +0000";
layers = (
{
layerId = m01;
shapes = (
{
closed = 1;
nodes = (
(129,352,o),
(111,282,o),
(91,204,o),
(83,168,qs),
(73,128,o),
(57,56,o),
(61,44,qs),
(71,12,o),
(97,12,qs),
(111,12,o),
(129,26,o),
(133,36,q),
(143,72,o),
(195,148,o),
(267,208,o),
(349,246,o),
(389,246,qs),
(417,246,o),
(441,210,o),
(423,164,qs),
(417,146,o),
(393,100,o),
(373,58,o),
(361,22,o),
(365,14,qs),
(373,-2,o),
(399,-12,o),
(409,-2,q),
(415,6,o),
(443,58,o),
(473,120,o),
(499,176,o),
(501,186,qs),
(503,198,o),
(507,238,o),
(491,278,o),
(447,310,o),
(399,312,qs),
(359,316,o),
(277,286,o),
(243,266,qs),
(205,242,o),
(169,212,q),
(175,246,o),
(183,284,qs),
(191,316,o),
(207,398,o),
(217,440,qs),
(229,484,o),
(251,570,o),
(267,638,o),
(277,684,o),
(277,690,q),
(273,716,o),
(255,716,qs),
(239,716,o),
(223,686,q),
(215,666,o),
(193,598,o),
(173,520,o),
(153,446,o),
(147,418,qs),
(145,406,o)
);
}
);
userData = {
assembly = "PUSHW[ ]	/* 1 value pushed */
0
CALL[ ]	/* CallFunction */
SVTCA[0]	/* SetFreedomAndProjectionVectorToAxis */
PUSHW[ ]	/* 1 value pushed */
50
MDAP[1]	/* MoveDirectAbsPt */
PUSHW[ ]	/* 1 value pushed */
55
MDAP[1]	/* MoveDirectAbsPt */
PUSHW[ ]	/* 1 value pushed */
45
MDAP[1]	/* MoveDirectAbsPt */
PUSHW[ ]	/* 3 values pushed */
19 50 45
SRP1[ ]	/* SetRefPoint1 */
SRP2[ ]	/* SetRefPoint2 */
IP[ ]	/* InterpolatePts */
IUP[0]	/* InterpolateUntPts */
IUP[1]	/* InterpolateUntPts */";
};
width = 565;
}
);
note = h;
unicode = 104;
},
{
glyphname = k;
lastChange = "2025-12-26 02:35:02 +0000";
layers = (
{
layerId = m01;
shapes = (
{
closed = 1;
nodes = (
(528,298,o),
(512,288,qs),
(470,264,o),
(354,180,o),
(308,150,qs),
(252,114,o),
(176,70,o),
(154,70,qs),
(128,70,o),
(128,106,qs),
(128,120,o),
(152,176,o),
(190,246,o),
(234,320,o),
(252,352,qs),
(282,404,o),
(352,510,o),
(414,600,o),
(460,668,o),
(466,682,qs),
(474,698,o),
(454,722,o),
(442,722,qs),
(430,722,o),
(420,710,qs),
(414,702,o),
(364,632,o),
(292,526,o),
(210,398,o),
(170,328,qs),
(124,250,o),
(62,114,o),
(60,84,qs),
(58,54,o),
(98,2,o),
(142,0,qs),
(146,0,ls),
(198,0,o),
(288,54,o),
(324,80,q),
(334,90,o),
(364,110,q),
(376,84,o),
(410,46,o),
(430,26,q),
(444,16,o),
(488,-2,o),
(506,-4,qs),
(512,-4,o),
(528,4,o),
(540,14,o),
(542,24,o),
(536,26,q),
(504,42,o),
(436,118,o),
(422,152,q),
(452,174,o),
(518,220,o),
(572,260,o),
(614,292,o),
(620,300,q),
(636,316,o),
(614,346,o),
(596,340,qs),
(580,334,o)
);
}
);
userData = {
assembly = "PUSHW[ ]	/* 1 value pushed */
0
CALL[ ]	/* CallFunction */
SVTCA[0]	/* SetFreedomAndProjectionVectorToAxis */
PUSHW[ ]	/* 1 value pushed */
39
MDAP[1]	/* MoveDirectAbsPt */
PUSHW[ ]	/* 1 value pushed */
41
MDAP[1]	/* MoveDirectAbsPt */
PUSHW[ ]	/* 1 value pushed */
0
RCVT[ ]	/* ReadCVT */
IF[ ]	/* If */
PUSHW[ ]	/* 1 value pushed */
16
MDAP[1]	/* MoveDirectAbsPt */
ELSE[ ]	/* Else */
PUSHW[ ]	/* 2 values pushed */
16 5
MIAP[0]	/* MoveIndirectAbsPt */
EIF[ ]	/* EndIf */
PUSHW[ ]	/* 1 value pushed */
0
RCVT[ ]	/* ReadCVT */
IF[ ]	/* If */
PUSHW[ ]	/* 1 value pushed */
27
MDAP[1]	/* MoveDirectAbsPt */
ELSE[ ]	/* Else */
PUSHW[ ]	/* 2 values pushed */
27 5
MIAP[0]	/* MoveIndirectAbsPt */
EIF[ ]	/* EndIf */
PUSHW[ ]	/* 1 value pushed */
56
MDRP[11100]	/* MoveDirectRelPt */
NPUSHW[ ]	/* 27 values pushed */
7 56 23 56 39 56 55 56 71 56 87 56 103 56 119 56 135 56 151 56 167 56 183 56 199 56 13
DELTAP1[ ]	/* DeltaExceptionP1 */
NPUSHW[ ]	/* 5 values pushed */
214 56 230 56 2
DELTAP1[ ]	/* DeltaExceptionP1 */
SVTCA[1]	/* SetFreedomAndProjectionVectorToAxis */
PUSHW[ ]	/* 3 values pushed */
54 31 3
CALL[ ]	/* CallFunction */
NPUSHW[ ]	/* 27 values pushed */
6 54 22 54 38 54 54 54 70 54 86 54 102 54 118 54 134 54 150 54 166 54 182 54 198 54 13
DELTAP1[ ]	/* DeltaExceptionP1 */
NPUSHW[ ]	/* 5 values pushed */
213 54 229 54 2
DELTAP1[ ]	/* DeltaExceptionP1 */
IUP[0]	/* InterpolateUntPts */
IUP[1]	/* InterpolateUntPts */";
};
width = 689;
}
);
note = k;
unicode = 107;
},
{
glyphname = l;
lastChange = "2025-12-26 02:35:02 +0000";
layers = (
{
layerId = m01;
shapes = (
{
closed = 1;
nodes = (
(206,462,o),
(182,404,o),
(158,348,o),
(152,334,qs),
(136,292,o),
(110,224,o),
(106,214,qs),
(96,186,o),
(62,98,o),
(60,52,qs),
(60,40,o),
(70,12,o),
(84,-12,o),
(102,-28,o),
(110,-28,qs),
(126,-26,o),
(136,-12,o),
(126,10,qs),
(120,26,o),
(120,74,o),
(124,90,qs),
(128,112,o),
(166,208,o),
(208,310,o),
(244,394,o),
(248,404,qs),
(252,414,o),
(278,478,o),
(290,504,qs),
(316,560,o),
(354,646,o),
(364,658,q),
(370,668,o),
(380,684,o),
(380,694,q),
(382,702,o),
(374,716,o),
(370,720,q),
(366,722,o),
(358,726,o),
(354,726,qs),
(336,726,o),
(318,700,qs),
(310,690,o),
(286,642,o),
(260,584,o),
(234,530,o),
(226,512,qs),
(224,508,o)
);
}
);
userData = {
assembly = "PUSHW[ ]	/* 1 value pushed */
0
CALL[ ]	/* CallFunction */
SVTCA[0]	/* SetFreedomAndProjectionVectorToAxis */
PUSHW[ ]	/* 1 value pushed */
7
MDAP[1]	/* MoveDirectAbsPt */
PUSHW[ ]	/* 1 value pushed */
10
MDAP[1]	/* MoveDirectAbsPt */
PUSHW[ ]	/* 1 value pushed */
0
RCVT[ ]	/* ReadCVT */
IF[ ]	/* If */
PUSHW[ ]	/* 1 value pushed */
33
MDAP[1]	/* MoveDirectAbsPt */
ELSE[ ]	/* Else */
PUSHW[ ]	/* 2 values pushed */
33 5
MIAP[0]	/* MoveIndirectAbsPt */
EIF[ ]	/* EndIf */
IUP[0]	/* InterpolateUntPts */
IUP[1]	/* InterpolateUntPts */";
};
width = 441;
}
);
note = l;
unicode = 108;
},
{
glyphname = m;
lastChange = "2025-12-26 02:35:02 +0000";
layers = (
{
layerId = m01;
shapes = (
{
closed = 1;
nodes = (
(78,146,o),
(64,102,o),
(62,88,qs),
(56,58,o),
(78,18,o),
(100,14,qs),
(130,10,o),
(188,68,o),
(228,104,qs),
(242,116,o),
(288,152,o),
(334,184,o),
(372,204,o),
(380,200,qs),
(394,194,o),
(356,126,o),
(336,86,qs),
(328,70,o),
(318,36,o),
(322,18,qs),
(324,12,o),
(346,4,o),
(374,4,o),
(400,10,o),
(406,18,qs),
(428,50,o),
(482,106,o),
(510,128,qs),
(528,144,o),
(578,178,o),
(626,204,o),
(670,218,o),
(682,214,qs),
(696,210,o),
(682,166,o),
(656,112,o),
(628,56,o),
(628,40,qs),
(626,20,o),
(646,0,o),
(660,-2,q),
(676,-2,o),
(692,26,o),
(698,42,qs),
(714,82,o),
(754,152,o),
(760,194,qs),
(762,208,o),
(760,242,o),
(744,268,o),
(712,286,o),
(682,284,qs),
(646,282,o),
(574,248,o),
(514,206,o),
(470,170,o),
(460,166,qs),
(454,164,o),
(456,180,o),
(458,204,o),
(458,230,o),
(452,238,qs),
(446,248,o),
(420,266,o),
(398,268,qs),
(364,270,o),
(284,226,o),
(214,170,o),
(162,122,o),
(154,120,qs),
(148,118,o),
(156,144,o),
(172,180,o),
(184,218,o),
(180,226,q),
(176,242,o),
(132,252,o),
(122,238,qs),
(116,228,o),
(98,186,o),
(88,164,qs)
);
}
);
userData = {
assembly = "PUSHW[ ]	/* 1 value pushed */
0
CALL[ ]	/* CallFunction */
SVTCA[0]	/* SetFreedomAndProjectionVectorToAxis */
PUSHW[ ]	/* 1 value pushed */
16
MDAP[1]	/* MoveDirectAbsPt */
PUSHW[ ]	/* 1 value pushed */
0
RCVT[ ]	/* ReadCVT */
IF[ ]	/* If */
PUSHW[ ]	/* 1 value pushed */
40
MDAP[1]	/* MoveDirectAbsPt */
ELSE[ ]	/* Else */
PUSHW[ ]	/* 2 values pushed */
40 5
MIAP[0]	/* MoveIndirectAbsPt */
EIF[ ]	/* EndIf */
PUSHW[ ]	/* 3 values pushed */
29 6 3
CALL[ ]	/* CallFunction */
PUSHW[ ]	/* 1 value pushed */
40
SRP0[ ]	/* SetRefPoint0 */
PUSHW[ ]	/* 1 value pushed */
75
MDRP[11100]	/* MoveDirectRelPt */
NPUSHW[ ]	/* 27 values pushed */
7 75 23 75 39 75 55 75 71 75 87 75 103 75 119 75 135 75 151 75 167 75 183 75 199 75 13
DELTAP1[ ]	/* DeltaExceptionP1 */
NPUSHW[ ]	/* 5 values pushed */
214 75 230 75 2
DELTAP1[ ]	/* DeltaExceptionP1 */
IUP[0]	/* InterpolateUntPts */
IUP[1]	/* InterpolateUntPts */";
};
width = 821;
}
);
note = m;
unicode = 109;
},
{
glyphname = n;
lastChange = "2025-12-26 02:35:02 +0000";
layers = (
{
layerId = m01;
shapes = (
{
closed = 1;
nodes = (
(78,98,o),
(66,66,o),
(60,46,o),
(60,36,q),
(64,6,o),
(90,6,qs),
(102,6,o),
(112,16,qs),
(128,32,o),
(152,72,o),
(168,88,qs),
(180,100,o),
(230,154,o),
(296,210,o),
(368,252,o),
(400,254,qs),
(432,258,o),
(452,210,o),
(448,176,qs),
(446,154,o),
(434,118,o),
(426,96,qs),
(418,74,o),
(402,44,o),
(406,24,qs),
(412,4,o),
(432,4,qs),
(448,4,o),
(454,16,qs),
(462,32,o),
(482,82,o),
(500,136,o),
(512,188,o),
(510,206,qs),
(510,216,o),
(502,252,o),
(478,288,o),
(438,314,o),
(406,314,qs),
(360,314,o),
(258,246,o),
(220,212,qs),
(196,190,o),
(168,158,o),
(164,158,q),
(164,166,o),
(174,196,o),
(190,230,o),
(202,258,o),
(204,264,qs),
(208,280,o),
(190,298,o),
(178,298,qs),
(162,298,o),
(150,284,qs),
(134,266,o),
(122,214,o),
(110,180,qs),
(98,144,o)
);
}
);
userData = {
assembly = "PUSHW[ ]	/* 1 value pushed */
0
CALL[ ]	/* CallFunction */
SVTCA[0]	/* SetFreedomAndProjectionVectorToAxis */
PUSHW[ ]	/* 3 values pushed */
5 3 3
CALL[ ]	/* CallFunction */
PUSHW[ ]	/* 3 values pushed */
20 43 3
CALL[ ]	/* CallFunction */
SVTCA[1]	/* SetFreedomAndProjectionVectorToAxis */
PUSHW[ ]	/* 3 values pushed */
25 40 3
CALL[ ]	/* CallFunction */
NPUSHW[ ]	/* 5 values pushed */
218 40 234 40 2
DELTAP1[ ]	/* DeltaExceptionP1 */
NPUSHW[ ]	/* 27 values pushed */
9 40 25 40 41 40 57 40 73 40 89 40 105 40 121 40 137 40 153 40 169 40 185 40 201 40 13
DELTAP1[ ]	/* DeltaExceptionP1 */
IUP[0]	/* InterpolateUntPts */
IUP[1]	/* InterpolateUntPts */";
};
width = 570;
}
);
note = n;
unicode = 110;
},
{
glyphname = o;
lastChange = "2025-12-26 05:26:28 +0000";
layers = (
{
layerId = m01;
shapes = (
{
closed = 1;
nodes = (
(410,130,o),
(322,80,o),
(234,48,o),
(214,48,qs),
(186,48,o),
(136,84,o),
(136,114,qs),
(136,134,o),
(176,184,o),
(236,230,o),
(298,262,o),
(318,262,q),
(328,260,o),
(336,252,o),
(342,244,o),
(354,240,o),
(366,240,qs),
(376,240,o),
(380,262,o),
(376,274,q),
(380,272,o),
(386,272,qs),
(414,270,o),
(476,228,o),
(476,210,qs),
(478,186,o)
);
},
{
closed = 1;
nodes = (
(360,338,o),
(332,332,qs),
(324,330,o),
(320,322,q),
(306,325,o),
(294,322,qs),
(268,315,o),
(194,268,o),
(160,246,qs),
(148,238,o),
(114,210,o),
(80,174,o),
(58,132,o),
(60,110,qs),
(68,50,o),
(148,-8,o),
(232,-4,qs),
(262,-2,o),
(318,16,o),
(366,40,o),
(406,66,o),
(420,74,qs),
(438,84,o),
(480,118,o),
(516,156,o),
(540,194,o),
(540,208,qs),
(540,222,o),
(526,254,o),
(502,282,o),
(472,304,o),
(460,310,qs),
(436,320,o)
);
}
);
userData = {
assembly = "PUSHW[ ]	/* 1 value pushed */
0
CALL[ ]	/* CallFunction */
SVTCA[0]	/* SetFreedomAndProjectionVectorToAxis */
PUSHW[ ]	/* 1 value pushed */
21
MDAP[1]	/* MoveDirectAbsPt */
PUSHW[ ]	/* 1 value pushed */
0
RCVT[ ]	/* ReadCVT */
IF[ ]	/* If */
PUSHW[ ]	/* 1 value pushed */
41
MDAP[1]	/* MoveDirectAbsPt */
ELSE[ ]	/* Else */
PUSHW[ ]	/* 2 values pushed */
41 5
MIAP[0]	/* MoveIndirectAbsPt */
EIF[ ]	/* EndIf */
PUSHW[ ]	/* 3 values pushed */
54 13 3
CALL[ ]	/* CallFunction */
PUSHW[ ]	/* 1 value pushed */
13
SRP0[ ]	/* SetRefPoint0 */
PUSHW[ ]	/* 1 value pushed */
3
MDRP[10000]	/* MoveDirectRelPt */
PUSHW[ ]	/* 1 value pushed */
3
MDAP[1]	/* MoveDirectAbsPt */
PUSHW[ ]	/* 3 values pushed */
5 13 54
SRP1[ ]	/* SetRefPoint1 */
SRP2[ ]	/* SetRefPoint2 */
IP[ ]	/* InterpolatePts */
PUSHW[ ]	/* 1 value pushed */
54
SRP0[ ]	/* SetRefPoint0 */
PUSHW[ ]	/* 1 value pushed */
56
MDRP[10000]	/* MoveDirectRelPt */
PUSHW[ ]	/* 1 value pushed */
56
MDAP[1]	/* MoveDirectAbsPt */
SVTCA[1]	/* SetFreedomAndProjectionVectorToAxis */
PUSHW[ ]	/* 3 values pushed */
31 0 3
CALL[ ]	/* CallFunction */
NPUSHW[ ]	/* 5 values pushed */
218 0 234 0 2
DELTAP1[ ]	/* DeltaExceptionP1 */
NPUSHW[ ]	/* 27 values pushed */
9 0 25 0 41 0 57 0 73 0 89 0 105 0 121 0 137 0 153 0 169 0 185 0 201 0 13
DELTAP1[ ]	/* DeltaExceptionP1 */
IUP[0]	/* InterpolateUntPts */
IUP[1]	/* InterpolateUntPts */";
};
width = 600;
}
);
note = o;
unicode = 111;
},
{
glyphname = p;
lastChange = "2025-12-26 02:35:02 +0000";
layers = (
{
layerId = m01;
shapes = (
{
closed = 1;
nodes = (
(241,80,o),
(237,70,q),
(233,64,o),
(237,48,o),
(241,44,q),
(263,12,o),
(343,-14,o),
(379,-14,qs),
(421,-14,o),
(503,26,o),
(571,88,o),
(613,170,o),
(615,212,qs),
(615,230,o),
(599,274,o),
(563,312,o),
(503,336,o),
(457,336,qs),
(415,336,o),
(333,282,o),
(299,248,qs),
(261,210,o),
(227,162,q),
(229,172,o),
(231,182,qs),
(233,192,o),
(235,210,o),
(237,214,qs),
(243,230,o),
(261,270,o),
(249,280,q),
(241,284,o),
(235,284,qs),
(213,284,o),
(193,246,qs),
(187,234,o),
(177,186,o),
(167,132,o),
(159,80,o),
(155,66,q),
(155,60,o),
(133,20,o),
(107,-40,o),
(79,-110,o),
(73,-144,qs),
(51,-240,o),
(67,-278,qs),
(73,-294,o),
(93,-294,qs),
(113,-294,o),
(121,-280,qs),
(129,-268,o),
(153,-174,o),
(177,-68,o),
(199,28,o),
(205,44,qs),
(213,68,o),
(259,134,o),
(317,200,o),
(375,254,o),
(397,264,qs),
(415,272,o),
(455,284,o),
(477,284,qs),
(505,284,o),
(533,268,qs),
(551,256,o),
(559,208,o),
(543,154,o),
(509,102,o),
(487,86,qs),
(459,64,o),
(399,40,o),
(355,40,qs),
(327,40,o),
(283,56,o),
(263,78,q),
(259,84,o)
);
}
);
userData = {
assembly = "PUSHW[ ]	/* 1 value pushed */
0
CALL[ ]	/* CallFunction */
SVTCA[0]	/* SetFreedomAndProjectionVectorToAxis */
PUSHW[ ]	/* 1 value pushed */
0
RCVT[ ]	/* ReadCVT */
IF[ ]	/* If */
PUSHW[ ]	/* 1 value pushed */
69
MDAP[1]	/* MoveDirectAbsPt */
ELSE[ ]	/* Else */
PUSHW[ ]	/* 2 values pushed */
69 5
MIAP[0]	/* MoveIndirectAbsPt */
EIF[ ]	/* EndIf */
PUSHW[ ]	/* 3 values pushed */
59 13 3
CALL[ ]	/* CallFunction */
PUSHW[ ]	/* 1 value pushed */
69
SRP0[ ]	/* SetRefPoint0 */
PUSHW[ ]	/* 1 value pushed */
3
MDRP[11100]	/* MoveDirectRelPt */
NPUSHW[ ]	/* 27 values pushed */
7 3 23 3 39 3 55 3 71 3 87 3 103 3 119 3 135 3 151 3 167 3 183 3 199 3 13
DELTAP1[ ]	/* DeltaExceptionP1 */
NPUSHW[ ]	/* 5 values pushed */
214 3 230 3 2
DELTAP1[ ]	/* DeltaExceptionP1 */
PUSHW[ ]	/* 1 value pushed */
13
SRP0[ ]	/* SetRefPoint0 */
PUSHW[ ]	/* 1 value pushed */
11
MDRP[11100]	/* MoveDirectRelPt */
PUSHW[ ]	/* 1 value pushed */
13
SRP0[ ]	/* SetRefPoint0 */
PUSHW[ ]	/* 1 value pushed */
44
MDRP[10000]	/* MoveDirectRelPt */
IUP[0]	/* InterpolateUntPts */
IUP[1]	/* InterpolateUntPts */";
};
width = 675;
}
);
note = p;
unicode = 112;
},
{
glyphname = q;
lastChange = "2025-12-26 02:35:02 +0000";
layers = (
{
layerId = m01;
shapes = (
{
closed = 1;
nodes = (
(387,226,o),
(383,240,qs),
(381,250,o),
(365,276,o),
(337,302,o),
(295,322,o),
(269,322,qs),
(237,322,o),
(169,288,o),
(113,236,o),
(77,170,o),
(75,136,qs),
(71,94,o),
(119,28,o),
(155,22,qs),
(165,20,o),
(183,18,o),
(191,18,qs),
(225,18,o),
(249,28,q),
(261,30,o),
(271,36,q),
(261,22,o),
(227,-40,o),
(189,-114,o),
(147,-194,o),
(131,-226,qs),
(97,-298,o),
(65,-400,o),
(61,-448,qs),
(59,-470,o),
(65,-508,o),
(69,-514,q),
(73,-526,o),
(105,-526,o),
(111,-516,q),
(115,-506,o),
(111,-464,o),
(117,-440,qs),
(123,-408,o),
(149,-340,o),
(177,-276,o),
(207,-220,o),
(217,-198,qs),
(227,-176,o),
(275,-94,o),
(323,-10,o),
(365,56,o),
(369,64,qs),
(389,96,o),
(419,132,qs),
(427,142,o),
(453,174,o),
(481,208,o),
(505,238,o),
(511,246,qs),
(521,262,o),
(537,300,o),
(531,316,q),
(525,326,o),
(495,346,o),
(479,336,qs),
(463,326,o),
(429,262,o),
(399,228,qs),
(371,198,o),
(323,128,o),
(311,122,qs),
(281,104,o),
(219,74,o),
(193,74,qs),
(179,74,o),
(167,80,qs),
(145,90,o),
(145,138,o),
(149,158,qs),
(155,178,o),
(181,218,o),
(217,248,o),
(259,266,o),
(281,266,qs),
(303,266,o),
(325,252,o),
(329,248,qs),
(337,238,o),
(347,216,o),
(359,212,qs),
(373,208,o)
);
}
);
userData = {
assembly = "PUSHW[ ]	/* 1 value pushed */
0
CALL[ ]	/* CallFunction */
SVTCA[0]	/* SetFreedomAndProjectionVectorToAxis */
PUSHW[ ]	/* 3 values pushed */
80 6 3
CALL[ ]	/* CallFunction */
PUSHW[ ]	/* 3 values pushed */
16 69 3
CALL[ ]	/* CallFunction */
PUSHW[ ]	/* 1 value pushed */
69
SRP0[ ]	/* SetRefPoint0 */
PUSHW[ ]	/* 1 value pushed */
72
MDRP[10000]	/* MoveDirectRelPt */
PUSHW[ ]	/* 1 value pushed */
72
MDAP[1]	/* MoveDirectAbsPt */
SVTCA[1]	/* SetFreedomAndProjectionVectorToAxis */
PUSHW[ ]	/* 3 values pushed */
51 57 3
CALL[ ]	/* CallFunction */
NPUSHW[ ]	/* 27 values pushed */
6 51 22 51 38 51 54 51 70 51 86 51 102 51 118 51 134 51 150 51 166 51 182 51 198 51 13
DELTAP1[ ]	/* DeltaExceptionP1 */
NPUSHW[ ]	/* 5 values pushed */
213 51 229 51 2
DELTAP1[ ]	/* DeltaExceptionP1 */
PUSHW[ ]	/* 1 value pushed */
57
SRP0[ ]	/* SetRefPoint0 */
PUSHW[ ]	/* 1 value pushed */
75
MDRP[10000]	/* MoveDirectRelPt */
PUSHW[ ]	/* 1 value pushed */
75
MDAP[1]	/* MoveDirectAbsPt */
IUP[0]	/* InterpolateUntPts */
IUP[1]	/* InterpolateUntPts */";
};
width = 594;
}
);
note = q;
unicode = 113;
},
{
glyphname = r;
lastChange = "2025-12-26 02:35:02 +0000";
layers = (
{
layerId = m01;
shapes = (
{
closed = 1;
nodes = (
(57,72,o),
(61,50,qs),
(65,30,o),
(89,6,o),
(103,6,qs),
(107,6,o),
(119,10,q),
(131,16,o),
(135,54,o),
(141,98,qs),
(147,132,o),
(215,204,o),
(267,226,qs),
(307,244,o),
(385,260,o),
(391,272,q),
(411,302,o),
(349,302,qs),
(319,302,o),
(267,294,o),
(239,284,qs),
(217,276,o),
(191,262,o),
(187,262,qs),
(185,262,o),
(185,264,q),
(183,268,o),
(187,286,o),
(183,296,qs),
(181,302,o),
(163,316,o),
(153,316,qs),
(137,316,o),
(125,296,q),
(115,272,o),
(99,206,o),
(87,166,qs),
(73,128,o)
);
}
);
userData = {
assembly = "PUSHW[ ]	/* 1 value pushed */
0
CALL[ ]	/* CallFunction */
SVTCA[0]	/* SetFreedomAndProjectionVectorToAxis */
PUSHW[ ]	/* 1 value pushed */
3
MDAP[1]	/* MoveDirectAbsPt */
PUSHW[ ]	/* 1 value pushed */
5
MDAP[1]	/* MoveDirectAbsPt */
PUSHW[ ]	/* 1 value pushed */
8
MDAP[1]	/* MoveDirectAbsPt */
PUSHW[ ]	/* 1 value pushed */
19
MDAP[1]	/* MoveDirectAbsPt */
IUP[0]	/* InterpolateUntPts */
IUP[1]	/* InterpolateUntPts */";
};
width = 456;
}
);
note = r;
unicode = 114;
},
{
glyphname = s;
lastChange = "2025-12-26 02:35:02 +0000";
layers = (
{
layerId = m01;
shapes = (
{
closed = 1;
nodes = (
(313,354,o),
(299,354,qs),
(253,354,o),
(167,308,o),
(161,256,qs),
(157,228,o),
(193,164,o),
(219,142,qs),
(235,128,o),
(267,108,o),
(293,96,o),
(307,88,o),
(303,84,q),
(295,80,o),
(243,60,o),
(207,50,qs),
(169,40,o),
(99,40,o),
(89,38,qs),
(73,34,o),
(53,12,o),
(75,2,qs),
(103,-12,o),
(155,-12,qs),
(183,-12,o),
(253,0,o),
(319,24,o),
(373,64,o),
(381,90,qs),
(385,100,o),
(343,132,o),
(283,160,qs),
(255,174,o),
(213,224,o),
(219,244,qs),
(229,276,o),
(283,308,o),
(317,308,qs),
(325,308,o),
(341,306,o),
(351,304,qs),
(363,300,o),
(373,310,o),
(373,324,o),
(363,342,o),
(355,344,q),
(341,350,o)
);
}
);
userData = {
assembly = "PUSHW[ ]	/* 1 value pushed */
0
CALL[ ]	/* CallFunction */
SVTCA[0]	/* SetFreedomAndProjectionVectorToAxis */
PUSHW[ ]	/* 1 value pushed */
0
RCVT[ ]	/* ReadCVT */
IF[ ]	/* If */
PUSHW[ ]	/* 1 value pushed */
0
MDAP[1]	/* MoveDirectAbsPt */
ELSE[ ]	/* Else */
PUSHW[ ]	/* 2 values pushed */
0 9
MIAP[0]	/* MoveIndirectAbsPt */
EIF[ ]	/* EndIf */
PUSHW[ ]	/* 1 value pushed */
0
RCVT[ ]	/* ReadCVT */
IF[ ]	/* If */
PUSHW[ ]	/* 1 value pushed */
44
MDAP[1]	/* MoveDirectAbsPt */
ELSE[ ]	/* Else */
PUSHW[ ]	/* 2 values pushed */
44 9
MIAP[0]	/* MoveIndirectAbsPt */
EIF[ ]	/* EndIf */
PUSHW[ ]	/* 1 value pushed */
0
RCVT[ ]	/* ReadCVT */
IF[ ]	/* If */
PUSHW[ ]	/* 1 value pushed */
22
MDAP[1]	/* MoveDirectAbsPt */
ELSE[ ]	/* Else */
PUSHW[ ]	/* 2 values pushed */
22 5
MIAP[0]	/* MoveIndirectAbsPt */
EIF[ ]	/* EndIf */
PUSHW[ ]	/* 1 value pushed */
0
RCVT[ ]	/* ReadCVT */
IF[ ]	/* If */
PUSHW[ ]	/* 1 value pushed */
24
MDAP[1]	/* MoveDirectAbsPt */
ELSE[ ]	/* Else */
PUSHW[ ]	/* 2 values pushed */
24 5
MIAP[0]	/* MoveIndirectAbsPt */
EIF[ ]	/* EndIf */
PUSHW[ ]	/* 1 value pushed */
0
SRP0[ ]	/* SetRefPoint0 */
PUSHW[ ]	/* 1 value pushed */
5
MDRP[11100]	/* MoveDirectRelPt */
NPUSHW[ ]	/* 5 values pushed */
217 5 233 5 2
DELTAP1[ ]	/* DeltaExceptionP1 */
NPUSHW[ ]	/* 27 values pushed */
8 5 24 5 40 5 56 5 72 5 88 5 104 5 120 5 136 5 152 5 168 5 184 5 200 5 13
DELTAP1[ ]	/* DeltaExceptionP1 */
PUSHW[ ]	/* 1 value pushed */
8
MDRP[10000]	/* MoveDirectRelPt */
PUSHW[ ]	/* 1 value pushed */
24
SRP0[ ]	/* SetRefPoint0 */
PUSHW[ ]	/* 1 value pushed */
27
MDRP[11100]	/* MoveDirectRelPt */
NPUSHW[ ]	/* 27 values pushed */
7 27 23 27 39 27 55 27 71 27 87 27 103 27 119 27 135 27 151 27 167 27 183 27 199 27 13
DELTAP1[ ]	/* DeltaExceptionP1 */
NPUSHW[ ]	/* 5 values pushed */
214 27 230 27 2
DELTAP1[ ]	/* DeltaExceptionP1 */
IUP[0]	/* InterpolateUntPts */
IUP[1]	/* InterpolateUntPts */";
};
width = 442;
}
);
note = s;
unicode = 115;
},
{
glyphname = t;
lastChange = "2025-12-26 02:35:02 +0000";
layers = (
{
layerId = m01;
shapes = (
{
closed = 1;
nodes = (
(306,650,o),
(280,558,o),
(252,452,o),
(240,402,qs),
(232,374,o),
(212,284,o),
(202,244,q),
(194,242,o),
(182,242,o),
(174,240,qs),
(134,234,o),
(72,220,o),
(62,188,qs),
(54,160,o),
(92,88,o),
(112,60,qs),
(126,40,o),
(156,0,o),
(176,-4,qs),
(198,-8,o),
(218,8,o),
(224,24,qs),
(228,38,o),
(234,72,o),
(238,104,q),
(242,120,o),
(250,164,o),
(254,190,q),
(268,192,o),
(334,202,o),
(404,214,o),
(462,226,o),
(466,230,q),
(494,248,o),
(464,264,o),
(434,266,qs),
(410,266,o),
(320,258,o),
(268,252,q),
(278,290,o),
(292,360,o),
(298,388,qs),
(308,434,o),
(332,530,o),
(356,614,o),
(378,680,o),
(384,694,qs),
(394,716,o),
(410,732,o),
(412,744,q),
(412,766,o),
(390,780,o),
(376,776,qs),
(360,772,o),
(342,748,o),
(330,722,qs),
(326,714,o)
);
},
{
closed = 1;
nodes = (
(168,174,o),
(190,178,q),
(184,146,o),
(172,90,o),
(166,90,q),
(162,92,o),
(146,112,o),
(132,136,o),
(126,158,o),
(130,162,qs),
(134,166,o)
);
}
);
userData = {
assembly = "PUSHW[ ]	/* 1 value pushed */
0
CALL[ ]	/* CallFunction */
SVTCA[0]	/* SetFreedomAndProjectionVectorToAxis */
PUSHW[ ]	/* 1 value pushed */
23
MDAP[1]	/* MoveDirectAbsPt */
PUSHW[ ]	/* 1 value pushed */
46
MDAP[1]	/* MoveDirectAbsPt */
PUSHW[ ]	/* 1 value pushed */
49
MDAP[1]	/* MoveDirectAbsPt */
PUSHW[ ]	/* 1 value pushed */
0
RCVT[ ]	/* ReadCVT */
IF[ ]	/* If */
PUSHW[ ]	/* 1 value pushed */
37
MDAP[1]	/* MoveDirectAbsPt */
ELSE[ ]	/* Else */
PUSHW[ ]	/* 2 values pushed */
37 5
MIAP[0]	/* MoveIndirectAbsPt */
EIF[ ]	/* EndIf */
PUSHW[ ]	/* 3 values pushed */
17 28 3
CALL[ ]	/* CallFunction */
PUSHW[ ]	/* 1 value pushed */
17
SRP0[ ]	/* SetRefPoint0 */
PUSHW[ ]	/* 1 value pushed */
20
MDRP[10000]	/* MoveDirectRelPt */
PUSHW[ ]	/* 1 value pushed */
20
MDAP[1]	/* MoveDirectAbsPt */
PUSHW[ ]	/* 1 value pushed */
37
SRP0[ ]	/* SetRefPoint0 */
PUSHW[ ]	/* 1 value pushed */
62
MDRP[11100]	/* MoveDirectRelPt */
NPUSHW[ ]	/* 27 values pushed */
7 62 23 62 39 62 55 62 71 62 87 62 103 62 119 62 135 62 151 62 167 62 183 62 199 62 13
DELTAP1[ ]	/* DeltaExceptionP1 */
NPUSHW[ ]	/* 5 values pushed */
214 62 230 62 2
DELTAP1[ ]	/* DeltaExceptionP1 */
PUSHW[ ]	/* 1 value pushed */
28
SRP0[ ]	/* SetRefPoint0 */
PUSHW[ ]	/* 1 value pushed */
65
MDRP[10000]	/* MoveDirectRelPt */
PUSHW[ ]	/* 1 value pushed */
65
MDAP[1]	/* MoveDirectAbsPt */
IUP[0]	/* InterpolateUntPts */
IUP[1]	/* InterpolateUntPts */";
};
width = 544;
}
);
note = t;
unicode = 116;
},
{
glyphname = u;
lastChange = "2025-12-26 05:27:02 +0000";
layers = (
{
layerId = m01;
shapes = (
{
closed = 1;
nodes = (
(80,242,o),
(66,200,o),
(60,156,o),
(60,142,qs),
(60,88,o),
(130,0,o),
(188,0,qs),
(218,0,o),
(282,42,o),
(340,98,o),
(386,156,o),
(398,174,qs),
(420,208,o),
(462,270,o),
(466,292,qs),
(468,304,o),
(452,318,o),
(442,318,qs),
(420,318,o),
(412,298,qs),
(388,248,o),
(302,146,o),
(258,108,qs),
(241,93,o),
(206,68,o),
(190,68,qs),
(150,68,o),
(122,136,o),
(122,168,qs),
(122,190,o),
(134,222,o),
(150,246,o),
(160,266,o),
(160,276,qs),
(160,296,o),
(134,296,qs),
(118,296,o),
(110,288,q),
(98,280,o)
);
}
);
userData = {
assembly = "PUSHW[ ]	/* 1 value pushed */
0
CALL[ ]	/* CallFunction */
SVTCA[0]	/* SetFreedomAndProjectionVectorToAxis */
PUSHW[ ]	/* 1 value pushed */
0
RCVT[ ]	/* ReadCVT */
IF[ ]	/* If */
PUSHW[ ]	/* 1 value pushed */
31
MDAP[1]	/* MoveDirectAbsPt */
ELSE[ ]	/* Else */
PUSHW[ ]	/* 2 values pushed */
31 5
MIAP[0]	/* MoveIndirectAbsPt */
EIF[ ]	/* EndIf */
PUSHW[ ]	/* 1 value pushed */
12
MDRP[11100]	/* MoveDirectRelPt */
NPUSHW[ ]	/* 27 values pushed */
7 12 23 12 39 12 55 12 71 12 87 12 103 12 119 12 135 12 151 12 167 12 183 12 199 12 13
DELTAP1[ ]	/* DeltaExceptionP1 */
NPUSHW[ ]	/* 5 values pushed */
214 12 230 12 2
DELTAP1[ ]	/* DeltaExceptionP1 */
SVTCA[1]	/* SetFreedomAndProjectionVectorToAxis */
PUSHW[ ]	/* 1 value pushed */
39
MDAP[1]	/* MoveDirectAbsPt */
PUSHW[ ]	/* 1 value pushed */
18
MDAP[1]	/* MoveDirectAbsPt */
PUSHW[ ]	/* 1 value pushed */
39
SRP0[ ]	/* SetRefPoint0 */
PUSHW[ ]	/* 1 value pushed */
34
MDRP[10000]	/* MoveDirectRelPt */
PUSHW[ ]	/* 1 value pushed */
34
MDAP[1]	/* MoveDirectAbsPt */
PUSHW[ ]	/* 1 value pushed */
9
MDRP[11100]	/* MoveDirectRelPt */
NPUSHW[ ]	/* 27 values pushed */
6 9 22 9 38 9 54 9 70 9 86 9 102 9 118 9 134 9 150 9 166 9 182 9 198 9 13
DELTAP1[ ]	/* DeltaExceptionP1 */
NPUSHW[ ]	/* 5 values pushed */
213 9 229 9 2
DELTAP1[ ]	/* DeltaExceptionP1 */
PUSHW[ ]	/* 1 value pushed */
0
MDRP[10000]	/* MoveDirectRelPt */
PUSHW[ ]	/* 1 value pushed */
0
MDAP[1]	/* MoveDirectAbsPt */
PUSHW[ ]	/* 1 value pushed */
9
SRP0[ ]	/* SetRefPoint0 */
PUSHW[ ]	/* 1 value pushed */
2
MDRP[10000]	/* MoveDirectRelPt */
PUSHW[ ]	/* 1 value pushed */
2
MDAP[1]	/* MoveDirectAbsPt */
NPUSHW[ ]	/* 5 values pushed */
218 18 234 18 2
DELTAP1[ ]	/* DeltaExceptionP1 */
NPUSHW[ ]	/* 27 values pushed */
9 18 25 18 41 18 57 18 73 18 89 18 105 18 121 18 137 18 153 18 169 18 185 18 201 18 13
DELTAP1[ ]	/* DeltaExceptionP1 */
PUSHW[ ]	/* 1 value pushed */
18
SRP0[ ]	/* SetRefPoint0 */
PUSHW[ ]	/* 1 value pushed */
23
MDRP[11100]	/* MoveDirectRelPt */
PUSHW[ ]	/* 1 value pushed */
18
SRP0[ ]	/* SetRefPoint0 */
PUSHW[ ]	/* 1 value pushed */
26
MDRP[10000]	/* MoveDirectRelPt */
PUSHW[ ]	/* 1 value pushed */
26
MDAP[1]	/* MoveDirectAbsPt */
IUP[0]	/* InterpolateUntPts */
IUP[1]	/* InterpolateUntPts */";
};
width = 526;
}
);
note = u;
unicode = 117;
},
{
glyphname = v;
lastChange = "2025-12-26 02:35:02 +0000";
layers = (
{
layerId = m01;
shapes = (
{
closed = 1;
nodes = (
(153,-12,o),
(173,-2,qs),
(201,10,o),
(283,106,o),
(339,152,qs),
(365,174,o),
(435,226,o),
(501,274,o),
(553,310,o),
(561,316,qs),
(571,322,o),
(579,356,o),
(561,354,qs),
(545,354,o),
(477,318,o),
(433,294,qs),
(403,276,o),
(333,232,o),
(265,182,o),
(201,130,o),
(179,106,q),
(173,106,o),
(159,146,o),
(143,196,o),
(127,248,o),
(121,260,qs),
(111,280,o),
(87,280,qs),
(69,280,o),
(61,260,q),
(59,252,o),
(63,212,o),
(73,164,o),
(87,118,o),
(91,106,qs),
(107,56,o)
);
}
);
userData = {
assembly = "PUSHW[ ]	/* 1 value pushed */
0
CALL[ ]	/* CallFunction */
SVTCA[0]	/* SetFreedomAndProjectionVectorToAxis */
PUSHW[ ]	/* 1 value pushed */
0
RCVT[ ]	/* ReadCVT */
IF[ ]	/* If */
PUSHW[ ]	/* 1 value pushed */
22
MDAP[1]	/* MoveDirectAbsPt */
ELSE[ ]	/* Else */
PUSHW[ ]	/* 2 values pushed */
22 9
MIAP[0]	/* MoveIndirectAbsPt */
EIF[ ]	/* EndIf */
IUP[0]	/* InterpolateUntPts */
IUP[1]	/* InterpolateUntPts */";
};
width = 636;
}
);
note = v;
unicode = 118;
},
